{
.appVersion = "1352";
classes = (
{
automatic = 1;

glyphs = (
{
color = 8;
glyphname = A;
lastChange = "2021-05-13 19:39:20 +0000";
layers = (
{
anchors = (
{
name = bottom;
position = "{838, 0}";
},
{
name = ogonek;
position = "{1554, 0}";
},
{
name = top;
position = "{838, 1500}";
}
);
hints = (
{
origin = "{0, 7}";
scale = "{0.76, 1}";
type = Corner;
name = _corner.Serif;
},
{
origin = "{0, 0}";
scale = "{-1.3, 1}";
type = Corner;
name = _corner.Serif;
options = 1;
},
{
origin = "{0, 3}";
scale = "{1.3, 1}";
type = Corner;
name = _corner.Serif;
},
{
origin = "{0, 4}";
scale = "{-0.76, 1}";
type = Corner;
name = _corner.Serif;
options = 1;
}
);
layerId = "1E61A082-F045-49A7-AB52-DD1B03FD9B54";
paths = (
{
closed = 1;
nodes = (
"251 0 LINE",
"842 1467 LINE",
"825 1467 LINE",
"1416 0 LINE",
"1468 0 LINE",
"856 1514 LINE",
"820 1514 LINE",
"208 0 LINE"
);
},
{
closed = 1;
nodes = (
"1224 520 LINE",
"1224 558 LINE",
"448 558 LINE",
"448 520 LINE"
);
}
);
width = 1676;
},
{
anchors = (
{
name = bottom;
position = "{932, 0}";
},
{
name = ogonek;
position = "{1662, 0}";
},
{
name = top;
position = "{932, 1500}";
}
);
hints = (
{
origin = "{0, 0}";
scale = "{-1.7, 1}";
type = Corner;
name = _corner.Serif;
options = 1;
},
{
origin = "{0, 3}";
scale = "{1.7, 1}";
type = Corner;
name = _corner.Serif;
},
{
origin = "{0, 4}";
scale = "{-0.6, 1}";
type = Corner;
name = _corner.Serif;
options = 1;
},
{
origin = "{0, 7}";
scale = "{0.6, 1}";
type = Corner;
name = _corner.Serif;
}
);
layerId = "219068EA-2B9B-40DC-949E-B60449C01B8A";
paths = (
{
closed = 1;
nodes = (
"384 0 LINE",
"915 1269 LINE",
"784 1270 LINE",
"1301 0 LINE",
"1762 0 LINE",
"1126 1500 LINE",
"738 1500 LINE",
"102 0 LINE"
);
},
{
closed = 1;
nodes = (
"1204 425 LINE",
"1204 649 LINE",
"506 649 LINE",
"506 425 LINE"
);
}
);
width = 1864;
},
{
anchors = (
{
name = bottom;
position = "{901, 0}";
},
{
name = ogonek;
position = "{1617, 0}";
},
{
name = top;
position = "{901, 1500}";
}
);
hints = (
{
origin = "{0, 7}";
scale = "{0.6, 1}";
type = Corner;
name = _corner.Serif;
},
{
origin = "{0, 0}";
scale = "{-1.7, 1}";
type = Corner;
name = _corner.Serif;
options = 1;
},
{
origin = "{0, 3}";
scale = "{1.7, 1}";
type = Corner;
name = _corner.Serif;
},
{
origin = "{0, 4}";
scale = "{-0.6, 1}";
type = Corner;
name = _corner.Serif;
options = 1;
}
);
layerId = "0C29AA02-E021-4BD1-A2C4-87F681D64C35";
paths = (
{
closed = 1;
nodes = (
"352 0 LINE",
"868 1275 LINE",
"741 1276 LINE",
"1235 0 LINE",
"1695 0 LINE",
"1079 1506 LINE",
"726 1506 LINE",
"110 0 LINE"
);
},
{
closed = 1;
nodes = (
"1153 433 LINE",
"1153 633 LINE",
"455 633 LINE",
"455 433 LINE"
);
}
);
width = 1805;
},
{
anchors = (
{
name = bottom;
position = "{867, 0}";
},
{
name = ogonek;
position = "{1612, 0}";
},
{
name = top;
position = "{867, 1500}";
}
);
hints = (
{
origin = "{0, 0}";
scale = "{-1.32, 1}";
type = Corner;
name = _corner.Serif;
options = 1;
},
{
origin = "{0, 3}";
scale = "{1.32, 1}";
type = Corner;
name = _corner.Serif;
},
{
origin = "{0, 4}";
scale = "{-0.75, 1}";
type = Corner;
name = _corner.Serif;
options = 1;
},
{
origin = "{0, 7}";
scale = "{0.75, 1}";
type = Corner;
name = _corner.Serif;
}
);
layerId = "2B88661E-23DD-4EDA-82FC-C2AEA983F097";
paths = (
{
closed = 1;
nodes = (
"261 0 LINE",
"878 1464 LINE",
"852 1464 LINE",
"1469 0 LINE",
"1534 0 LINE",
"892 1517 LINE",
"842 1517 LINE",
"200 0 LINE"
);
},
{
closed = 1;
nodes = (
"1270 513 LINE",
"1270 563 LINE",
"458 563 LINE",
"458 513 LINE"
);
}
);
width = 1734;
}
);
leftKerningGroup = A;
rightKerningGroup = A;
unicode = 0041;
},
{
color = 8;
glyphname = AE;
lastChange = "2021-05-13 19:30:45 +0000";
layers = (
{
anchors = (
{
name = top;
position = "{1252, 1500}";
}
);
hints = (
{
origin = "{0, 0}";
scale = "{-1.3, 1}";
type = Corner;
name = _corner.Serif;
options = 1;
},
{
origin = "{0, 3}";
scale = "{0.76, 1}";
type = Corner;
name = _corner.Serif;
},
{
origin = "{1, 2}";
scale = "{-1.28, 1}";
type = Corner;
name = _corner.Serif;
},
{
origin = "{1, 3}";
scale = "{1.1, 1}";
type = Corner;
name = _corner.Serif;
options = 1;
}
);
layerId = "1E61A082-F045-49A7-AB52-DD1B03FD9B54";
paths = (
{
closed = 1;
nodes = (
"252 0 LINE",
"1228 1500 LINE",
"1183 1500 LINE",
"204 0 LINE"
);
},
{
closed = 1;
nodes = (
"1252 0 LINE",
"1252 1500 LINE",
"1204 1500 LINE",
"1204 0 LINE"
);
},
{
closed = 1;
nodes = (
"1204 520 LINE",
"1204 558 LINE",
"578 558 LINE",
"578 520 LINE"
);
},
{
closed = 1;
nodes = (
"2196 0 LINE",
"2196 38 LINE",
"1252 38 LINE",
"1252 0 LINE"
);
},
{
closed = 1;
nodes = (
"1792 308 LINE",
"1792 772 LINE",
"1636 772 LINE",
"1730 772 OFFCURVE",
"1754 748 OFFCURVE",
"1754 650 CURVE SMOOTH",
"1754 308 LINE"
);
},
{
closed = 1;
nodes = (
"1792 772 LINE",
"1792 810 LINE",
"1252 810 LINE",
"1252 772 LINE"
);
},
{
closed = 1;
nodes = (
"2196 38 LINE",
"2196 580 LINE",
"2156 580 LINE",
"2156 168 LINE SMOOTH",
"2156 64 OFFCURVE",
"2130 38 OFFCURVE",
"2030 38 CURVE"
);
},
{
closed = 1;
nodes = (
"1792 810 LINE",
"1792 1202 LINE",
"1754 1202 LINE",
"1754 932 LINE SMOOTH",
"1754 834 OFFCURVE",
"1730 810 OFFCURVE",
"1636 810 CURVE"
);
},
{
closed = 1;
nodes = (
"2178 1462 LINE",
"2178 1500 LINE",
"1252 1500 LINE",
"1252 1462 LINE"
);
},
{
closed = 1;
nodes = (
"2178 940 LINE",
"2178 1462 LINE",
"2012 1462 LINE",
"2112 1462 OFFCURVE",
"2138 1436 OFFCURVE",
"2138 1332 CURVE SMOOTH",
"2138 940 LINE"
);
}
);
width = 2348;
},
{
anchors = (
{
name = top;
position = "{1349, 1500}";
}
);
hints = (
{
origin = "{1, 2}";
scale = "{-2.9, 1}";
type = Corner;
name = _corner.Serif;
},
{
origin = "{1, 3}";
scale = "{1.1, 1}";
type = Corner;
name = _corner.Serif;
options = 1;
},
{
origin = "{0, 0}";
scale = "{-1.7, 1}";
type = Corner;
name = _corner.Serif;
options = 1;
},
{
origin = "{0, 3}";
scale = "{0.6, 1}";
type = Corner;
name = _corner.Serif;
}
);
layerId = "219068EA-2B9B-40DC-949E-B60449C01B8A";
paths = (
{
closed = 1;
nodes = (
"389 0 LINE",
"1309 1500 LINE",
"1010 1500 LINE",
"83 0 LINE"
);
},
{
closed = 1;
nodes = (
"1559 0 LINE",
"1559 1500 LINE",
"1139 1500 LINE",
"1139 0 LINE"
);
},
{
closed = 1;
nodes = (
"1139 425 LINE",
"1139 649 LINE",
"571 649 LINE",
"571 425 LINE"
);
},
{
closed = 1;
nodes = (
"2383 0 LINE",
"2383 224 LINE",
"1559 224 LINE",
"1559 0 LINE"
);
},
{
closed = 1;
nodes = (
"1964 364 LINE",
"1964 662 LINE",
"1568 662 LINE",
"1686 662 OFFCURVE",
"1740 592 OFFCURVE",
"1740 432 CURVE SMOOTH",
"1740 364 LINE"
);
},
{
closed = 1;
nodes = (
"1964 662 LINE",
"1964 882 LINE",
"1559 882 LINE",
"1559 662 LINE"
);
},
{
closed = 1;
nodes = (
"2383 224 LINE",
"2383 560 LINE",
"2151 560 LINE",
"2151 464 LINE SMOOTH",
"2151 294 OFFCURVE",
"2091 224 OFFCURVE",
"1931 224 CURVE"
);
},
{
closed = 1;
nodes = (
"1964 882 LINE",
"1964 1136 LINE",
"1740 1136 LINE",
"1740 1112 LINE SMOOTH",
"1740 952 OFFCURVE",
"1686 882 OFFCURVE",
"1568 882 CURVE"
);
},
{
closed = 1;
nodes = (
"2365 1276 LINE",
"2365 1500 LINE",
"1559 1500 LINE",
"1559 1276 LINE"
);
},
{
closed = 1;
nodes = (
"2365 960 LINE",
"2365 1276 LINE",
"1913 1276 LINE",
"2073 1276 OFFCURVE",
"2133 1206 OFFCURVE",
"2133 1036 CURVE SMOOTH",
"2133 960 LINE"
);
}
);
width = 2527;
},
{
anchors = (
{
name = top;
position = "{1230, 1500}";
}
);
hints = (
{
origin = "{0, 0}";
scale = "{-1.7, 1}";
type = Corner;
name = _corner.Serif;
options = 1;
},
{
origin = "{0, 3}";
scale = "{0.58, 1}";
type = Corner;
name = _corner.Serif;
},
{
origin = "{1, 2}";
scale = "{-2.52, 0.98}";
type = Corner;
name = _corner.Serif;
},
{
origin = "{1, 3}";
scale = "{1.18, 1}";
type = Corner;
name = _corner.Serif;
options = 1;
}
);
layerId = "0C29AA02-E021-4BD1-A2C4-87F681D64C35";
leftMetricsKey = "=A-12";
paths = (
{
closed = 1;
nodes = (
"342 0 LINE",
"1178 1500 LINE",
"925 1500 LINE",
"83 0 LINE"
);
},
{
closed = 1;
nodes = (
"1440 0 LINE",
"1440 1500 LINE",
"1040 1500 LINE",
"1040 0 LINE"
);
},
{
closed = 1;
nodes = (
"1040 433 LINE",
"1040 633 LINE",
"526 633 LINE",
"526 433 LINE"
);
},
{
closed = 1;
nodes = (
"2190 0 LINE",
"2190 204 LINE",
"1440 204 LINE",
"1440 0 LINE"
);
},
{
closed = 1;
nodes = (
"1833 340 LINE",
"1833 676 LINE",
"1447 676 LINE",
"1594 676 OFFCURVE",
"1653 606 OFFCURVE",
"1653 446 CURVE SMOOTH",
"1653 340 LINE"
);
},
{
closed = 1;
nodes = (
"1833 676 LINE",
"1833 868 LINE",
"1440 868 LINE",
"1440 676 LINE"
);
},
{
closed = 1;
nodes = (
"2190 204 LINE",
"2190 580 LINE",
"1992 580 LINE",
"1992 444 LINE SMOOTH",
"1992 274 OFFCURVE",
"1932 204 OFFCURVE",
"1772 204 CURVE"
);
},
{
closed = 1;
nodes = (
"1833 868 LINE",
"1833 1170 LINE",
"1653 1170 LINE",
"1653 1098 LINE SMOOTH",
"1653 938 OFFCURVE",
"1594 868 OFFCURVE",
"1447 868 CURVE"
);
},
{
closed = 1;
nodes = (
"2176 1300 LINE",
"2176 1500 LINE",
"1440 1500 LINE",
"1440 1300 LINE"
);
},
{
closed = 1;
nodes = (
"2176 940 LINE",
"2176 1300 LINE",
"1758 1300 LINE",
"1918 1300 OFFCURVE",
"1978 1230 OFFCURVE",
"1978 1060 CURVE SMOOTH",
"1978 940 LINE"
);
}
);
width = 2316;
},
{
anchors = (
{
name = top;
position = "{1288, 1500}";
}
);
hints = (
{
origin = "{1, 2}";
scale = "{-1.34635, 1}";
type = Corner;
name = _corner.Serif;
},
{
origin = "{1, 3}";
scale = "{1.1, 1}";
type = Corner;
name = _corner.Serif;
options = 1;
},
{
origin = "{0, 0}";
scale = "{-1.314, 1}";
type = Corner;
name = _corner.Serif;
options = 1;
},
{
origin = "{0, 3}";
scale = "{0.7544, 1}";
type = Corner;
name = _corner.Serif;
}
);
layerId = "2B88661E-23DD-4EDA-82FC-C2AEA983F097";
paths = (
{
closed = 1;
nodes = (
"263 0 LINE",
"1276 1500 LINE",
"1211 1500 LINE",
"195 0 LINE"
);
},
{
closed = 1;
nodes = (
"1296 0 LINE",
"1296 1500 LINE",
"1235 1500 LINE",
"1235 0 LINE"
);
},
{
closed = 1;
nodes = (
"1235 513 LINE",
"1235 563 LINE",
"589 563 LINE",
"589 513 LINE"
);
},
{
closed = 1;
nodes = (
"2294 0 LINE",
"2294 50 LINE",
"1296 50 LINE",
"1296 0 LINE"
);
},
{
closed = 1;
nodes = (
"1832 364 LINE",
"1832 766 LINE",
"1663 766 LINE",
"1759 766 OFFCURVE",
"1784 741 OFFCURVE",
"1784 640 CURVE SMOOTH",
"1784 364 LINE"
);
},
{
closed = 1;
nodes = (
"1832 766 LINE",
"1832 816 LINE",
"1296 816 LINE",
"1296 766 LINE"
);
},
{
closed = 1;
nodes = (
"2294 50 LINE",
"2294 521 LINE",
"2244 521 LINE",
"2244 184 LINE SMOOTH",
"2244 78 OFFCURVE",
"2216 50 OFFCURVE",
"2114 50 CURVE"
);
},
{
closed = 1;
nodes = (
"1832 816 LINE",
"1832 1146 LINE",
"1784 1146 LINE",
"1784 942 LINE SMOOTH",
"1784 842 OFFCURVE",
"1759 816 OFFCURVE",
"1663 816 CURVE"
);
},
{
closed = 1;
nodes = (
"2276 1450 LINE",
"2276 1500 LINE",
"1296 1500 LINE",
"1296 1450 LINE"
);
},
{
closed = 1;
nodes = (
"2276 999 LINE",
"2276 1450 LINE",
"2096 1450 LINE",
"2198 1450 OFFCURVE",
"2226 1422 OFFCURVE",
"2226 1316 CURVE SMOOTH",
"2226 999 LINE"
);
}
);
width = 2454;
}
);
leftKerningGroup = AE;
leftMetricsKey = A;
rightKerningGroup = E;
rightMetricsKey = E;
unicode = 00C6;
},
{
color = 8;
glyphname = B;
lastChange = "2021-05-13 19:14:27 +0000";
layers = (
{
anchors = (
{
name = bottom;
position = "{732, 0}";
},
{
name = top;
position = "{732, 1500}";
}
);
hints = (
{
origin = "{0, 2}";
scale = "{-1.08, 1}";
type = Corner;
name = _corner.Serif;
},
{
origin = "{0, 3}";
scale = "{1.1, 1}";
type = Corner;
name = _corner.Serif;
options = 1;
}
);
layerId = "1E61A082-F045-49A7-AB52-DD1B03FD9B54";
paths = (
{
closed = 1;
nodes = (
"349 0 LINE",
"349 1500 LINE",
"301 1500 LINE",
"301 0 LINE"
);
},
{
closed = 1;
nodes = (
"911 0 LINE SMOOTH",
"1183 0 OFFCURVE",
"1363 133 OFFCURVE",
"1363 391 CURVE SMOOTH",
"1363 643 OFFCURVE",
"1192 769 OFFCURVE",
"911 769 CURVE SMOOTH",
"349 769 LINE",
"349 743 LINE",
"899 743 LINE SMOOTH",
"1155 743 OFFCURVE",
"1315 623 OFFCURVE",
"1315 390 CURVE SMOOTH",
"1315 157 OFFCURVE",
"1155 38 OFFCURVE",
"899 38 CURVE SMOOTH",
"349 38 LINE",
"349 0 LINE"
);
},
{
closed = 1;
nodes = (
"867 758 LINE SMOOTH",
"1141 758 OFFCURVE",
"1307 881 OFFCURVE",
"1307 1121 CURVE SMOOTH",
"1307 1371 OFFCURVE",
"1131 1500 OFFCURVE",
"867 1500 CURVE SMOOTH",
"349 1500 LINE",
"349 1462 LINE",
"855 1462 LINE SMOOTH",
"1103 1462 OFFCURVE",
"1259 1347 OFFCURVE",
"1259 1122 CURVE SMOOTH",
"1259 897 OFFCURVE",
"1103 781 OFFCURVE",
"855 781 CURVE SMOOTH",
"349 781 LINE",
"349 758 LINE"
);
}
);
width = 1461;
},
{
anchors = (
{
name = bottom;
position = "{839, 0}";
},
{
name = top;
position = "{839, 1500}";
}
);
hints = (
{
origin = "{0, 2}";
scale = "{-1.08, 1}";
type = Corner;
name = _corner.Serif;
},
{
origin = "{0, 3}";
scale = "{1.1, 1}";
type = Corner;
name = _corner.Serif;
options = 1;
}
);
layerId = "219068EA-2B9B-40DC-949E-B60449C01B8A";
paths = (
{
closed = 1;
nodes = (
"657 0 LINE",
"657 1500 LINE",
"237 1500 LINE",
"237 0 LINE"
);
},
{
closed = 1;
nodes = (
"1086 0 LINE SMOOTH",
"1408 0 OFFCURVE",
"1618 128 OFFCURVE",
"1618 408 CURVE SMOOTH",
"1618 679 OFFCURVE",
"1408 792 OFFCURVE",
"1086 792 CURVE SMOOTH",
"657 792 LINE",
"657 653 LINE",
"948 653 LINE SMOOTH",
"1095 653 OFFCURVE",
"1188 579 OFFCURVE",
"1188 439 CURVE SMOOTH",
"1188 299 OFFCURVE",
"1095 224 OFFCURVE",
"948 224 CURVE SMOOTH",
"657 224 LINE",
"657 0 LINE"
);
},
{
closed = 1;
nodes = (
"1010 754 LINE SMOOTH",
"1322 754 OFFCURVE",
"1534 865 OFFCURVE",
"1534 1118 CURVE SMOOTH",
"1534 1380 OFFCURVE",
"1322 1500 OFFCURVE",
"1010 1500 CURVE SMOOTH",
"657 1500 LINE",
"657 1276 LINE",
"881 1276 LINE SMOOTH",
"1020 1276 OFFCURVE",
"1104 1209 OFFCURVE",
"1104 1076 CURVE SMOOTH",
"1104 943 OFFCURVE",
"1020 877 OFFCURVE",
"881 877 CURVE SMOOTH",
"657 877 LINE",
"657 754 LINE"
);
}
);
width = 1696;
},
{
anchors = (
{
name = bottom;
position = "{797, 0}";
},
{
name = top;
position = "{797, 1500}";
}
);
hints = (
{
origin = "{0, 2}";
scale = "{-1.08, 0.98}";
type = Corner;
name = _corner.Serif;
},
{
origin = "{0, 3}";
scale = "{1.1, 1}";
type = Corner;
name = _corner.Serif;
options = 1;
}
);
layerId = "0C29AA02-E021-4BD1-A2C4-87F681D64C35";
paths = (
{
closed = 1;
nodes = (
"650 0 LINE",
"650 1500 LINE",
"230 1500 LINE",
"230 0 LINE"
);
},
{
closed = 1;
nodes = (
"1039 0 LINE SMOOTH",
"1361 0 OFFCURVE",
"1571 141 OFFCURVE",
"1571 420 CURVE SMOOTH",
"1571 682 OFFCURVE",
"1363 790 OFFCURVE",
"1029 790 CURVE SMOOTH",
"650 790 LINE",
"650 666 LINE",
"892 666 LINE SMOOTH",
"1044 666 OFFCURVE",
"1141 583 OFFCURVE",
"1141 435 CURVE SMOOTH",
"1141 287 OFFCURVE",
"1044 204 OFFCURVE",
"892 204 CURVE SMOOTH",
"650 204 LINE",
"650 0 LINE"
);
},
{
closed = 1;
nodes = (
"1003 776 LINE SMOOTH",
"1291 776 OFFCURVE",
"1487 889 OFFCURVE",
"1487 1138 CURVE SMOOTH",
"1487 1386 OFFCURVE",
"1279 1500 OFFCURVE",
"973 1500 CURVE SMOOTH",
"650 1500 LINE",
"650 1300 LINE",
"835 1300 LINE SMOOTH",
"984 1300 OFFCURVE",
"1073 1225 OFFCURVE",
"1073 1083 CURVE SMOOTH",
"1073 941 OFFCURVE",
"984 866 OFFCURVE",
"835 866 CURVE SMOOTH",
"650 866 LINE",
"650 776 LINE"
);
}
);
width = 1625;
},
{
anchors = (
{
name = bottom;
position = "{772, 0}";
},
{
name = top;
position = "{772, 1500}";
}
);
hints = (
{
origin = "{0, 2}";
scale = "{-1.08, 1}";
type = Corner;
name = _corner.Serif;
},
{
origin = "{0, 3}";
scale = "{1.1, 1}";
type = Corner;
name = _corner.Serif;
options = 1;
}
);
layerId = "2B88661E-23DD-4EDA-82FC-C2AEA983F097";
paths = (
{
closed = 1;
nodes = (
"369 0 LINE",
"369 1500 LINE",
"309 1500 LINE",
"309 0 LINE"
);
},
{
closed = 1;
nodes = (
"965 0 LINE SMOOTH",
"1239 0 OFFCURVE",
"1420 133 OFFCURVE",
"1420 392 CURVE SMOOTH",
"1420 647 OFFCURVE",
"1248 777 OFFCURVE",
"965 777 CURVE SMOOTH",
"369 777 LINE",
"369 738 LINE",
"949 738 LINE SMOOTH",
"1201 738 OFFCURVE",
"1358 620 OFFCURVE",
"1358 394 CURVE SMOOTH",
"1358 167 OFFCURVE",
"1201 50 OFFCURVE",
"949 50 CURVE SMOOTH",
"369 50 LINE",
"369 0 LINE"
);
},
{
closed = 1;
nodes = (
"920 754 LINE SMOOTH",
"1196 754 OFFCURVE",
"1363 879 OFFCURVE",
"1363 1121 CURVE SMOOTH",
"1363 1371 OFFCURVE",
"1186 1500 OFFCURVE",
"920 1500 CURVE SMOOTH",
"369 1500 LINE",
"369 1450 LINE",
"904 1450 LINE SMOOTH",
"1148 1450 OFFCURVE",
"1301 1338 OFFCURVE",
"1301 1119 CURVE SMOOTH",
"1301 901 OFFCURVE",
"1148 788 OFFCURVE",
"904 788 CURVE SMOOTH",
"369 788 LINE",
"369 754 LINE"
);
}
);
width = 1546;
}
);
leftKerningGroup = I;
leftMetricsKey = H;
rightKerningGroup = B;
unicode = 0042;
},
{
color = 8;
glyphname = C;
lastChange = "2021-05-13 19:30:52 +0000";
layers = (
{
anchors = (
{
name = bottom;
position = "{792, 0}";
},
{
name = top;
position = "{834, 1500}";
}
);
layerId = "1E61A082-F045-49A7-AB52-DD1B03FD9B54";
paths = (
{
closed = 1;
nodes = (
"1223 -30 OFFCURVE",
"1438 259 OFFCURVE",
"1446 588 CURVE",
"1406 588 LINE",
"1394 276 OFFCURVE",
"1196 8 OFFCURVE",
"820 8 CURVE SMOOTH",
"451 8 OFFCURVE",
"166 298 OFFCURVE",
"166 750 CURVE SMOOTH",
"166 1199 OFFCURVE",
"447 1488 OFFCURVE",
"810 1488 CURVE SMOOTH",
"1196 1488 OFFCURVE",
"1371 1224 OFFCURVE",
"1392 940 CURVE",
"1418 940 LINE",
"1409 1288 OFFCURVE",
"1186 1526 OFFCURVE",
"810 1526 CURVE SMOOTH",
"421 1526 OFFCURVE",
"118 1240 OFFCURVE",
"118 750 CURVE SMOOTH",
"118 257 OFFCURVE",
"425 -30 OFFCURVE",
"820 -30 CURVE SMOOTH"
);
},
{
closed = 1;
nodes = (
"1436 940 LINE",
"1436 1500 LINE",
"1396 1500 LINE",
"1396 994 LINE",
"1418 940 LINE"
);
}
);
width = 1596;
},
{
anchors = (
{
name = bottom;
position = "{855, 0}";
},
{
name = top;
position = "{887, 1500}";
}
);
layerId = "219068EA-2B9B-40DC-949E-B60449C01B8A";
paths = (
{
closed = 1;
nodes = (
"1395 -38 OFFCURVE",
"1606 265 OFFCURVE",
"1623 603 CURVE",
"1381 603 LINE",
"1355 417 OFFCURVE",
"1234 274 OFFCURVE",
"987 274 CURVE SMOOTH",
"716 274 OFFCURVE",
"540 474 OFFCURVE",
"540 788 CURVE SMOOTH",
"540 1094 OFFCURVE",
"698 1294 OFFCURVE",
"975 1294 CURVE SMOOTH",
"1228 1294 OFFCURVE",
"1334 1124 OFFCURVE",
"1355 983 CURVE",
"1496 983 LINE",
"1488 1323 OFFCURVE",
"1250 1538 OFFCURVE",
"861 1538 CURVE SMOOTH",
"395 1538 OFFCURVE",
"82 1246 OFFCURVE",
"82 750 CURVE SMOOTH",
"82 254 OFFCURVE",
"395 -38 OFFCURVE",
"893 -38 CURVE SMOOTH"
);
},
{
closed = 1;
nodes = (
"1605 983 LINE",
"1605 1500 LINE",
"1361 1500 LINE",
"1361 1164 LINE",
"1496 983 LINE"
);
}
);
width = 1715;
},
{
anchors = (
{
name = bottom;
position = "{816, 0}";
},
{
name = top;
position = "{835, 1500}";
}
);
layerId = "0C29AA02-E021-4BD1-A2C4-87F681D64C35";
paths = (
{
closed = 1;
nodes = (
"1304 -32 OFFCURVE",
"1525 274 OFFCURVE",
"1537 663 CURVE",
"1349 663 LINE",
"1322 432 OFFCURVE",
"1204 252 OFFCURVE",
"951 252 CURVE SMOOTH",
"690 252 OFFCURVE",
"524 466 OFFCURVE",
"524 782 CURVE SMOOTH",
"524 1110 OFFCURVE",
"687 1328 OFFCURVE",
"951 1328 CURVE SMOOTH",
"1209 1328 OFFCURVE",
"1318 1135 OFFCURVE",
"1331 915 CURVE",
"1428 915 LINE",
"1426 1297 OFFCURVE",
"1235 1532 OFFCURVE",
"815 1532 CURVE SMOOTH",
"377 1532 OFFCURVE",
"74 1244 OFFCURVE",
"74 750 CURVE SMOOTH",
"74 256 OFFCURVE",
"377 -32 OFFCURVE",
"845 -32 CURVE SMOOTH"
);
},
{
closed = 1;
nodes = (
"1525 915 LINE",
"1525 1500 LINE",
"1309 1500 LINE",
"1309 1164 LINE",
"1428 915 LINE"
);
}
);
width = 1631;
},
{
anchors = (
{
name = bottom;
position = "{862, 0}";
},
{
name = top;
position = "{900, 1500}";
}
);
layerId = "2B88661E-23DD-4EDA-82FC-C2AEA983F097";
paths = (
{
closed = 1;
nodes = (
"1333 -32 OFFCURVE",
"1557 230 OFFCURVE",
"1568 550 CURVE",
"1514 550 LINE",
"1501 263 OFFCURVE",
"1293 22 OFFCURVE",
"893 22 CURVE SMOOTH",
"501 22 OFFCURVE",
"198 297 OFFCURVE",
"198 751 CURVE SMOOTH",
"198 1202 OFFCURVE",
"499 1482 OFFCURVE",
"889 1482 CURVE SMOOTH",
"1299 1482 OFFCURVE",
"1484 1238 OFFCURVE",
"1507 980 CURVE",
"1541 980 LINE",
"1531 1309 OFFCURVE",
"1297 1534 OFFCURVE",
"885 1534 CURVE SMOOTH",
"464 1534 OFFCURVE",
"136 1244 OFFCURVE",
"136 750 CURVE SMOOTH",
"136 253 OFFCURVE",
"464 -32 OFFCURVE",
"890 -32 CURVE SMOOTH"
);
},
{
closed = 1;
nodes = (
"1558 980 LINE",
"1558 1500 LINE",
"1508 1500 LINE",
"1508 1058 LINE",
"1541 980 LINE"
);
}
);
width = 1724;
}
);
leftKerningGroup = O;
leftMetricsKey = O;
rightKerningGroup = C;
unicode = 0043;
},
{
color = 8;
glyphname = D;
lastChange = "2021-05-13 18:58:37 +0000";
layers = (
{
anchors = (
{
name = bottom;
position = "{748, 0}";
},
{
name = stroke;
position = "{301, 750}";
},
{
name = top;
position = "{748, 1500}";
}
);
hints = (
{
origin = "{1, 2}";
scale = "{-1.08, 1}";
type = Corner;
name = _corner.Serif;
},
{
origin = "{1, 3}";
scale = "{1.1, 1}";
type = Corner;
name = _corner.Serif;
options = 1;
}
);
layerId = "1E61A082-F045-49A7-AB52-DD1B03FD9B54";
paths = (
{
closed = 1;
nodes = (
"697 0 LINE SMOOTH",
"1159 0 OFFCURVE",
"1463 275 OFFCURVE",
"1463 750 CURVE SMOOTH",
"1463 1225 OFFCURVE",
"1159 1500 OFFCURVE",
"697 1500 CURVE SMOOTH",
"349 1500 LINE",
"349 1462 LINE",
"697 1462 LINE SMOOTH",
"1131 1462 OFFCURVE",
"1415 1185 OFFCURVE",
"1415 750 CURVE SMOOTH",
"1415 315 OFFCURVE",
"1131 38 OFFCURVE",
"697 38 CURVE SMOOTH",
"349 38 LINE",
"349 0 LINE"
);
},
{
closed = 1;
nodes = (
"349 0 LINE",
"349 1500 LINE",
"301 1500 LINE",
"301 0 LINE"
);
}
);
width = 1581;
},
{
anchors = (
{
name = bottom;
position = "{844, 0}";
},
{
name = stroke;
position = "{237, 750}";
},
{
name = top;
position = "{844, 1500}";
}
);
hints = (
{
origin = "{1, 2}";
scale = "{-1.08, 1}";
type = Corner;
name = _corner.Serif;
},
{
origin = "{1, 3}";
scale = "{1.1, 1}";
type = Corner;
name = _corner.Serif;
options = 1;
}
);
layerId = "219068EA-2B9B-40DC-949E-B60449C01B8A";
paths = (
{
closed = 1;
nodes = (
"873 0 LINE SMOOTH",
"1387 0 OFFCURVE",
"1729 270 OFFCURVE",
"1729 750 CURVE SMOOTH",
"1729 1230 OFFCURVE",
"1387 1500 OFFCURVE",
"873 1500 CURVE SMOOTH",
"657 1500 LINE",
"657 1280 LINE",
"831 1280 LINE SMOOTH",
"1094 1280 OFFCURVE",
"1273 1076 OFFCURVE",
"1273 750 CURVE SMOOTH",
"1273 426 OFFCURVE",
"1094 224 OFFCURVE",
"831 224 CURVE SMOOTH",
"657 224 LINE",
"657 0 LINE"
);
},
{
closed = 1;
nodes = (
"657 0 LINE",
"657 1500 LINE",
"237 1500 LINE",
"237 0 LINE"
);
}
);
width = 1811;
},
{
anchors = (
{
name = bottom;
position = "{793, 0}";
},
{
name = stroke;
position = "{230, 750}";
},
{
name = top;
position = "{793, 1500}";
}
);
hints = (
{
origin = "{1, 2}";
scale = "{-1.08, 0.98}";
type = Corner;
name = _corner.Serif;
},
{
origin = "{1, 3}";
scale = "{1.1, 1}";
type = Corner;
name = _corner.Serif;
options = 1;
}
);
layerId = "0C29AA02-E021-4BD1-A2C4-87F681D64C35";
paths = (
{
closed = 1;
nodes = (
"826 0 LINE SMOOTH",
"1316 0 OFFCURVE",
"1642 270 OFFCURVE",
"1642 750 CURVE SMOOTH",
"1642 1230 OFFCURVE",
"1316 1500 OFFCURVE",
"826 1500 CURVE SMOOTH",
"650 1500 LINE",
"650 1300 LINE",
"784 1300 LINE SMOOTH",
"1023 1300 OFFCURVE",
"1188 1089 OFFCURVE",
"1188 750 CURVE SMOOTH",
"1188 413 OFFCURVE",
"1023 204 OFFCURVE",
"784 204 CURVE SMOOTH",
"650 204 LINE",
"650 0 LINE"
);
},
{
closed = 1;
nodes = (
"650 0 LINE",
"650 1500 LINE",
"230 1500 LINE",
"230 0 LINE"
);
}
);
width = 1716;
},
{
anchors = (
{
name = bottom;
position = "{793, 0}";
},
{
name = stroke;
position = "{309, 750}";
},
{
name = top;
position = "{793, 1500}";
}
);
hints = (
{
origin = "{1, 2}";
scale = "{-1.08, 1}";
type = Corner;
name = _corner.Serif;
},
{
origin = "{1, 3}";
scale = "{1.1, 1}";
type = Corner;
name = _corner.Serif;
options = 1;
}
);
layerId = "2B88661E-23DD-4EDA-82FC-C2AEA983F097";
paths = (
{
closed = 1;
nodes = (
"761 0 LINE SMOOTH",
"1236 0 OFFCURVE",
"1550 275 OFFCURVE",
"1550 750 CURVE SMOOTH",
"1550 1225 OFFCURVE",
"1236 1500 OFFCURVE",
"761 1500 CURVE SMOOTH",
"369 1500 LINE",
"369 1450 LINE",
"760 1450 LINE SMOOTH",
"1199 1450 OFFCURVE",
"1488 1177 OFFCURVE",
"1488 750 CURVE SMOOTH",
"1488 323 OFFCURVE",
"1199 50 OFFCURVE",
"760 50 CURVE SMOOTH",
"369 50 LINE",
"369 0 LINE"
);
},
{
closed = 1;
nodes = (
"369 0 LINE",
"369 1500 LINE",
"309 1500 LINE",
"309 0 LINE"
);
}
);
width = 1686;
}
);
leftKerningGroup = I;
leftMetricsKey = H;
rightKerningGroup = O;
rightMetricsKey = O;
unicode = 0044;
},
{
color = 8;
glyphname = E;
lastChange = "2021-05-13 18:44:06 +0000";
layers = (
{
anchors = (
{
name = bottom;
position = "{747, 0}";
},
{
name = ogonek;
position = "{1333, 0}";
},
{
name = top;
position = "{768, 1500}";
}
);
hints = (
{
origin = "{0, 2}";
scale = "{-1.08, 1}";
type = Corner;
name = _corner.Serif;
},
{
origin = "{0, 3}";
scale = "{1.1, 1}";
type = Corner;
name = _corner.Serif;
options = 1;
}
);
layerId = "1E61A082-F045-49A7-AB52-DD1B03FD9B54";
paths = (
{
closed = 1;
nodes = (
"349 0 LINE",
"349 1500 LINE",
"301 1500 LINE",
"301 0 LINE"
);
},
{
closed = 1;
nodes = (
"1333 0 LINE",
"1333 38 LINE",
"349 38 LINE",
"349 0 LINE"
);
},
{
closed = 1;
nodes = (
"919 308 LINE",
"919 772 LINE",
"763 772 LINE",
"857 772 OFFCURVE",
"881 748 OFFCURVE",
"881 650 CURVE SMOOTH",
"881 308 LINE"
);
},
{
closed = 1;
nodes = (
"919 772 LINE",
"919 810 LINE",
"349 810 LINE",
"349 772 LINE"
);
},
{
closed = 1;
nodes = (
"1333 38 LINE",
"1333 580 LINE",
"1293 580 LINE",
"1293 168 LINE SMOOTH",
"1293 64 OFFCURVE",
"1267 38 OFFCURVE",
"1167 38 CURVE"
);
},
{
closed = 1;
nodes = (
"919 810 LINE",
"919 1202 LINE",
"881 1202 LINE",
"881 932 LINE SMOOTH",
"881 834 OFFCURVE",
"857 810 OFFCURVE",
"763 810 CURVE"
);
},
{
closed = 1;
nodes = (
"1315 1462 LINE",
"1315 1500 LINE",
"349 1500 LINE",
"349 1462 LINE"
);
},
{
closed = 1;
nodes = (
"1315 940 LINE",
"1315 1462 LINE",
"1149 1462 LINE",
"1249 1462 OFFCURVE",
"1275 1436 OFFCURVE",
"1275 1332 CURVE SMOOTH",
"1275 940 LINE"
);
}
);
width = 1485;
},
{
anchors = (
{
name = bottom;
position = "{813, 0}";
},
{
name = ogonek;
position = "{1521, 0}";
},
{
name = top;
position = "{837, 1500}";
}
);
hints = (
{
origin = "{0, 2}";
scale = "{-1.08, 1}";
type = Corner;
name = _corner.Serif;
},
{
origin = "{0, 3}";
scale = "{1.1, 1}";
type = Corner;
name = _corner.Serif;
options = 1;
}
);
layerId = "219068EA-2B9B-40DC-949E-B60449C01B8A";
paths = (
{
closed = 1;
nodes = (
"657 0 LINE",
"657 1500 LINE",
"237 1500 LINE",
"237 0 LINE"
);
},
{
closed = 1;
nodes = (
"1521 0 LINE",
"1521 224 LINE",
"657 224 LINE",
"657 0 LINE"
);
},
{
closed = 1;
nodes = (
"1102 364 LINE",
"1102 666 LINE",
"686 666 LINE",
"824 666 OFFCURVE",
"886 595 OFFCURVE",
"886 432 CURVE SMOOTH",
"886 364 LINE"
);
},
{
closed = 1;
nodes = (
"1102 666 LINE",
"1102 878 LINE",
"657 878 LINE",
"657 666 LINE"
);
},
{
closed = 1;
nodes = (
"1521 224 LINE",
"1521 560 LINE",
"1289 560 LINE",
"1289 464 LINE SMOOTH",
"1289 294 OFFCURVE",
"1229 224 OFFCURVE",
"1069 224 CURVE"
);
},
{
closed = 1;
nodes = (
"1102 878 LINE",
"1102 1136 LINE",
"886 1136 LINE",
"886 1112 LINE SMOOTH",
"886 949 OFFCURVE",
"824 878 OFFCURVE",
"686 878 CURVE"
);
},
{
closed = 1;
nodes = (
"1503 1282 LINE",
"1503 1500 LINE",
"657 1500 LINE",
"657 1282 LINE"
);
},
{
closed = 1;
nodes = (
"1503 960 LINE",
"1503 1282 LINE",
"1051 1282 LINE",
"1211 1282 OFFCURVE",
"1271 1210 OFFCURVE",
"1271 1036 CURVE SMOOTH",
"1271 960 LINE"
);
}
);
width = 1665;
},
{
anchors = (
{
name = bottom;
position = "{760, 0}";
},
{
name = ogonek;
position = "{1430, 0}";
},
{
name = top;
position = "{788, 1500}";
}
);
hints = (
{
origin = "{0, 2}";
scale = "{-1.08, 0.98}";
type = Corner;
name = _corner.Serif;
},
{
origin = "{0, 3}";
scale = "{1.1, 1}";
type = Corner;
name = _corner.Serif;
options = 1;
}
);
layerId = "0C29AA02-E021-4BD1-A2C4-87F681D64C35";
paths = (
{
closed = 1;
nodes = (
"650 0 LINE",
"650 1500 LINE",
"230 1500 LINE",
"230 0 LINE"
);
},
{
closed = 1;
nodes = (
"1430 0 LINE",
"1430 204 LINE",
"650 204 LINE",
"650 0 LINE"
);
},
{
closed = 1;
nodes = (
"1073 340 LINE",
"1073 676 LINE",
"683 676 LINE",
"833 676 OFFCURVE",
"893 606 OFFCURVE",
"893 446 CURVE SMOOTH",
"893 340 LINE"
);
},
{
closed = 1;
nodes = (
"1073 676 LINE",
"1073 868 LINE",
"650 868 LINE",
"650 676 LINE"
);
},
{
closed = 1;
nodes = (
"1430 204 LINE",
"1430 580 LINE",
"1232 580 LINE",
"1232 444 LINE SMOOTH",
"1232 274 OFFCURVE",
"1172 204 OFFCURVE",
"1012 204 CURVE"
);
},
{
closed = 1;
nodes = (
"1073 868 LINE",
"1073 1170 LINE",
"893 1170 LINE",
"893 1098 LINE SMOOTH",
"893 938 OFFCURVE",
"833 868 OFFCURVE",
"683 868 CURVE"
);
},
{
closed = 1;
nodes = (
"1416 1300 LINE",
"1416 1500 LINE",
"650 1500 LINE",
"650 1300 LINE"
);
},
{
closed = 1;
nodes = (
"1416 940 LINE",
"1416 1300 LINE",
"998 1300 LINE",
"1158 1300 OFFCURVE",
"1218 1230 OFFCURVE",
"1218 1060 CURVE SMOOTH",
"1218 940 LINE"
);
}
);
width = 1556;
},
{
anchors = (
{
name = bottom;
position = "{773, 0}";
},
{
name = ogonek;
position = "{1407, 0}";
},
{
name = top;
position = "{808, 1500}";
}
);
hints = (
{
origin = "{0, 2}";
scale = "{-1.08, 1}";
type = Corner;
name = _corner.Serif;
},
{
origin = "{0, 3}";
scale = "{1.1, 1}";
type = Corner;
name = _corner.Serif;
options = 1;
}
);
layerId = "2B88661E-23DD-4EDA-82FC-C2AEA983F097";
paths = (
{
closed = 1;
nodes = (
"369 0 LINE",
"369 1500 LINE",
"309 1500 LINE",
"309 0 LINE"
);
},
{
closed = 1;
nodes = (
"1407 0 LINE",
"1407 50 LINE",
"369 50 LINE",
"369 0 LINE"
);
},
{
closed = 1;
nodes = (
"935 364 LINE",
"935 766 LINE",
"766 766 LINE",
"862 766 OFFCURVE",
"887 741 OFFCURVE",
"887 640 CURVE SMOOTH",
"887 364 LINE"
);
},
{
closed = 1;
nodes = (
"935 766 LINE",
"935 816 LINE",
"369 816 LINE",
"369 766 LINE"
);
},
{
closed = 1;
nodes = (
"1407 50 LINE",
"1407 521 LINE",
"1357 521 LINE",
"1357 184 LINE SMOOTH",
"1357 78 OFFCURVE",
"1329 50 OFFCURVE",
"1227 50 CURVE"
);
},
{
closed = 1;
nodes = (
"935 816 LINE",
"935 1146 LINE",
"887 1146 LINE",
"887 942 LINE SMOOTH",
"887 842 OFFCURVE",
"862 816 OFFCURVE",
"766 816 CURVE"
);
},
{
closed = 1;
nodes = (
"1389 1450 LINE",
"1389 1500 LINE",
"369 1500 LINE",
"369 1450 LINE"
);
},
{
closed = 1;
nodes = (
"1389 999 LINE",
"1389 1450 LINE",
"1209 1450 LINE",
"1311 1450 OFFCURVE",
"1339 1422 OFFCURVE",
"1339 1316 CURVE SMOOTH",
"1339 999 LINE"
);
}
);
width = 1567;
}
);
leftKerningGroup = I;
leftMetricsKey = H;
rightKerningGroup = E;
unicode = 0045;
},
{
color = 8;
glyphname = F;
lastChange = "2021-05-13 18:56:46 +0000";
layers = (
{
hints = (
{
origin = "{0, 3}";
scale = "{1.1, 1}";
type = Corner;
name = _corner.Serif;
options = 1;
},
{
origin = "{0, 0}";
scale = "{-1.9, 1}";
type = Corner;
name = _corner.Serif;
},
{
origin = "{0, 2}";
scale = "{-1.08, 1}";
type = Corner;
name = _corner.Serif;
}
);
layerId = "1E61A082-F045-49A7-AB52-DD1B03FD9B54";
paths = (
{
closed = 1;
nodes = (
"349 0 LINE",
"349 1500 LINE",
"301 1500 LINE",
"301 0 LINE"
);
},
{
closed = 1;
nodes = (
"1269 1462 LINE",
"1269 1500 LINE",
"349 1500 LINE",
"349 1462 LINE"
);
},
{
closed = 1;
nodes = (
"909 752 LINE",
"909 790 LINE",
"349 790 LINE",
"349 752 LINE"
);
},
{
closed = 1;
nodes = (
"1269 940 LINE",
"1269 1462 LINE",
"1103 1462 LINE",
"1203 1462 OFFCURVE",
"1229 1436 OFFCURVE",
"1229 1332 CURVE SMOOTH",
"1229 940 LINE"
);
},
{
closed = 1;
nodes = (
"909 790 LINE",
"909 1202 LINE",
"871 1202 LINE",
"871 912 LINE SMOOTH",
"871 814 OFFCURVE",
"847 790 OFFCURVE",
"753 790 CURVE"
);
},
{
closed = 1;
nodes = (
"909 330 LINE",
"909 752 LINE",
"753 752 LINE",
"847 752 OFFCURVE",
"871 728 OFFCURVE",
"871 630 CURVE SMOOTH",
"871 330 LINE"
);
}
);
width = 1383;
},
{
hints = (
{
origin = "{0, 3}";
type = Corner;
name = _corner.Serif;
options = 1;
},
{
origin = "{0, 0}";
scale = "{-1.4, 1}";
type = Corner;
name = _corner.Serif;
},
{
origin = "{0, 2}";
scale = "{-0.96, 0.98467}";
type = Corner;
name = _corner.Serif;
}
);
layerId = "219068EA-2B9B-40DC-949E-B60449C01B8A";
paths = (
{
closed = 1;
nodes = (
"642 0 LINE",
"642 1500 LINE",
"222 1500 LINE",
"222 0 LINE"
);
},
{
closed = 1;
nodes = (
"1504 1282 LINE",
"1504 1500 LINE",
"642 1500 LINE",
"642 1282 LINE"
);
},
{
closed = 1;
nodes = (
"1103 656 LINE",
"1103 868 LINE",
"642 868 LINE",
"642 656 LINE"
);
},
{
closed = 1;
nodes = (
"1504 940 LINE",
"1504 1282 LINE",
"1052 1282 LINE",
"1212 1282 OFFCURVE",
"1272 1210 OFFCURVE",
"1272 1036 CURVE SMOOTH",
"1272 940 LINE"
);
},
{
closed = 1;
nodes = (
"1103 868 LINE",
"1103 1136 LINE",
"887 1136 LINE",
"887 1102 LINE SMOOTH",
"887 939 OFFCURVE",
"825 868 OFFCURVE",
"671 868 CURVE"
);
},
{
closed = 1;
nodes = (
"1103 344 LINE",
"1103 656 LINE",
"671 656 LINE",
"825 656 OFFCURVE",
"887 585 OFFCURVE",
"887 422 CURVE SMOOTH",
"887 344 LINE"
);
}
);
width = 1594;
},
{
hints = (
{
origin = "{0, 3}";
type = Corner;
name = _corner.Serif;
options = 1;
},
{
origin = "{0, 0}";
scale = "{-2, 1}";
type = Corner;
name = _corner.Serif;
},
{
origin = "{0, 2}";
scale = "{-0.96, 0.98}";
type = Corner;
name = _corner.Serif;
}
);
layerId = "0C29AA02-E021-4BD1-A2C4-87F681D64C35";
paths = (
{
closed = 1;
nodes = (
"634 0 LINE",
"634 1500 LINE",
"214 1500 LINE",
"214 0 LINE"
);
},
{
closed = 1;
nodes = (
"1386 1300 LINE",
"1386 1500 LINE",
"634 1500 LINE",
"634 1300 LINE"
);
},
{
closed = 1;
nodes = (
"1051 666 LINE",
"1051 858 LINE",
"634 858 LINE",
"634 666 LINE"
);
},
{
closed = 1;
nodes = (
"1386 920 LINE",
"1386 1300 LINE",
"968 1300 LINE",
"1128 1300 OFFCURVE",
"1188 1230 OFFCURVE",
"1188 1060 CURVE SMOOTH",
"1188 920 LINE"
);
},
{
closed = 1;
nodes = (
"1051 858 LINE",
"1051 1166 LINE",
"871 1166 LINE",
"871 1088 LINE SMOOTH",
"871 928 OFFCURVE",
"811 858 OFFCURVE",
"661 858 CURVE"
);
},
{
closed = 1;
nodes = (
"1051 324 LINE",
"1051 666 LINE",
"661 666 LINE",
"811 666 OFFCURVE",
"871 596 OFFCURVE",
"871 436 CURVE SMOOTH",
"871 324 LINE"
);
}
);
width = 1470;
},
{
hints = (
{
origin = "{0, 3}";
scale = "{1.0965, 1}";
type = Corner;
name = _corner.Serif;
options = 1;
},
{
origin = "{0, 0}";
scale = "{-1.593, 1}";
type = Corner;
name = _corner.Serif;
},
{
origin = "{0, 2}";
scale = "{-1.0758, 0.99946}";
type = Corner;
name = _corner.Serif;
}
);
layerId = "2B88661E-23DD-4EDA-82FC-C2AEA983F097";
paths = (
{
closed = 1;
nodes = (
"369 0 LINE",
"369 1500 LINE",
"309 1500 LINE",
"309 0 LINE"
);
},
{
closed = 1;
nodes = (
"1344 1450 LINE",
"1344 1500 LINE",
"369 1500 LINE",
"369 1450 LINE"
);
},
{
closed = 1;
nodes = (
"925 747 LINE",
"925 797 LINE",
"369 797 LINE",
"369 747 LINE"
);
},
{
closed = 1;
nodes = (
"1344 998 LINE",
"1344 1450 LINE",
"1165 1450 LINE",
"1267 1450 OFFCURVE",
"1294 1422 OFFCURVE",
"1294 1316 CURVE SMOOTH",
"1294 998 LINE"
);
},
{
closed = 1;
nodes = (
"925 797 LINE",
"925 1146 LINE",
"877 1146 LINE",
"877 923 LINE SMOOTH",
"877 822 OFFCURVE",
"852 797 OFFCURVE",
"756 797 CURVE"
);
},
{
closed = 1;
nodes = (
"925 385 LINE",
"925 747 LINE",
"756 747 LINE",
"852 747 OFFCURVE",
"877 721 OFFCURVE",
"877 621 CURVE SMOOTH",
"877 385 LINE"
);
}
);
width = 1466;
}
);
leftKerningGroup = I;
leftMetricsKey = H;
rightKerningGroup = F;
unicode = 0046;
},
{
color = 8;
glyphname = G;
lastChange = "2021-05-13 19:31:12 +0000";
layers = (
{
anchors = (
{
name = bottom;
position = "{844, 0}";
},
{
name = top;
position = "{834, 1500}";
}
);
layerId = "1E61A082-F045-49A7-AB52-DD1B03FD9B54";
paths = (
{
closed = 1;
nodes = (
"1238 -28 OFFCURVE",
"1437 267 OFFCURVE",
"1437 662 CURVE",
"1408 662 LINE",
"1408 309 OFFCURVE",
"1219 10 OFFCURVE",
"832 10 CURVE SMOOTH",
"451 10 OFFCURVE",
"166 300 OFFCURVE",
"166 750 CURVE SMOOTH",
"166 1200 OFFCURVE",
"446 1490 OFFCURVE",
"816 1490 CURVE SMOOTH",
"1182 1490 OFFCURVE",
"1351 1264 OFFCURVE",
"1372 980 CURVE",
"1400 980 LINE",
"1392 1320 OFFCURVE",
"1175 1528 OFFCURVE",
"816 1528 CURVE SMOOTH",
"418 1528 OFFCURVE",
"118 1243 OFFCURVE",
"118 750 CURVE SMOOTH",
"118 257 OFFCURVE",
"425 -28 OFFCURVE",
"832 -28 CURVE SMOOTH"
);
},
{
closed = 1;
nodes = (
"1448 0 LINE",
"1448 662 LINE",
"1437 662 LINE",
"1408 504 LINE",
"1408 0 LINE"
);
},
{
closed = 1;
nodes = (
"1678 662 LINE",
"1678 700 LINE",
"718 700 LINE",
"718 662 LINE"
);
},
{
closed = 1;
nodes = (
"1416 980 LINE",
"1416 1500 LINE",
"1376 1500 LINE",
"1376 1034 LINE",
"1400 980 LINE"
);
}
);
width = 1700;
},
{
anchors = (
{
name = bottom;
position = "{929, 0}";
},
{
name = top;
position = "{867, 1500}";
}
);
layerId = "219068EA-2B9B-40DC-949E-B60449C01B8A";
paths = (
{
closed = 1;
nodes = (
"1312 -36 OFFCURVE",
"1476 219 OFFCURVE",
"1482 557 CURVE",
"1390 557 LINE",
"1364 383 OFFCURVE",
"1251 242 OFFCURVE",
"993 242 CURVE SMOOTH",
"717 242 OFFCURVE",
"552 450 OFFCURVE",
"552 768 CURVE SMOOTH",
"552 1093 OFFCURVE",
"713 1294 OFFCURVE",
"985 1294 CURVE SMOOTH",
"1228 1294 OFFCURVE",
"1325 1140 OFFCURVE",
"1343 995 CURVE",
"1466 995 LINE",
"1443 1328 OFFCURVE",
"1246 1538 OFFCURVE",
"853 1538 CURVE SMOOTH",
"402 1538 OFFCURVE",
"82 1254 OFFCURVE",
"82 750 CURVE SMOOTH",
"82 248 OFFCURVE",
"402 -36 OFFCURVE",
"863 -36 CURVE SMOOTH"
);
},
{
closed = 1;
nodes = (
"1646 0 LINE",
"1646 557 LINE",
"1482 557 LINE",
"1404 380 LINE",
"1404 0 LINE"
);
},
{
closed = 1;
nodes = (
"1806 557 LINE",
"1806 781 LINE",
"1015 781 LINE",
"1015 557 LINE"
);
},
{
closed = 1;
nodes = (
"1593 995 LINE",
"1593 1500 LINE",
"1349 1500 LINE",
"1349 1164 LINE",
"1466 995 LINE"
);
}
);
width = 1852;
},
{
anchors = (
{
name = bottom;
position = "{875, 0}";
},
{
name = top;
position = "{847, 1500}";
}
);
layerId = "0C29AA02-E021-4BD1-A2C4-87F681D64C35";
paths = (
{
closed = 1;
nodes = (
"1276 -32 OFFCURVE",
"1429 238 OFFCURVE",
"1435 589 CURVE",
"1358 589 LINE",
"1342 371 OFFCURVE",
"1219 202 OFFCURVE",
"963 202 CURVE SMOOTH",
"700 202 OFFCURVE",
"542 416 OFFCURVE",
"542 750 CURVE SMOOTH",
"542 1090 OFFCURVE",
"697 1308 OFFCURVE",
"953 1308 CURVE SMOOTH",
"1194 1308 OFFCURVE",
"1292 1133 OFFCURVE",
"1305 935 CURVE",
"1386 935 LINE",
"1382 1307 OFFCURVE",
"1212 1532 OFFCURVE",
"815 1532 CURVE SMOOTH",
"401 1532 OFFCURVE",
"74 1244 OFFCURVE",
"74 750 CURVE SMOOTH",
"74 256 OFFCURVE",
"401 -32 OFFCURVE",
"833 -32 CURVE SMOOTH"
);
},
{
closed = 1;
nodes = (
"1568 0 LINE",
"1568 589 LINE",
"1435 589 LINE",
"1350 367 LINE",
"1350 0 LINE"
);
},
{
closed = 1;
nodes = (
"1744 589 LINE",
"1744 793 LINE",
"915 793 LINE",
"915 589 LINE"
);
},
{
closed = 1;
nodes = (
"1509 935 LINE",
"1509 1500 LINE",
"1293 1500 LINE",
"1293 1164 LINE",
"1386 935 LINE"
);
}
);
width = 1762;
},
{
anchors = (
{
name = bottom;
position = "{902, 0}";
},
{
name = top;
position = "{900, 1500}";
}
);
layerId = "2B88661E-23DD-4EDA-82FC-C2AEA983F097";
paths = (
{
closed = 1;
nodes = (
"1348 -32 OFFCURVE",
"1561 267 OFFCURVE",
"1555 674 CURVE",
"1519 674 LINE",
"1518 325 OFFCURVE",
"1317 22 OFFCURVE",
"905 22 CURVE SMOOTH",
"501 22 OFFCURVE",
"198 299 OFFCURVE",
"198 751 CURVE SMOOTH",
"198 1203 OFFCURVE",
"502 1482 OFFCURVE",
"899 1482 CURVE SMOOTH",
"1281 1482 OFFCURVE",
"1454 1276 OFFCURVE",
"1477 1019 CURVE",
"1511 1019 LINE",
"1504 1339 OFFCURVE",
"1276 1534 OFFCURVE",
"894 1534 CURVE SMOOTH",
"464 1534 OFFCURVE",
"136 1246 OFFCURVE",
"136 750 CURVE SMOOTH",
"136 255 OFFCURVE",
"465 -32 OFFCURVE",
"901 -32 CURVE SMOOTH"
);
},
{
closed = 1;
nodes = (
"1571 0 LINE",
"1571 674 LINE",
"1555 674 LINE",
"1521 489 LINE",
"1521 0 LINE"
);
},
{
closed = 1;
nodes = (
"1798 674 LINE",
"1798 724 LINE",
"902 724 LINE",
"902 674 LINE"
);
},
{
closed = 1;
nodes = (
"1528 1019 LINE",
"1528 1500 LINE",
"1478 1500 LINE",
"1478 1106 LINE",
"1511 1019 LINE"
);
}
);
width = 1804;
}
);
leftKerningGroup = O;
leftMetricsKey = O;
rightKerningGroup = G;
unicode = 0047;
},
{
color = 8;
glyphname = H;
lastChange = "2021-05-13 18:42:10 +0000";
layers = (
{
anchors = (
{
name = bottom;
position = "{842, 0}";
},
{
name = center;
position = "{842, 750}";
},
{
name = top;
position = "{842, 1500}";
},
{
name = topleft;
position = "{22, 1500}";
}
);
hints = (
{
origin = "{0, 1}";
scale = "{1.18, 1}";
type = Corner;
name = _corner.Serif;
},
{
origin = "{0, 2}";
scale = "{-1.08, 1}";
type = Corner;
name = _corner.Serif;
},
{
origin = "{0, 3}";
scale = "{1.1, 1}";
type = Corner;
name = _corner.Serif;
options = 1;
},
{
origin = "{0, 0}";
scale = "{-1.2, 1}";
type = Corner;
name = _corner.Serif;
},
{
origin = "{1, 1}";
scale = "{1.08, 1}";
type = Corner;
name = _corner.Serif;
},
{
origin = "{1, 2}";
scale = "{-1.18, 1}";
type = Corner;
name = _corner.Serif;
},
{
origin = "{1, 3}";
scale = "{1.2, 1}";
type = Corner;
name = _corner.Serif;
options = 1;
},
{
origin = "{1, 0}";
scale = "{-1.1, 1}";
type = Corner;
name = _corner.Serif;
}
);
layerId = "1E61A082-F045-49A7-AB52-DD1B03FD9B54";
paths = (
{
closed = 1;
nodes = (
"349 0 LINE",
"349 1500 LINE",
"301 1500 LINE",
"301 0 LINE"
);
},
{
closed = 1;
nodes = (
"1383 0 LINE",
"1383 1500 LINE",
"1335 1500 LINE",
"1335 0 LINE"
);
},
{
closed = 1;
nodes = (
"1335 742 LINE",
"1335 780 LINE",
"349 780 LINE",
"349 742 LINE"
);
}
);
width = 1684;
},
{
anchors = (
{
name = bottom;
position = "{929, 0}";
},
{
name = center;
position = "{929, 750}";
},
{
name = top;
position = "{929, 1500}";
},
{
name = topleft;
position = "{30, 1500}";
}
);
hints = (
{
origin = "{0, 1}";
scale = "{1.18, 1}";
type = Corner;
name = _corner.Serif;
},
{
origin = "{0, 2}";
scale = "{-1.08, 1}";
type = Corner;
name = _corner.Serif;
},
{
origin = "{0, 3}";
scale = "{1.1, 1}";
type = Corner;
name = _corner.Serif;
options = 1;
},
{
origin = "{0, 0}";
scale = "{-1.18, 1}";
type = Corner;
name = _corner.Serif;
},
{
origin = "{1, 1}";
scale = "{1.08, 1}";
type = Corner;
name = _corner.Serif;
},
{
origin = "{1, 2}";
scale = "{-1.18, 1}";
type = Corner;
name = _corner.Serif;
},
{
origin = "{1, 3}";
scale = "{1.18, 1}";
type = Corner;
name = _corner.Serif;
options = 1;
},
{
origin = "{1, 0}";
scale = "{-1.08, 1}";
type = Corner;
name = _corner.Serif;
}
);
layerId = "219068EA-2B9B-40DC-949E-B60449C01B8A";
paths = (
{
closed = 1;
nodes = (
"657 0 LINE",
"657 1500 LINE",
"237 1500 LINE",
"237 0 LINE"
);
},
{
closed = 1;
nodes = (
"1623 0 LINE",
"1623 1500 LINE",
"1203 1500 LINE",
"1203 0 LINE"
);
},
{
closed = 1;
nodes = (
"1203 648 LINE",
"1203 878 LINE",
"657 878 LINE",
"657 648 LINE"
);
}
);
width = 1857;
},
{
anchors = (
{
name = bottom;
position = "{887, 0}";
},
{
name = center;
position = "{887, 750}";
},
{
name = top;
position = "{887, 1500}";
},
{
name = topleft;
position = "{26, 1500}";
}
);
hints = (
{
origin = "{0, 1}";
scale = "{1.18, 0.98}";
type = Corner;
name = _corner.Serif;
},
{
origin = "{0, 2}";
scale = "{-1.08, 0.98}";
type = Corner;
name = _corner.Serif;
},
{
origin = "{0, 3}";
scale = "{1.1, 1}";
type = Corner;
name = _corner.Serif;
options = 1;
},
{
origin = "{0, 0}";
scale = "{-1.18, 1}";
type = Corner;
name = _corner.Serif;
},
{
origin = "{1, 1}";
scale = "{1.08, 0.98}";
type = Corner;
name = _corner.Serif;
},
{
origin = "{1, 2}";
scale = "{-1.18, 0.98}";
type = Corner;
name = _corner.Serif;
},
{
origin = "{1, 3}";
scale = "{1.18, 1}";
type = Corner;
name = _corner.Serif;
options = 1;
},
{
origin = "{1, 0}";
scale = "{-1.08, 1}";
type = Corner;
name = _corner.Serif;
}
);
layerId = "0C29AA02-E021-4BD1-A2C4-87F681D64C35";
paths = (
{
closed = 1;
nodes = (
"650 0 LINE",
"650 1500 LINE",
"230 1500 LINE",
"230 0 LINE"
);
},
{
closed = 1;
nodes = (
"1546 0 LINE",
"1546 1500 LINE",
"1126 1500 LINE",
"1126 0 LINE"
);
},
{
closed = 1;
nodes = (
"1126 660 LINE",
"1126 868 LINE",
"650 868 LINE",
"650 660 LINE"
);
}
);
width = 1773;
},
{
anchors = (
{
name = bottom;
position = "{879, 0}";
},
{
name = center;
position = "{879, 750}";
},
{
name = top;
position = "{879, 1500}";
},
{
name = topleft;
position = "{21, 1500}";
}
);
hints = (
{
origin = "{0, 1}";
scale = "{1.18, 1}";
type = Corner;
name = _corner.Serif;
},
{
origin = "{0, 2}";
scale = "{-1.08, 1}";
type = Corner;
name = _corner.Serif;
},
{
origin = "{0, 3}";
scale = "{1.1, 1}";
type = Corner;
name = _corner.Serif;
options = 1;
},
{
origin = "{0, 0}";
scale = "{-1.1993, 1}";
type = Corner;
name = _corner.Serif;
},
{
origin = "{1, 1}";
scale = "{1.08, 1}";
type = Corner;
name = _corner.Serif;
},
{
origin = "{1, 2}";
scale = "{-1.18, 1}";
type = Corner;
name = _corner.Serif;
},
{
origin = "{1, 3}";
scale = "{1.1993, 1}";
type = Corner;
name = _corner.Serif;
options = 1;
},
{
origin = "{1, 0}";
scale = "{-1.0993, 1}";
type = Corner;
name = _corner.Serif;
}
);
layerId = "2B88661E-23DD-4EDA-82FC-C2AEA983F097";
paths = (
{
closed = 1;
nodes = (
"369 0 LINE",
"369 1500 LINE",
"309 1500 LINE",
"309 0 LINE"
);
},
{
closed = 1;
nodes = (
"1448 0 LINE",
"1448 1500 LINE",
"1388 1500 LINE",
"1388 0 LINE"
);
},
{
closed = 1;
nodes = (
"1388 735 LINE",
"1388 785 LINE",
"369 785 LINE",
"369 735 LINE"
);
}
);
width = 1757;
}
);
leftKerningGroup = I;
rightKerningGroup = I;
unicode = 0048;
},
{
color = 8;
glyphname = I;
lastChange = "2021-05-13 14:32:44 +0000";
layers = (
{
anchors = (
{
name = bottom;
position = "{342, 0}";
},
{
name = ogonek;
position = "{471, 0}";
},
{
name = top;
position = "{342, 1500}";
},
{
name = topleft;
position = "{20, 1500}";
}
);
hints = (
{
origin = "{0, 2}";
scale = "{-1.18, 1}";
type = Corner;
name = _corner.Serif;
},
{
origin = "{0, 3}";
scale = "{1.2, 1}";
type = Corner;
name = _corner.Serif;
options = 1;
},
{
origin = "{0, 0}";
scale = "{-1.2, 1}";
type = Corner;
name = _corner.Serif;
},
{
origin = "{0, 1}";
scale = "{1.18, 1}";
type = Corner;
name = _corner.Serif;
}
);
layerId = "1E61A082-F045-49A7-AB52-DD1B03FD9B54";
paths = (
{
closed = 1;
nodes = (
"366 0 LINE",
"366 1500 LINE",
"318 1500 LINE",
"318 0 LINE"
);
}
);
width = 684;
},
{
anchors = (
{
name = bottom;
position = "{448, 0}";
},
{
name = ogonek;
position = "{658, 0}";
},
{
name = top;
position = "{448, 1500}";
},
{
name = topleft;
position = "{20, 1500}";
}
);
hints = (
{
origin = "{0, 2}";
scale = "{-1.18, 1}";
type = Corner;
name = _corner.Serif;
},
{
origin = "{0, 3}";
scale = "{1.2, 1}";
type = Corner;
name = _corner.Serif;
options = 1;
},
{
origin = "{0, 0}";
scale = "{-1.2, 1}";
type = Corner;
name = _corner.Serif;
},
{
origin = "{0, 1}";
scale = "{1.18, 1}";
type = Corner;
name = _corner.Serif;
}
);
layerId = "219068EA-2B9B-40DC-949E-B60449C01B8A";
paths = (
{
closed = 1;
nodes = (
"658 0 LINE",
"658 1500 LINE",
"238 1500 LINE",
"238 0 LINE"
);
}
);
width = 896;
},
{
anchors = (
{
name = bottom;
position = "{454, 0}";
},
{
name = ogonek;
position = "{664, 0}";
},
{
name = top;
position = "{454, 1500}";
},
{
name = topleft;
position = "{30, 1500}";
}
);
hints = (
{
origin = "{0, 2}";
scale = "{-1.18, 0.98}";
type = Corner;
name = _corner.Serif;
},
{
origin = "{0, 3}";
scale = "{1.2, 1}";
type = Corner;
name = _corner.Serif;
options = 1;
},
{
origin = "{0, 0}";
scale = "{-1.2, 1}";
type = Corner;
name = _corner.Serif;
},
{
origin = "{0, 1}";
scale = "{1.18, 0.98}";
type = Corner;
name = _corner.Serif;
}
);
layerId = "0C29AA02-E021-4BD1-A2C4-87F681D64C35";
paths = (
{
closed = 1;
nodes = (
"664 0 LINE",
"664 1500 LINE",
"244 1500 LINE",
"244 0 LINE"
);
}
);
width = 908;
},
{
anchors = (
{
name = bottom;
position = "{355, 0}";
},
{
name = ogonek;
position = "{487, 0}";
},
{
name = top;
position = "{355, 1500}";
},
{
name = topleft;
position = "{20, 1500}";
}
);
hints = (
{
origin = "{0, 2}";
scale = "{-1.18, 1}";
type = Corner;
name = _corner.Serif;
},
{
origin = "{0, 3}";
scale = "{1.2, 1}";
type = Corner;
name = _corner.Serif;
options = 1;
},
{
origin = "{0, 0}";
scale = "{-1.2, 1}";
type = Corner;
name = _corner.Serif;
},
{
origin = "{0, 1}";
scale = "{1.18, 1}";
type = Corner;
name = _corner.Serif;
}
);
layerId = "2B88661E-23DD-4EDA-82FC-C2AEA983F097";
paths = (
{
closed = 1;
nodes = (
"385 0 LINE",
"385 1500 LINE",
"325 1500 LINE",
"325 0 LINE"
);
}
);
width = 709;
}
);
leftKerningGroup = I;
rightKerningGroup = I;
unicode = 0049;
},
{
color = 8;
glyphname = J;
lastChange = "2021-05-13 19:36:35 +0000";
layers = (
{
anchors = (
{
name = bottom;
position = "{598, 0}";
},
{
name = top;
position = "{802, 1500}";
}
);
hints = (
{
origin = "{0, 3}";
scale = "{1.08, 1}";
type = Corner;
name = _corner.Serif;
},
{
origin = "{0, 4}";
scale = "{-1.88, 1}";
type = Corner;
name = _corner.Serif;
options = 1;
}
);
layerId = "1E61A082-F045-49A7-AB52-DD1B03FD9B54";
paths = (
{
closed = 1;
nodes = (
"758 -16 OFFCURVE",
"918 123 OFFCURVE",
"918 430 CURVE SMOOTH",
"918 1500 LINE",
"870 1500 LINE",
"870 426 LINE SMOOTH",
"870 159 OFFCURVE",
"732 22 OFFCURVE",
"508 22 CURVE SMOOTH",
"284 22 OFFCURVE",
"146 159 OFFCURVE",
"146 426 CURVE SMOOTH",
"146 590 LINE",
"106 590 LINE",
"106 422 LINE SMOOTH",
"106 124 OFFCURVE",
"266 -16 OFFCURVE",
"512 -16 CURVE SMOOTH"
);
}
);
width = 1202;
},
{
anchors = (
{
name = bottom;
position = "{687, 0}";
},
{
name = top;
position = "{901, 1500}";
}
);
hints = (
{
origin = "{0, 4}";
scale = "{-1.38, 1}";
type = Corner;
name = _corner.Serif;
options = 1;
},
{
origin = "{0, 3}";
scale = "{1.08, 1}";
type = Corner;
name = _corner.Serif;
}
);
layerId = "219068EA-2B9B-40DC-949E-B60449C01B8A";
paths = (
{
closed = 1;
nodes = (
"946 -28 OFFCURVE",
"1144 144 OFFCURVE",
"1144 462 CURVE SMOOTH",
"1144 1500 LINE",
"724 1500 LINE",
"724 498 LINE SMOOTH",
"724 370 OFFCURVE",
"660 278 OFFCURVE",
"510 278 CURVE SMOOTH",
"359 278 OFFCURVE",
"300 371 OFFCURVE",
"300 498 CURVE SMOOTH",
"300 597 LINE",
"68 597 LINE",
"68 462 LINE SMOOTH",
"68 143 OFFCURVE",
"286 -28 OFFCURVE",
"606 -28 CURVE SMOOTH"
);
}
);
width = 1368;
},
{
anchors = (
{
name = bottom;
position = "{611, 0}";
},
{
name = top;
position = "{731, 1500}";
}
);
hints = (
{
origin = "{0, 3}";
scale = "{1.08, 0.98}";
type = Corner;
name = _corner.Serif;
},
{
origin = "{0, 4}";
scale = "{-1.98, 0.98}";
type = Corner;
name = _corner.Serif;
options = 1;
}
);
layerId = "0C29AA02-E021-4BD1-A2C4-87F681D64C35";
paths = (
{
closed = 1;
nodes = (
"835 -32 OFFCURVE",
"1012 126 OFFCURVE",
"1012 418 CURVE SMOOTH",
"1012 1500 LINE",
"592 1500 LINE",
"592 418 LINE SMOOTH",
"592 313 OFFCURVE",
"540 238 OFFCURVE",
"418 238 CURVE SMOOTH",
"296 238 OFFCURVE",
"248 314 OFFCURVE",
"248 418 CURVE SMOOTH",
"248 597 LINE",
"50 597 LINE",
"50 418 LINE SMOOTH",
"50 126 OFFCURVE",
"227 -32 OFFCURVE",
"531 -32 CURVE SMOOTH"
);
}
);
width = 1233;
},
{
anchors = (
{
name = bottom;
position = "{636, 0}";
},
{
name = top;
position = "{892, 1500}";
}
);
hints = (
{
origin = "{0, 4}";
scale = "{-1.573, 1}";
type = Corner;
name = _corner.Serif;
options = 1;
},
{
origin = "{0, 3}";
scale = "{1.08, 1}";
type = Corner;
name = _corner.Serif;
}
);
layerId = "2B88661E-23DD-4EDA-82FC-C2AEA983F097";
paths = (
{
closed = 1;
nodes = (
"811 -16 OFFCURVE",
"983 132 OFFCURVE",
"983 460 CURVE SMOOTH",
"983 1500 LINE",
"923 1500 LINE",
"923 457 LINE SMOOTH",
"923 180 OFFCURVE",
"779 36 OFFCURVE",
"541 36 CURVE SMOOTH",
"303 36 OFFCURVE",
"159 176 OFFCURVE",
"159 457 CURVE SMOOTH",
"159 532 LINE",
"105 532 LINE",
"105 452 LINE SMOOTH",
"105 139 OFFCURVE",
"267 -16 OFFCURVE",
"544 -16 CURVE SMOOTH"
);
}
);
width = 1288;
}
);
leftKerningGroup = J;
rightKerningGroup = U;
rightMetricsKey = U;
unicode = 004A;
},
{
color = 8;
glyphname = K;
lastChange = "2021-06-02 08:12:32 +0000";
layers = (
{
anchors = (
{
name = bottom;
position = "{817, 0}";
},
{
name = top;
position = "{817, 1500}";
}
);
hints = (
{
origin = "{1, 2}";
scale = "{-1.08, 1}";
type = Corner;
name = _corner.Serif;
},
{
origin = "{1, 3}";
scale = "{1.1, 1}";
type = Corner;
name = _corner.Serif;
options = 1;
},
{
origin = "{1, 0}";
scale = "{-1.2, 1}";
type = Corner;
name = _corner.Serif;
},
{
origin = "{1, 1}";
scale = "{1.18, 1}";
type = Corner;
name = _corner.Serif;
},
{
origin = "{0, 1}";
scale = "{-1.38, 1}";
type = Corner;
name = _corner.Serif;
options = 1;
},
{
origin = "{0, 0}";
scale = "{0.62, 1}";
type = Corner;
name = _corner.Serif;
},
{
origin = "{2, 3}";
scale = "{1.4, 1}";
type = Corner;
name = _corner.Serif;
},
{
origin = "{2, 0}";
scale = "{-0.66, 1}";
type = Corner;
name = _corner.Serif;
options = 1;
}
);
layerId = "1E61A082-F045-49A7-AB52-DD1B03FD9B54";
paths = (
{
closed = 1;
nodes = (
"1377 1500 LINE",
"1316 1500 LINE",
"315 613 LINE",
"340 584 LINE"
);
},
{
closed = 1;
nodes = (
"349 0 LINE",
"349 1500 LINE",
"301 1500 LINE",
"301 0 LINE"
);
},
{
closed = 1;
nodes = (
"1437 0 LINE",
"605 848 LINE",
"575 816 LINE",
"1372 0 LINE"
);
}
);
width = 1639;
},
{
anchors = (
{
name = bottom;
position = "{867, 0}";
},
{
name = top;
position = "{867, 1500}";
}
);
hints = (
{
origin = "{1, 2}";
scale = "{-1.08, 1}";
type = Corner;
name = _corner.Serif;
},
{
origin = "{1, 3}";
scale = "{1.1, 1}";
type = Corner;
name = _corner.Serif;
options = 1;
},
{
origin = "{1, 0}";
scale = "{-0.94, 1}";
type = Corner;
name = _corner.Serif;
},
{
origin = "{1, 1}";
scale = "{1.08, 1}";
type = Corner;
name = _corner.Serif;
},
{
origin = "{0, 1}";
scale = "{-2.14, 1}";
type = Corner;
name = _corner.Serif;
options = 1;
},
{
origin = "{0, 0}";
scale = "{0.02, 1}";
type = Corner;
name = _corner.Serif;
},
{
origin = "{2, 3}";
scale = "{1.54, 1}";
type = Corner;
name = _corner.Serif;
},
{
origin = "{2, 0}";
scale = "{-0.2, 1}";
type = Corner;
name = _corner.Serif;
options = 1;
}
);
layerId = "219068EA-2B9B-40DC-949E-B60449C01B8A";
paths = (
{
closed = 1;
nodes = (
"1760 1500 LINE",
"1398 1500 LINE",
"405 624 LINE",
"565 436 LINE"
);
},
{
closed = 1;
nodes = (
"657 0 LINE",
"657 1500 LINE",
"237 1500 LINE",
"237 0 LINE"
);
},
{
closed = 1;
nodes = (
"1734 0 LINE",
"1009 942 LINE",
"718 676 LINE",
"1210 0 LINE"
);
}
);
width = 1759;
},
{
anchors = (
{
name = bottom;
position = "{864, 0}";
},
{
name = top;
position = "{864, 1500}";
}
);
hints = (
{
origin = "{1, 2}";
scale = "{-1.08, 0.98}";
type = Corner;
name = _corner.Serif;
},
{
origin = "{1, 3}";
scale = "{1.1, 1}";
type = Corner;
name = _corner.Serif;
options = 1;
},
{
origin = "{1, 0}";
scale = "{-0.92, 1}";
type = Corner;
name = _corner.Serif;
},
{
origin = "{1, 1}";
scale = "{1.08, 0.98}";
type = Corner;
name = _corner.Serif;
},
{
origin = "{0, 1}";
scale = "{-2.06, 0.98}";
type = Corner;
name = _corner.Serif;
options = 1;
},
{
origin = "{0, 0}";
scale = "{0.04, 0.98}";
type = Corner;
name = _corner.Serif;
},
{
origin = "{2, 3}";
scale = "{1.54, 1}";
type = Corner;
name = _corner.Serif;
},
{
origin = "{2, 0}";
scale = "{-0.15, 1}";
type = Corner;
name = _corner.Serif;
options = 1;
}
);
layerId = "0C29AA02-E021-4BD1-A2C4-87F681D64C35";
paths = (
{
closed = 1;
nodes = (
"1733 1500 LINE",
"1411 1500 LINE",
"428 605 LINE",
"568 446 LINE"
);
},
{
closed = 1;
nodes = (
"650 0 LINE",
"650 1500 LINE",
"230 1500 LINE",
"230 0 LINE"
);
},
{
closed = 1;
nodes = (
"1753 0 LINE",
"1020 923 LINE",
"735 676 LINE",
"1249 0 LINE"
);
}
);
width = 1758;
},
{
anchors = (
{
name = bottom;
position = "{824, 0}";
},
{
name = top;
position = "{824, 1500}";
}
);
hints = (
{
origin = "{1, 2}";
scale = "{-1.08, 1}";
type = Corner;
name = _corner.Serif;
},
{
origin = "{1, 3}";
scale = "{1.1, 1}";
type = Corner;
name = _corner.Serif;
options = 1;
},
{
origin = "{1, 0}";
scale = "{-1.1909, 1}";
type = Corner;
name = _corner.Serif;
},
{
origin = "{1, 1}";
scale = "{1.1765, 1}";
type = Corner;
name = _corner.Serif;
},
{
origin = "{0, 1}";
scale = "{-1.4066, 1}";
type = Corner;
name = _corner.Serif;
options = 1;
},
{
origin = "{0, 0}";
scale = "{0.599, 1}";
type = Corner;
name = _corner.Serif;
},
{
origin = "{2, 3}";
scale = "{1.4049, 1}";
type = Corner;
name = _corner.Serif;
},
{
origin = "{2, 0}";
scale = "{-0.6439, 1}";
type = Corner;
name = _corner.Serif;
options = 1;
}
);
layerId = "2B88661E-23DD-4EDA-82FC-C2AEA983F097";
paths = (
{
closed = 1;
nodes = (
"1420 1500 LINE",
"1339 1500 LINE",
"329 590 LINE",
"359 547 LINE"
);
},
{
closed = 1;
nodes = (
"369 0 LINE",
"369 1500 LINE",
"309 1500 LINE",
"309 0 LINE"
);
},
{
closed = 1;
nodes = (
"1477 0 LINE",
"651 839 LINE",
"610 801 LINE",
"1395 0 LINE"
);
}
);
width = 1662;
}
);
leftKerningGroup = I;
leftMetricsKey = H;
rightKerningGroup = K;
rightMetricsKey = X;
unicode = 004B;
},
{
color = 8;
glyphname = L;
lastChange = "2021-05-13 18:46:02 +0000";
layers = (
{
anchors = (
{
name = bottom;
position = "{699, 0}";
},
{
name = center;
position = "{325, 1200}";
},
{
name = top;
position = "{323, 1500}";
},
{
name = topright;
position = "{699, 1500}";
}
);
hints = (
{
origin = "{0, 1}";
scale = "{1.88, 1}";
type = Corner;
name = _corner.Serif;
},
{
origin = "{0, 2}";
scale = "{-1.08, 1}";
type = Corner;
name = _corner.Serif;
},
{
origin = "{0, 3}";
scale = "{1.1, 1}";
type = Corner;
name = _corner.Serif;
options = 1;
}
);
layerId = "1E61A082-F045-49A7-AB52-DD1B03FD9B54";
paths = (
{
closed = 1;
nodes = (
"349 0 LINE",
"349 1500 LINE",
"301 1500 LINE",
"301 0 LINE"
);
},
{
closed = 1;
nodes = (
"1283 0 LINE",
"1283 38 LINE",
"349 38 LINE",
"349 0 LINE"
);
},
{
closed = 1;
nodes = (
"1283 38 LINE",
"1283 580 LINE",
"1243 580 LINE",
"1243 168 LINE SMOOTH",
"1243 64 OFFCURVE",
"1217 38 OFFCURVE",
"1117 38 CURVE"
);
}
);
width = 1395;
},
{
anchors = (
{
name = bottom;
position = "{778, 0}";
},
{
name = center;
position = "{447, 1260}";
},
{
name = top;
position = "{447, 1500}";
},
{
name = topright;
position = "{845, 1500}";
}
);
hints = (
{
origin = "{0, 1}";
scale = "{1.38, 1}";
type = Corner;
name = _corner.Serif;
},
{
origin = "{0, 2}";
scale = "{-1.08, 1}";
type = Corner;
name = _corner.Serif;
},
{
origin = "{0, 3}";
scale = "{1.1, 1}";
type = Corner;
name = _corner.Serif;
options = 1;
}
);
layerId = "219068EA-2B9B-40DC-949E-B60449C01B8A";
paths = (
{
closed = 1;
nodes = (
"657 0 LINE",
"657 1500 LINE",
"237 1500 LINE",
"237 0 LINE"
);
},
{
closed = 1;
nodes = (
"1477 0 LINE",
"1477 224 LINE",
"657 224 LINE",
"657 0 LINE"
);
},
{
closed = 1;
nodes = (
"1477 224 LINE",
"1477 540 LINE",
"1245 540 LINE",
"1245 464 LINE SMOOTH",
"1245 294 OFFCURVE",
"1185 224 OFFCURVE",
"1025 224 CURVE"
);
}
);
width = 1567;
},
{
anchors = (
{
name = bottom;
position = "{729, 0}";
},
{
name = center;
position = "{440, 1240}";
},
{
name = top;
position = "{440, 1500}";
},
{
name = topright;
position = "{959, 1500}";
}
);
hints = (
{
origin = "{0, 1}";
scale = "{1.98, 0.98}";
type = Corner;
name = _corner.Serif;
},
{
origin = "{0, 2}";
scale = "{-1.08, 0.98}";
type = Corner;
name = _corner.Serif;
},
{
origin = "{0, 3}";
scale = "{1.1, 1}";
type = Corner;
name = _corner.Serif;
options = 1;
}
);
layerId = "0C29AA02-E021-4BD1-A2C4-87F681D64C35";
paths = (
{
closed = 1;
nodes = (
"650 0 LINE",
"650 1500 LINE",
"230 1500 LINE",
"230 0 LINE"
);
},
{
closed = 1;
nodes = (
"1400 0 LINE",
"1400 206 LINE",
"650 206 LINE",
"650 0 LINE"
);
},
{
closed = 1;
nodes = (
"1400 206 LINE",
"1400 560 LINE",
"1202 560 LINE",
"1202 446 LINE SMOOTH",
"1202 276 OFFCURVE",
"1142 206 OFFCURVE",
"982 206 CURVE"
);
}
);
width = 1484;
},
{
anchors = (
{
name = bottom;
position = "{733, 0}";
},
{
name = center;
position = "{339, 1221}";
},
{
name = top;
position = "{339, 1500}";
},
{
name = topright;
position = "{588, 1500}";
}
);
hints = (
{
origin = "{0, 1}";
scale = "{1.573, 1}";
type = Corner;
name = _corner.Serif;
},
{
origin = "{0, 2}";
scale = "{-1.08, 1}";
type = Corner;
name = _corner.Serif;
},
{
origin = "{0, 3}";
scale = "{1.1, 1}";
type = Corner;
name = _corner.Serif;
options = 1;
}
);
layerId = "2B88661E-23DD-4EDA-82FC-C2AEA983F097";
paths = (
{
closed = 1;
nodes = (
"369 0 LINE",
"369 1500 LINE",
"309 1500 LINE",
"309 0 LINE"
);
},
{
closed = 1;
nodes = (
"1358 0 LINE",
"1358 50 LINE",
"369 50 LINE",
"369 0 LINE"
);
},
{
closed = 1;
nodes = (
"1358 50 LINE",
"1358 521 LINE",
"1308 521 LINE",
"1308 184 LINE SMOOTH",
"1308 78 OFFCURVE",
"1281 50 OFFCURVE",
"1179 50 CURVE"
);
}
);
width = 1482;
}
);
leftKerningGroup = I;
leftMetricsKey = H;
rightKerningGroup = L;
unicode = 004C;
},
{
color = 8;
glyphname = M;
lastChange = "2021-05-13 18:59:09 +0000";
layers = (
{
anchors = (
{
name = bottom;
position = "{1022, 0}";
},
{
name = top;
position = "{1024, 1500}";
}
);
hints = (
{
origin = "{1, 3}";
scale = "{-1.08, 1}";
type = Corner;
name = _corner.Serif;
},
{
origin = "{1, 4}";
scale = "{1.1, 1}";
type = Corner;
name = _corner.Serif;
options = 1;
},
{
origin = "{1, 0}";
scale = "{-1.2, 1}";
type = Corner;
name = _corner.Serif;
},
{
origin = "{2, 1}";
scale = "{1.08, 1}";
type = Corner;
name = _corner.Serif;
},
{
origin = "{2, 3}";
scale = "{1.2, 1}";
type = Corner;
name = _corner.Serif;
},
{
origin = "{2, 0}";
scale = "{-1.1, 1}";
type = Corner;
name = _corner.Serif;
options = 1;
}
);
layerId = "1E61A082-F045-49A7-AB52-DD1B03FD9B54";
paths = (
{
closed = 1;
nodes = (
"1038 0 LINE",
"1699 1430 LINE",
"1699 1500 LINE",
"1687 1500 LINE",
"1018 52 LINE",
"1031 52 LINE",
"365 1500 LINE",
"341 1500 LINE",
"341 1438 LINE",
"1002 0 LINE"
);
},
{
closed = 1;
nodes = (
"341 0 LINE",
"341 1438 LINE",
"341 1500 LINE",
"301 1500 LINE",
"301 0 LINE"
);
},
{
closed = 1;
nodes = (
"1747 0 LINE",
"1747 1500 LINE",
"1699 1500 LINE",
"1699 0 LINE"
);
}
);
width = 2048;
},
{
anchors = (
{
name = bottom;
position = "{1096, 0}";
},
{
name = top;
position = "{1166, 1500}";
}
);
hints = (
{
origin = "{1, 3}";
scale = "{-1.08, 1}";
type = Corner;
name = _corner.Serif;
},
{
origin = "{1, 4}";
scale = "{1.1, 1}";
type = Corner;
name = _corner.Serif;
options = 1;
},
{
origin = "{1, 0}";
scale = "{-1.2, 1}";
type = Corner;
name = _corner.Serif;
},
{
origin = "{2, 1}";
scale = "{1.08, 1}";
type = Corner;
name = _corner.Serif;
},
{
origin = "{2, 3}";
scale = "{1.2, 1}";
type = Corner;
name = _corner.Serif;
},
{
origin = "{2, 0}";
scale = "{-1.1, 1}";
type = Corner;
name = _corner.Serif;
options = 1;
}
);
layerId = "219068EA-2B9B-40DC-949E-B60449C01B8A";
paths = (
{
closed = 1;
nodes = (
"1229 0 LINE",
"1670 967 LINE",
"1670 1500 LINE",
"1638 1500 LINE",
"1136 395 LINE",
"1194 395 LINE",
"663 1500 LINE",
"497 1500 LINE",
"497 915 LINE",
"942 0 LINE"
);
},
{
closed = 1;
nodes = (
"497 0 LINE",
"497 915 LINE",
"497 1500 LINE",
"237 1500 LINE",
"237 0 LINE"
);
},
{
closed = 1;
nodes = (
"2086 0 LINE",
"2086 1500 LINE",
"1670 1500 LINE",
"1670 0 LINE"
);
}
);
width = 2323;
},
{
anchors = (
{
name = bottom;
position = "{988, 0}";
},
{
name = top;
position = "{1079, 1500}";
}
);
hints = (
{
origin = "{1, 3}";
scale = "{-1.08, 0.98}";
type = Corner;
name = _corner.Serif;
},
{
origin = "{1, 4}";
scale = "{1.1, 1}";
type = Corner;
name = _corner.Serif;
options = 1;
},
{
origin = "{1, 0}";
scale = "{-1.2, 1}";
type = Corner;
name = _corner.Serif;
},
{
origin = "{2, 1}";
scale = "{1.08, 0.98}";
type = Corner;
name = _corner.Serif;
},
{
origin = "{2, 3}";
scale = "{1.2, 1}";
type = Corner;
name = _corner.Serif;
},
{
origin = "{2, 0}";
scale = "{-1.1, 1}";
type = Corner;
name = _corner.Serif;
options = 1;
}
);
layerId = "0C29AA02-E021-4BD1-A2C4-87F681D64C35";
paths = (
{
closed = 1;
nodes = (
"1098 0 LINE",
"1499 1006 LINE",
"1499 1500 LINE",
"1480 1500 LINE",
"1039 395 LINE",
"1098 395 LINE",
"634 1500 LINE",
"450 1500 LINE",
"450 951 LINE",
"855 0 LINE"
);
},
{
closed = 1;
nodes = (
"450 0 LINE",
"450 951 LINE",
"450 1500 LINE",
"230 1500 LINE",
"230 0 LINE"
);
},
{
closed = 1;
nodes = (
"1907 0 LINE",
"1907 1500 LINE",
"1499 1500 LINE",
"1499 0 LINE"
);
}
);
width = 2137;
},
{
anchors = (
{
name = bottom;
position = "{1089, 0}";
},
{
name = top;
position = "{1094, 1500}";
}
);
hints = (
{
origin = "{1, 3}";
scale = "{-1.08, 1}";
type = Corner;
name = _corner.Serif;
},
{
origin = "{1, 4}";
scale = "{1.1, 1}";
type = Corner;
name = _corner.Serif;
options = 1;
},
{
origin = "{1, 0}";
scale = "{-1.2, 1}";
type = Corner;
name = _corner.Serif;
},
{
origin = "{2, 1}";
scale = "{1.08, 1}";
type = Corner;
name = _corner.Serif;
},
{
origin = "{2, 3}";
scale = "{1.2, 1}";
type = Corner;
name = _corner.Serif;
},
{
origin = "{2, 0}";
scale = "{-1.1, 1}";
type = Corner;
name = _corner.Serif;
options = 1;
}
);
layerId = "2B88661E-23DD-4EDA-82FC-C2AEA983F097";
paths = (
{
closed = 1;
nodes = (
"1111 0 LINE",
"1813 1414 LINE",
"1813 1500 LINE",
"1795 1500 LINE",
"1075 49 LINE",
"1108 49 LINE",
"390 1500 LINE",
"365 1500 LINE",
"365 1419 LINE",
"1067 0 LINE"
);
},
{
closed = 1;
nodes = (
"365 0 LINE",
"365 1419 LINE",
"365 1500 LINE",
"309 1500 LINE",
"309 0 LINE"
);
},
{
closed = 1;
nodes = (
"1873 0 LINE",
"1873 1500 LINE",
"1813 1500 LINE",
"1813 0 LINE"
);
}
);
width = 2182;
}
);
leftKerningGroup = I;
leftMetricsKey = H;
rightKerningGroup = I;
rightMetricsKey = H;
unicode = 004D;
},
{
color = 8;
glyphname = N;
lastChange = "2021-05-13 19:14:52 +0000";
layers = (
{
anchors = (
{
name = bottom;
position = "{854, 0}";
},
{
name = top;
position = "{870, 1500}";
}
);
hints = (
{
origin = "{1, 3}";
scale = "{-1.08, 1}";
type = Corner;
name = _corner.Serif;
},
{
origin = "{1, 4}";
scale = "{1.1, 1}";
type = Corner;
name = _corner.Serif;
options = 1;
},
{
origin = "{1, 0}";
scale = "{-1.2, 1}";
type = Corner;
name = _corner.Serif;
},
{
origin = "{2, 1}";
scale = "{1.08, 1}";
type = Corner;
name = _corner.Serif;
},
{
origin = "{2, 2}";
scale = "{-1.18, 1}";
type = Corner;
name = _corner.Serif;
options = 1;
}
);
layerId = "1E61A082-F045-49A7-AB52-DD1B03FD9B54";
rightMetricsKey = "=H-16";
paths = (
{
closed = 1;
nodes = (
"1387 76 LINE",
"345 1500 LINE",
"341 1424 LINE",
"1383 0 LINE"
);
},
{
closed = 1;
nodes = (
"341 0 LINE",
"341 1424 LINE",
"345 1500 LINE",
"301 1500 LINE",
"301 0 LINE"
);
},
{
closed = 1;
nodes = (
"1427 0 LINE",
"1427 1500 LINE",
"1387 1500 LINE",
"1387 76 LINE",
"1377 76 LINE",
"1383 0 LINE"
);
}
);
width = 1707;
},
{
anchors = (
{
name = bottom;
position = "{906, 0}";
},
{
name = top;
position = "{938, 1500}";
}
);
hints = (
{
origin = "{1, 3}";
scale = "{-1.08, 1}";
type = Corner;
name = _corner.Serif;
},
{
origin = "{1, 4}";
scale = "{1.1, 1}";
type = Corner;
name = _corner.Serif;
options = 1;
},
{
origin = "{1, 0}";
scale = "{-1.2, 1}";
type = Corner;
name = _corner.Serif;
},
{
origin = "{2, 1}";
scale = "{1.08, 1}";
type = Corner;
name = _corner.Serif;
},
{
origin = "{2, 2}";
scale = "{-1.18, 1}";
type = Corner;
name = _corner.Serif;
options = 1;
}
);
layerId = "219068EA-2B9B-40DC-949E-B60449C01B8A";
rightMetricsKey = "=H-6";
paths = (
{
closed = 1;
nodes = (
"1328 637 LINE",
"577 1500 LINE",
"497 952 LINE",
"1326 0 LINE"
);
},
{
closed = 1;
nodes = (
"497 0 LINE",
"497 952 LINE",
"577 1500 LINE",
"237 1500 LINE",
"237 0 LINE"
);
},
{
closed = 1;
nodes = (
"1588 0 LINE",
"1588 1500 LINE",
"1328 1500 LINE",
"1328 637 LINE",
"1318 637 LINE",
"1326 0 LINE"
);
}
);
width = 1816;
},
{
anchors = (
{
name = bottom;
position = "{859, 0}";
},
{
name = top;
position = "{885, 1500}";
}
);
hints = (
{
origin = "{1, 3}";
scale = "{-1.08, 0.98}";
type = Corner;
name = _corner.Serif;
},
{
origin = "{1, 4}";
scale = "{1.1, 1}";
type = Corner;
name = _corner.Serif;
options = 1;
},
{
origin = "{1, 0}";
scale = "{-1.2, 1}";
type = Corner;
name = _corner.Serif;
},
{
origin = "{2, 1}";
scale = "{1, 0.98}";
type = Corner;
name = _corner.Serif;
},
{
origin = "{2, 2}";
scale = "{-1.18, 0.98}";
type = Corner;
name = _corner.Serif;
options = 1;
}
);
layerId = "0C29AA02-E021-4BD1-A2C4-87F681D64C35";
rightMetricsKey = "=H-12";
paths = (
{
closed = 1;
nodes = (
"1283 636 LINE",
"524 1500 LINE",
"454 943 LINE",
"1283 0 LINE"
);
},
{
closed = 1;
nodes = (
"454 0 LINE",
"454 943 LINE",
"524 1500 LINE",
"230 1500 LINE",
"230 0 LINE"
);
},
{
closed = 1;
nodes = (
"1507 0 LINE",
"1507 1500 LINE",
"1283 1500 LINE",
"1283 636 LINE",
"1273 636 LINE",
"1283 0 LINE"
);
}
);
width = 1709;
},
{
anchors = (
{
name = bottom;
position = "{907, 0}";
},
{
name = top;
position = "{918, 1500}";
}
);
hints = (
{
origin = "{1, 3}";
scale = "{-1.08, 1}";
type = Corner;
name = _corner.Serif;
},
{
origin = "{1, 4}";
scale = "{1.1, 1}";
type = Corner;
name = _corner.Serif;
options = 1;
},
{
origin = "{1, 0}";
scale = "{-1.2, 1}";
type = Corner;
name = _corner.Serif;
},
{
origin = "{2, 1}";
scale = "{1.08, 1}";
type = Corner;
name = _corner.Serif;
},
{
origin = "{2, 2}";
scale = "{-1.18, 1}";
type = Corner;
name = _corner.Serif;
options = 1;
}
);
layerId = "2B88661E-23DD-4EDA-82FC-C2AEA983F097";
paths = (
{
closed = 1;
nodes = (
"1451 93 LINE",
"370 1500 LINE",
"365 1411 LINE",
"1449 0 LINE"
);
},
{
closed = 1;
nodes = (
"365 0 LINE",
"365 1411 LINE",
"370 1500 LINE",
"309 1500 LINE",
"309 0 LINE"
);
},
{
closed = 1;
nodes = (
"1507 0 LINE",
"1507 1500 LINE",
"1451 1500 LINE",
"1451 93 LINE",
"1441 93 LINE",
"1449 0 LINE"
);
}
);
width = 1812;
}
);
leftKerningGroup = I;
leftMetricsKey = H;
rightKerningGroup = N;
rightMetricsKey = H;
unicode = 004E;
},
{
color = 8;
glyphname = Eng;
lastChange = "2021-05-13 22:56:07 +0000";
layers = (
{
hints = (
{
origin = "{0, 3}";
scale = "{-1.08, 1}";
type = Corner;
name = _corner.Serif;
},
{
origin = "{0, 4}";
scale = "{1.1, 1}";
type = Corner;
name = _corner.Serif;
options = 1;
},
{
origin = "{0, 0}";
scale = "{-1.2, 1}";
type = Corner;
name = _corner.Serif;
},
{
origin = "{2, 1}";
scale = "{1.08, 1}";
type = Corner;
name = _corner.Serif;
},
{
origin = "{2, 2}";
scale = "{-1.18, 1}";
type = Corner;
name = _corner.Serif;
options = 1;
}
);
layerId = "1E61A082-F045-49A7-AB52-DD1B03FD9B54";
paths = (
{
closed = 1;
nodes = (
"341 0 LINE",
"341 1423 LINE",
"345 1500 LINE",
"301 1500 LINE",
"301 0 LINE"
);
},
{
closed = 1;
nodes = (
"1379 77 LINE",
"345 1500 LINE",
"341 1423 LINE",
"1392 -23 LINE"
);
},
{
closed = 1;
nodes = (
"1419 -82 LINE",
"1419 1500 LINE",
"1379 1500 LINE",
"1379 -84 LINE"
);
},
{
closed = 1;
nodes = (
"1321 -454 OFFCURVE",
"1419 -346 OFFCURVE",
"1419 -82 CURVE",
"1379 -84 LINE",
"1379 -314 OFFCURVE",
"1300 -417 OFFCURVE",
"1139 -417 CURVE",
"1139 -454 LINE"
);
},
{
closed = 1;
nodes = (
"958 -218 OFFCURVE",
"933 -258 OFFCURVE",
"933 -303 CURVE SMOOTH",
"933 -401 OFFCURVE",
"1026 -454 OFFCURVE",
"1139 -454 CURVE",
"1139 -417 LINE",
"1043 -417 OFFCURVE",
"983 -385 OFFCURVE",
"972 -317 CURVE",
"963 -341 LINE",
"1025 -341 OFFCURVE",
"1064 -317 OFFCURVE",
"1064 -272 CURVE SMOOTH",
"1064 -239 OFFCURVE",
"1038 -218 OFFCURVE",
"1006 -218 CURVE SMOOTH"
);
}
);
width = 1699;
},
{
hints = (
{
origin = "{0, 3}";
scale = "{-1.08, 1}";
type = Corner;
name = _corner.Serif;
},
{
origin = "{0, 4}";
scale = "{1.1, 1}";
type = Corner;
name = _corner.Serif;
options = 1;
},
{
origin = "{0, 0}";
scale = "{-1.2, 1}";
type = Corner;
name = _corner.Serif;
},
{
origin = "{2, 1}";
scale = "{1.08, 1}";
type = Corner;
name = _corner.Serif;
},
{
origin = "{2, 2}";
scale = "{-1.18, 1}";
type = Corner;
name = _corner.Serif;
options = 1;
}
);
layerId = "219068EA-2B9B-40DC-949E-B60449C01B8A";
paths = (
{
closed = 1;
nodes = (
"497 0 LINE",
"497 949 LINE",
"577 1500 LINE",
"237 1500 LINE",
"237 0 LINE"
);
},
{
closed = 1;
nodes = (
"1308 642 LINE",
"577 1500 LINE",
"497 949 LINE",
"1329 -27 LINE"
);
},
{
closed = 1;
nodes = (
"1568 -15 LINE",
"1568 1500 LINE",
"1308 1500 LINE",
"1308 -115 LINE"
);
},
{
closed = 1;
nodes = (
"1408 -452 OFFCURVE",
"1568 -320 OFFCURVE",
"1568 -15 CURVE",
"1308 -115 LINE",
"1308 -236 OFFCURVE",
"1247 -283 OFFCURVE",
"1146 -283 CURVE",
"1152 -452 LINE"
);
},
{
closed = 1;
nodes = (
"892 -100 OFFCURVE",
"816 -154 OFFCURVE",
"816 -244 CURVE SMOOTH",
"816 -363 OFFCURVE",
"954 -452 OFFCURVE",
"1152 -452 CURVE",
"1146 -283 LINE",
"1102 -283 OFFCURVE",
"1061 -271 OFFCURVE",
"1035 -253 CURVE",
"1020 -330 LINE",
"1114 -330 OFFCURVE",
"1187 -304 OFFCURVE",
"1187 -212 CURVE SMOOTH",
"1187 -135 OFFCURVE",
"1111 -100 OFFCURVE",
"1020 -100 CURVE SMOOTH"
);
}
);
width = 1796;
},
{
hints = (
{
origin = "{0, 3}";
scale = "{-1.08, 0.98}";
type = Corner;
name = _corner.Serif;
},
{
origin = "{0, 4}";
scale = "{1.1, 1}";
type = Corner;
name = _corner.Serif;
options = 1;
},
{
origin = "{0, 0}";
scale = "{-1.2, 1}";
type = Corner;
name = _corner.Serif;
},
{
origin = "{2, 1}";
scale = "{1.08, 0.98}";
type = Corner;
name = _corner.Serif;
},
{
origin = "{2, 2}";
scale = "{-1.18, 0.98}";
type = Corner;
name = _corner.Serif;
options = 1;
}
);
layerId = "0C29AA02-E021-4BD1-A2C4-87F681D64C35";
paths = (
{
closed = 1;
nodes = (
"454 0 LINE",
"454 943 LINE",
"524 1500 LINE",
"230 1500 LINE",
"230 0 LINE"
);
},
{
closed = 1;
nodes = (
"1271 639 LINE",
"524 1500 LINE",
"454 943 LINE",
"1302 -36 LINE"
);
},
{
closed = 1;
nodes = (
"1495 -46 LINE",
"1495 1500 LINE",
"1271 1500 LINE",
"1271 -115 LINE"
);
},
{
closed = 1;
nodes = (
"1335 -452 OFFCURVE",
"1495 -348 OFFCURVE",
"1495 -46 CURVE",
"1271 -115 LINE",
"1271 -252 OFFCURVE",
"1207 -306 OFFCURVE",
"1101 -306 CURVE",
"1125 -452 LINE"
);
},
{
closed = 1;
nodes = (
"875 -90 OFFCURVE",
"801 -145 OFFCURVE",
"801 -236 CURVE SMOOTH",
"801 -372 OFFCURVE",
"946 -452 OFFCURVE",
"1125 -452 CURVE",
"1101 -306 LINE",
"1056 -306 OFFCURVE",
"1026 -292 OFFCURVE",
"1007 -271 CURVE",
"979 -337 LINE",
"1069 -335 OFFCURVE",
"1138 -298 OFFCURVE",
"1138 -213 CURVE SMOOTH",
"1138 -130 OFFCURVE",
"1071 -90 OFFCURVE",
"980 -90 CURVE SMOOTH"
);
}
);
width = 1710;
},
{
hints = (
{
origin = "{0, 0}";
scale = "{-1.2, 1}";
type = Corner;
name = _corner.Serif;
},
{
origin = "{0, 3}";
scale = "{-1.08, 1}";
type = Corner;
name = _corner.Serif;
},
{
origin = "{0, 4}";
scale = "{1.1, 1}";
type = Corner;
name = _corner.Serif;
options = 1;
},
{
origin = "{2, 1}";
scale = "{1.08, 1}";
type = Corner;
name = _corner.Serif;
},
{
origin = "{2, 2}";
scale = "{-1.18, 1}";
type = Corner;
name = _corner.Serif;
options = 1;
}
);
layerId = "2B88661E-23DD-4EDA-82FC-C2AEA983F097";
paths = (
{
closed = 1;
nodes = (
"365 0 LINE",
"365 1411 LINE",
"370 1500 LINE",
"309 1500 LINE",
"309 0 LINE"
);
},
{
closed = 1;
nodes = (
"1451 93 LINE",
"370 1500 LINE",
"365 1411 LINE",
"1482 -43 LINE"
);
},
{
closed = 1;
nodes = (
"1507 -114 LINE",
"1507 1500 LINE",
"1451 1500 LINE",
"1451 -120 LINE"
);
},
{
closed = 1;
nodes = (
"1410 -454 OFFCURVE",
"1507 -346 OFFCURVE",
"1507 -114 CURVE",
"1451 -120 LINE",
"1451 -318 OFFCURVE",
"1371 -407 OFFCURVE",
"1221 -407 CURVE",
"1222 -454 LINE"
);
},
{
closed = 1;
nodes = (
"1027 -229 OFFCURVE",
"1001 -264 OFFCURVE",
"1001 -309 CURVE SMOOTH",
"1001 -398 OFFCURVE",
"1095 -454 OFFCURVE",
"1222 -454 CURVE",
"1221 -407 LINE",
"1127 -407 OFFCURVE",
"1068 -378 OFFCURVE",
"1052 -324 CURVE",
"1038 -363 LINE",
"1089 -363 OFFCURVE",
"1137 -340 OFFCURVE",
"1137 -288 CURVE SMOOTH",
"1137 -253 OFFCURVE",
"1111 -229 OFFCURVE",
"1073 -229 CURVE SMOOTH"
);
}
);
width = 1812;
}
);
leftKerningGroup = I;
leftMetricsKey = N;
rightKerningGroup = N;
rightMetricsKey = N;
unicode = 014A;
},
{
color = 8;
glyphname = O;
lastChange = "2021-05-13 22:24:33 +0000";
layers = (
{
anchors = (
{
name = bottom;
position = "{846, 0}";
},
{
name = ogonek;
position = "{1154, 0}";
},
{
name = top;
position = "{846, 1500}";
},
{
name = topleft;
position = "{8, 1500}";
},
{
name = topright;
position = "{1427, 1260}";
}
);
layerId = "1E61A082-F045-49A7-AB52-DD1B03FD9B54";
paths = (
{
closed = 1;
nodes = (
"1266 -28 OFFCURVE",
"1574 257 OFFCURVE",
"1574 750 CURVE SMOOTH",
"1574 1243 OFFCURVE",
"1266 1528 OFFCURVE",
"846 1528 CURVE SMOOTH",
"426 1528 OFFCURVE",
"118 1243 OFFCURVE",
"118 750 CURVE SMOOTH",
"118 257 OFFCURVE",
"426 -28 OFFCURVE",
"846 -28 CURVE SMOOTH"
);
},
{
closed = 1;
nodes = (
"438 10 OFFCURVE",
"168 302 OFFCURVE",
"168 750 CURVE SMOOTH",
"168 1198 OFFCURVE",
"438 1490 OFFCURVE",
"846 1490 CURVE SMOOTH",
"1254 1490 OFFCURVE",
"1524 1198 OFFCURVE",
"1524 750 CURVE SMOOTH",
"1524 302 OFFCURVE",
"1254 10 OFFCURVE",
"846 10 CURVE SMOOTH"
);
}
);
width = 1692;
},
{
anchors = (
{
name = bottom;
position = "{966, 0}";
},
{
name = ogonek;
position = "{1329, 0}";
},
{
name = top;
position = "{966, 1500}";
},
{
name = topleft;
position = "{34, 1500}";
},
{
name = topright;
position = "{1698, 1270}";
}
);
layerId = "219068EA-2B9B-40DC-949E-B60449C01B8A";
paths = (
{
closed = 1;
nodes = (
"1500 -36 OFFCURVE",
"1850 248 OFFCURVE",
"1850 750 CURVE SMOOTH",
"1850 1252 OFFCURVE",
"1500 1536 OFFCURVE",
"966 1536 CURVE SMOOTH",
"432 1536 OFFCURVE",
"82 1252 OFFCURVE",
"82 750 CURVE SMOOTH",
"82 248 OFFCURVE",
"432 -36 OFFCURVE",
"966 -36 CURVE SMOOTH"
);
},
{
closed = 1;
nodes = (
"704 198 OFFCURVE",
"550 396 OFFCURVE",
"550 750 CURVE SMOOTH",
"550 1105 OFFCURVE",
"704 1302 OFFCURVE",
"966 1302 CURVE SMOOTH",
"1229 1302 OFFCURVE",
"1382 1105 OFFCURVE",
"1382 750 CURVE SMOOTH",
"1382 396 OFFCURVE",
"1229 198 OFFCURVE",
"966 198 CURVE SMOOTH"
);
}
);
width = 1932;
},
{
anchors = (
{
name = bottom;
position = "{918, 0}";
},
{
name = ogonek;
position = "{1265, 0}";
},
{
name = top;
position = "{918, 1500}";
},
{
name = topleft;
position = "{36, 1500}";
},
{
name = topright;
position = "{1601, 1270}";
}
);
layerId = "0C29AA02-E021-4BD1-A2C4-87F681D64C35";
paths = (
{
closed = 1;
nodes = (
"1426 -32 OFFCURVE",
"1762 256 OFFCURVE",
"1762 750 CURVE SMOOTH",
"1762 1244 OFFCURVE",
"1426 1532 OFFCURVE",
"918 1532 CURVE SMOOTH",
"410 1532 OFFCURVE",
"74 1244 OFFCURVE",
"74 750 CURVE SMOOTH",
"74 256 OFFCURVE",
"410 -32 OFFCURVE",
"918 -32 CURVE SMOOTH"
);
},
{
closed = 1;
nodes = (
"681 162 OFFCURVE",
"546 374 OFFCURVE",
"546 750 CURVE SMOOTH",
"546 1127 OFFCURVE",
"681 1338 OFFCURVE",
"918 1338 CURVE SMOOTH",
"1156 1338 OFFCURVE",
"1290 1127 OFFCURVE",
"1290 750 CURVE SMOOTH",
"1290 374 OFFCURVE",
"1156 162 OFFCURVE",
"918 162 CURVE SMOOTH"
);
}
);
width = 1836;
},
{
anchors = (
{
name = bottom;
position = "{908, 0}";
},
{
name = ogonek;
position = "{1231, 0}";
},
{
name = top;
position = "{908, 1500}";
},
{
name = topleft;
position = "{20, 1500}";
},
{
name = topright;
position = "{1526, 1260}";
}
);
layerId = "2B88661E-23DD-4EDA-82FC-C2AEA983F097";
paths = (
{
closed = 1;
nodes = (
"1355 -34 OFFCURVE",
"1680 250 OFFCURVE",
"1680 750 CURVE SMOOTH",
"1680 1250 OFFCURVE",
"1355 1534 OFFCURVE",
"908 1534 CURVE SMOOTH",
"461 1534 OFFCURVE",
"136 1250 OFFCURVE",
"136 750 CURVE SMOOTH",
"136 250 OFFCURVE",
"461 -34 OFFCURVE",
"908 -34 CURVE SMOOTH"
);
},
{
closed = 1;
nodes = (
"482 18 OFFCURVE",
"198 294 OFFCURVE",
"198 750 CURVE SMOOTH",
"198 1206 OFFCURVE",
"482 1482 OFFCURVE",
"908 1482 CURVE SMOOTH",
"1334 1482 OFFCURVE",
"1618 1206 OFFCURVE",
"1618 750 CURVE SMOOTH",
"1618 294 OFFCURVE",
"1334 18 OFFCURVE",
"908 18 CURVE SMOOTH"
);
}
);
width = 1816;
}
);
leftKerningGroup = O;
rightKerningGroup = O;
unicode = 004F;
},
{
color = 8;
glyphname = OE;
lastChange = "2021-05-13 19:00:02 +0000";
layers = (
{
layerId = "1E61A082-F045-49A7-AB52-DD1B03FD9B54";
paths = (
{
closed = 1;
nodes = (
"1162 0 LINE",
"1162 38 LINE",
"884 38 LINE SMOOTH",
"450 38 OFFCURVE",
"166 315 OFFCURVE",
"166 750 CURVE SMOOTH",
"166 1185 OFFCURVE",
"450 1462 OFFCURVE",
"884 1462 CURVE SMOOTH",
"1162 1462 LINE",
"1162 1500 LINE",
"884 1500 LINE SMOOTH",
"422 1500 OFFCURVE",
"118 1225 OFFCURVE",
"118 750 CURVE SMOOTH",
"118 275 OFFCURVE",
"422 0 OFFCURVE",
"884 0 CURVE SMOOTH"
);
},
{
closed = 1;
nodes = (
"1210 0 LINE",
"1210 1500 LINE",
"1162 1500 LINE",
"1162 0 LINE"
);
},
{
closed = 1;
nodes = (
"2154 0 LINE",
"2154 38 LINE",
"1210 38 LINE",
"1210 0 LINE"
);
},
{
closed = 1;
nodes = (
"1750 308 LINE",
"1750 772 LINE",
"1594 772 LINE",
"1688 772 OFFCURVE",
"1712 748 OFFCURVE",
"1712 650 CURVE SMOOTH",
"1712 308 LINE"
);
},
{
closed = 1;
nodes = (
"1750 772 LINE",
"1750 810 LINE",
"1210 810 LINE",
"1210 772 LINE"
);
},
{
closed = 1;
nodes = (
"2154 38 LINE",
"2154 580 LINE",
"2114 580 LINE",
"2114 168 LINE SMOOTH",
"2114 64 OFFCURVE",
"2088 38 OFFCURVE",
"1988 38 CURVE"
);
},
{
closed = 1;
nodes = (
"1750 810 LINE",
"1750 1202 LINE",
"1712 1202 LINE",
"1712 932 LINE SMOOTH",
"1712 834 OFFCURVE",
"1688 810 OFFCURVE",
"1594 810 CURVE"
);
},
{
closed = 1;
nodes = (
"2136 1462 LINE",
"2136 1500 LINE",
"1210 1500 LINE",
"1210 1462 LINE"
);
},
{
closed = 1;
nodes = (
"2136 940 LINE",
"2136 1462 LINE",
"1970 1462 LINE",
"2070 1462 OFFCURVE",
"2096 1436 OFFCURVE",
"2096 1332 CURVE SMOOTH",
"2096 940 LINE"
);
}
);
width = 2306;
},
{
layerId = "219068EA-2B9B-40DC-949E-B60449C01B8A";
paths = (
{
closed = 1;
nodes = (
"1114 0 LINE",
"1114 224 LINE",
"980 224 LINE SMOOTH",
"717 224 OFFCURVE",
"544 426 OFFCURVE",
"544 750 CURVE SMOOTH",
"544 1074 OFFCURVE",
"717 1276 OFFCURVE",
"980 1276 CURVE SMOOTH",
"1114 1276 LINE",
"1114 1500 LINE",
"918 1500 LINE SMOOTH",
"416 1500 OFFCURVE",
"82 1230 OFFCURVE",
"82 750 CURVE SMOOTH",
"82 270 OFFCURVE",
"416 0 OFFCURVE",
"918 0 CURVE SMOOTH"
);
},
{
closed = 1;
nodes = (
"1534 0 LINE",
"1534 1500 LINE",
"1114 1500 LINE",
"1114 0 LINE"
);
},
{
closed = 1;
nodes = (
"2358 0 LINE",
"2358 224 LINE",
"1534 224 LINE",
"1534 0 LINE"
);
},
{
closed = 1;
nodes = (
"1939 364 LINE",
"1939 662 LINE",
"1543 662 LINE",
"1661 662 OFFCURVE",
"1715 592 OFFCURVE",
"1715 432 CURVE SMOOTH",
"1715 364 LINE"
);
},
{
closed = 1;
nodes = (
"1939 662 LINE",
"1939 882 LINE",
"1534 882 LINE",
"1534 662 LINE"
);
},
{
closed = 1;
nodes = (
"2358 224 LINE",
"2358 560 LINE",
"2126 560 LINE",
"2126 464 LINE SMOOTH",
"2126 294 OFFCURVE",
"2066 224 OFFCURVE",
"1906 224 CURVE"
);
},
{
closed = 1;
nodes = (
"1939 882 LINE",
"1939 1136 LINE",
"1715 1136 LINE",
"1715 1112 LINE SMOOTH",
"1715 952 OFFCURVE",
"1661 882 OFFCURVE",
"1543 882 CURVE"
);
},
{
closed = 1;
nodes = (
"2340 1276 LINE",
"2340 1500 LINE",
"1534 1500 LINE",
"1534 1276 LINE"
);
},
{
closed = 1;
nodes = (
"2340 960 LINE",
"2340 1276 LINE",
"1888 1276 LINE",
"2048 1276 OFFCURVE",
"2108 1206 OFFCURVE",
"2108 1036 CURVE SMOOTH",
"2108 960 LINE"
);
}
);
width = 2502;
},
{
layerId = "0C29AA02-E021-4BD1-A2C4-87F681D64C35";
paths = (
{
closed = 1;
nodes = (
"1046 0 LINE",
"1046 206 LINE",
"932 206 LINE SMOOTH",
"693 206 OFFCURVE",
"536 415 OFFCURVE",
"536 750 CURVE SMOOTH",
"536 1085 OFFCURVE",
"693 1294 OFFCURVE",
"932 1294 CURVE SMOOTH",
"1046 1294 LINE",
"1046 1500 LINE",
"870 1500 LINE SMOOTH",
"392 1500 OFFCURVE",
"74 1230 OFFCURVE",
"74 750 CURVE SMOOTH",
"74 270 OFFCURVE",
"392 0 OFFCURVE",
"870 0 CURVE SMOOTH"
);
},
{
closed = 1;
nodes = (
"1466 0 LINE",
"1466 1500 LINE",
"1046 1500 LINE",
"1046 0 LINE"
);
},
{
closed = 1;
nodes = (
"2216 0 LINE",
"2216 206 LINE",
"1466 206 LINE",
"1466 0 LINE"
);
},
{
closed = 1;
nodes = (
"1863 326 LINE",
"1863 670 LINE",
"1471 670 LINE",
"1614 670 OFFCURVE",
"1671 600 OFFCURVE",
"1671 440 CURVE SMOOTH",
"1671 326 LINE"
);
},
{
closed = 1;
nodes = (
"1863 670 LINE",
"1863 874 LINE",
"1466 874 LINE",
"1466 670 LINE"
);
},
{
closed = 1;
nodes = (
"2216 206 LINE",
"2216 580 LINE",
"2018 580 LINE",
"2018 446 LINE SMOOTH",
"2018 276 OFFCURVE",
"1958 206 OFFCURVE",
"1798 206 CURVE"
);
},
{
closed = 1;
nodes = (
"1863 874 LINE",
"1863 1174 LINE",
"1671 1174 LINE",
"1671 1104 LINE SMOOTH",
"1671 944 OFFCURVE",
"1614 874 OFFCURVE",
"1471 874 CURVE"
);
},
{
closed = 1;
nodes = (
"2202 1294 LINE",
"2202 1500 LINE",
"1466 1500 LINE",
"1466 1294 LINE"
);
},
{
closed = 1;
nodes = (
"2202 940 LINE",
"2202 1294 LINE",
"1784 1294 LINE",
"1944 1294 OFFCURVE",
"2004 1224 OFFCURVE",
"2004 1054 CURVE SMOOTH",
"2004 940 LINE"
);
}
);
width = 2342;
},
{
layerId = "2B88661E-23DD-4EDA-82FC-C2AEA983F097";
paths = (
{
closed = 1;
nodes = (
"1227 0 LINE",
"1227 50 LINE",
"926 50 LINE SMOOTH",
"486 50 OFFCURVE",
"198 323 OFFCURVE",
"198 750 CURVE SMOOTH",
"198 1177 OFFCURVE",
"486 1450 OFFCURVE",
"926 1450 CURVE SMOOTH",
"1227 1450 LINE",
"1227 1500 LINE",
"924 1500 LINE SMOOTH",
"449 1500 OFFCURVE",
"136 1225 OFFCURVE",
"136 750 CURVE SMOOTH",
"136 275 OFFCURVE",
"449 0 OFFCURVE",
"924 0 CURVE SMOOTH"
);
},
{
closed = 1;
nodes = (
"1288 0 LINE",
"1288 1500 LINE",
"1227 1500 LINE",
"1227 0 LINE"
);
},
{
closed = 1;
nodes = (
"2286 0 LINE",
"2286 50 LINE",
"1288 50 LINE",
"1288 0 LINE"
);
},
{
closed = 1;
nodes = (
"1824 364 LINE",
"1824 766 LINE",
"1655 766 LINE",
"1751 766 OFFCURVE",
"1776 741 OFFCURVE",
"1776 640 CURVE SMOOTH",
"1776 364 LINE"
);
},
{
closed = 1;
nodes = (
"1824 766 LINE",
"1824 816 LINE",
"1288 816 LINE",
"1288 766 LINE"
);
},
{
closed = 1;
nodes = (
"2286 50 LINE",
"2286 521 LINE",
"2236 521 LINE",
"2236 184 LINE SMOOTH",
"2236 78 OFFCURVE",
"2208 50 OFFCURVE",
"2106 50 CURVE"
);
},
{
closed = 1;
nodes = (
"1824 816 LINE",
"1824 1146 LINE",
"1776 1146 LINE",
"1776 942 LINE SMOOTH",
"1776 842 OFFCURVE",
"1751 816 OFFCURVE",
"1655 816 CURVE"
);
},
{
closed = 1;
nodes = (
"2268 1450 LINE",
"2268 1500 LINE",
"1288 1500 LINE",
"1288 1450 LINE"
);
},
{
closed = 1;
nodes = (
"2268 999 LINE",
"2268 1450 LINE",
"2088 1450 LINE",
"2190 1450 OFFCURVE",
"2218 1422 OFFCURVE",
"2218 1316 CURVE SMOOTH",
"2218 999 LINE"
);
}
);
width = 2446;
}
);
leftKerningGroup = O;
leftMetricsKey = O;
rightKerningGroup = E;
rightMetricsKey = E;
unicode = 0152;
},
{
color = 8;
glyphname = P;
lastChange = "2021-06-09 00:29:52 +0000";
layers = (
{
anchors = (
{
name = bottom;
position = "{719, 0}";
},
{
name = top;
position = "{719, 1500}";
}
);
hints = (
{
origin = "{0, 3}";
scale = "{1.1, 1}";
type = Corner;
name = _corner.Serif;
options = 1;
},
{
origin = "{0, 0}";
scale = "{-1.9, 1}";
type = Corner;
name = _corner.Serif;
},
{
origin = "{0, 2}";
scale = "{-1.08, 1}";
type = Corner;
name = _corner.Serif;
}
);
layerId = "1E61A082-F045-49A7-AB52-DD1B03FD9B54";
paths = (
{
closed = 1;
nodes = (
"349 0 LINE",
"349 1500 LINE",
"301 1500 LINE",
"301 0 LINE"
);
},
{
closed = 1;
nodes = (
"867 682 LINE SMOOTH",
"1149 682 OFFCURVE",
"1337 820 OFFCURVE",
"1337 1091 CURVE SMOOTH",
"1337 1362 OFFCURVE",
"1149 1500 OFFCURVE",
"867 1500 CURVE SMOOTH",
"349 1500 LINE",
"349 1462 LINE",
"855 1462 LINE SMOOTH",
"1121 1462 OFFCURVE",
"1289 1337 OFFCURVE",
"1289 1091 CURVE SMOOTH",
"1289 845 OFFCURVE",
"1121 720 OFFCURVE",
"855 720 CURVE SMOOTH",
"349 720 LINE",
"349 682 LINE"
);
}
);
width = 1435;
},
{
anchors = (
{
name = bottom;
position = "{817, 0}";
},
{
name = top;
position = "{817, 1500}";
}
);
hints = (
{
origin = "{0, 3}";
scale = "{1.1, 1}";
type = Corner;
name = _corner.Serif;
options = 1;
},
{
origin = "{0, 0}";
scale = "{-1.8, 1}";
type = Corner;
name = _corner.Serif;
},
{
origin = "{0, 2}";
scale = "{-1.08, 1}";
type = Corner;
name = _corner.Serif;
}
);
layerId = "219068EA-2B9B-40DC-949E-B60449C01B8A";
paths = (
{
closed = 1;
nodes = (
"657 0 LINE",
"657 1500 LINE",
"237 1500 LINE",
"237 0 LINE"
);
},
{
closed = 1;
nodes = (
"1039 598 LINE SMOOTH",
"1372 598 OFFCURVE",
"1592 749 OFFCURVE",
"1592 1049 CURVE SMOOTH",
"1592 1349 OFFCURVE",
"1372 1500 OFFCURVE",
"1039 1500 CURVE SMOOTH",
"657 1500 LINE",
"657 1280 LINE",
"897 1280 LINE SMOOTH",
"1062 1280 OFFCURVE",
"1162 1206 OFFCURVE",
"1162 1049 CURVE SMOOTH",
"1162 892 OFFCURVE",
"1062 818 OFFCURVE",
"897 818 CURVE SMOOTH",
"657 818 LINE",
"657 598 LINE"
);
}
);
width = 1662;
},
{
anchors = (
{
name = bottom;
position = "{756, 0}";
},
{
name = top;
position = "{756, 1500}";
}
);
hints = (
{
origin = "{0, 3}";
scale = "{1.1, 1}";
type = Corner;
name = _corner.Serif;
options = 1;
},
{
origin = "{0, 0}";
scale = "{-2.2, 1}";
type = Corner;
name = _corner.Serif;
},
{
origin = "{0, 2}";
scale = "{-1.08, 0.98}";
type = Corner;
name = _corner.Serif;
}
);
layerId = "0C29AA02-E021-4BD1-A2C4-87F681D64C35";
paths = (
{
closed = 1;
nodes = (
"650 0 LINE",
"650 1500 LINE",
"230 1500 LINE",
"230 0 LINE"
);
},
{
closed = 1;
nodes = (
"997 638 LINE SMOOTH",
"1318 638 OFFCURVE",
"1530 783 OFFCURVE",
"1530 1069 CURVE SMOOTH",
"1530 1355 OFFCURVE",
"1318 1500 OFFCURVE",
"997 1500 CURVE SMOOTH",
"650 1500 LINE",
"650 1300 LINE",
"845 1300 LINE SMOOTH",
"1004 1300 OFFCURVE",
"1102 1223 OFFCURVE",
"1102 1069 CURVE SMOOTH",
"1102 915 OFFCURVE",
"1004 838 OFFCURVE",
"845 838 CURVE SMOOTH",
"650 838 LINE",
"650 638 LINE"
);
}
);
width = 1566;
},
{
anchors = (
{
name = bottom;
position = "{749, 0}";
},
{
name = top;
position = "{749, 1500}";
}
);
hints = (
{
origin = "{0, 3}";
scale = "{1.1, 1}";
type = Corner;
name = _corner.Serif;
options = 1;
},
{
origin = "{0, 0}";
scale = "{-1.607, 1}";
type = Corner;
name = _corner.Serif;
},
{
origin = "{0, 2}";
scale = "{-1.08, 1}";
type = Corner;
name = _corner.Serif;
}
);
layerId = "2B88661E-23DD-4EDA-82FC-C2AEA983F097";
paths = (
{
closed = 1;
nodes = (
"369 0 LINE",
"369 1500 LINE",
"309 1500 LINE",
"309 0 LINE"
);
},
{
closed = 1;
nodes = (
"916 660 LINE SMOOTH",
"1211 660 OFFCURVE",
"1408 801 OFFCURVE",
"1408 1080 CURVE SMOOTH",
"1408 1359 OFFCURVE",
"1211 1500 OFFCURVE",
"916 1500 CURVE SMOOTH",
"369 1500 LINE",
"369 1450 LINE",
"899 1450 LINE SMOOTH",
"1173 1450 OFFCURVE",
"1346 1326 OFFCURVE",
"1346 1080 CURVE SMOOTH",
"1346 834 OFFCURVE",
"1173 710 OFFCURVE",
"899 710 CURVE SMOOTH",
"369 710 LINE",
"369 660 LINE"
);
}
);
width = 1520;
}
);
leftKerningGroup = I;
leftMetricsKey = H;
rightKerningGroup = P;
unicode = 0050;
},
{
color = 8;
glyphname = Thorn;
lastChange = "2021-06-09 00:33:13 +0000";
layers = (
{
hints = (
{
origin = "{0, 2}";
scale = "{-1.18, 1}";
type = Corner;
name = _corner.Serif;
},
{
origin = "{0, 3}";
scale = "{1.2, 1}";
type = Corner;
name = _corner.Serif;
options = 1;
},
{
origin = "{0, 0}";
scale = "{-1.2, 1}";
type = Corner;
name = _corner.Serif;
},
{
origin = "{0, 1}";
scale = "{1.18, 1}";
type = Corner;
name = _corner.Serif;
}
);
layerId = "1E61A082-F045-49A7-AB52-DD1B03FD9B54";
paths = (
{
closed = 1;
nodes = (
"366 0 LINE",
"366 1500 LINE",
"318 1500 LINE",
"318 0 LINE"
);
},
{
closed = 1;
nodes = (
"884 364 LINE SMOOTH",
"1166 364 OFFCURVE",
"1354 502 OFFCURVE",
"1354 773 CURVE SMOOTH",
"1354 1044 OFFCURVE",
"1166 1182 OFFCURVE",
"884 1182 CURVE SMOOTH",
"366 1182 LINE",
"366 1144 LINE",
"872 1144 LINE SMOOTH",
"1138 1144 OFFCURVE",
"1306 1019 OFFCURVE",
"1306 773 CURVE SMOOTH",
"1306 527 OFFCURVE",
"1138 402 OFFCURVE",
"872 402 CURVE SMOOTH",
"366 402 LINE",
"366 364 LINE"
);
}
);
width = 1452;
},
{
hints = (
{
origin = "{0, 2}";
scale = "{-1.18, 1}";
type = Corner;
name = _corner.Serif;
},
{
origin = "{0, 3}";
scale = "{1.2, 1}";
type = Corner;
name = _corner.Serif;
options = 1;
},
{
origin = "{0, 0}";
scale = "{-1.2, 1}";
type = Corner;
name = _corner.Serif;
},
{
origin = "{0, 1}";
scale = "{1.18, 1}";
type = Corner;
name = _corner.Serif;
}
);
layerId = "219068EA-2B9B-40DC-949E-B60449C01B8A";
paths = (
{
closed = 1;
nodes = (
"658 0 LINE",
"658 1500 LINE",
"238 1500 LINE",
"238 0 LINE"
);
},
{
closed = 1;
nodes = (
"1040 349 LINE SMOOTH",
"1349 349 OFFCURVE",
"1553 487 OFFCURVE",
"1553 760 CURVE SMOOTH",
"1553 1033 OFFCURVE",
"1349 1171 OFFCURVE",
"1040 1171 CURVE SMOOTH",
"658 1171 LINE",
"658 947 LINE",
"904 947 LINE SMOOTH",
"1040 947 OFFCURVE",
"1123 887 OFFCURVE",
"1123 760 CURVE SMOOTH",
"1123 633 OFFCURVE",
"1040 573 OFFCURVE",
"904 573 CURVE SMOOTH",
"658 573 LINE",
"658 349 LINE"
);
}
);
width = 1623;
},
{
hints = (
{
origin = "{0, 2}";
scale = "{-1.18, 0.98}";
type = Corner;
name = _corner.Serif;
},
{
origin = "{0, 3}";
scale = "{1.2, 1}";
type = Corner;
name = _corner.Serif;
options = 1;
},
{
origin = "{0, 0}";
scale = "{-1.2, 1}";
type = Corner;
name = _corner.Serif;
},
{
origin = "{0, 1}";
scale = "{1.18, 0.98}";
type = Corner;
name = _corner.Serif;
}
);
layerId = "0C29AA02-E021-4BD1-A2C4-87F681D64C35";
rightMetricsKey = "=P-26";
paths = (
{
closed = 1;
nodes = (
"664 0 LINE",
"664 1500 LINE",
"244 1500 LINE",
"244 0 LINE"
);
},
{
closed = 1;
nodes = (
"960 358 LINE SMOOTH",
"1263 358 OFFCURVE",
"1463 493 OFFCURVE",
"1463 759 CURVE SMOOTH",
"1463 1025 OFFCURVE",
"1263 1160 OFFCURVE",
"960 1160 CURVE SMOOTH",
"664 1160 LINE",
"664 954 LINE",
"810 954 LINE SMOOTH",
"948 954 OFFCURVE",
"1033 891 OFFCURVE",
"1033 759 CURVE SMOOTH",
"1033 627 OFFCURVE",
"948 564 OFFCURVE",
"810 564 CURVE SMOOTH",
"664 564 LINE",
"664 358 LINE"
);
}
);
width = 1473;
},
{
hints = (
{
origin = "{0, 2}";
scale = "{-1.18, 1}";
type = Corner;
name = _corner.Serif;
},
{
origin = "{0, 3}";
scale = "{1.2, 1}";
type = Corner;
name = _corner.Serif;
options = 1;
},
{
origin = "{0, 0}";
scale = "{-1.2, 1}";
type = Corner;
name = _corner.Serif;
},
{
origin = "{0, 1}";
scale = "{1.18, 1}";
type = Corner;
name = _corner.Serif;
}
);
layerId = "2B88661E-23DD-4EDA-82FC-C2AEA983F097";
paths = (
{
closed = 1;
nodes = (
"385 0 LINE",
"385 1500 LINE",
"325 1500 LINE",
"325 0 LINE"
);
},
{
closed = 1;
nodes = (
"931 354 LINE SMOOTH",
"1225 354 OFFCURVE",
"1422 495 OFFCURVE",
"1422 773 CURVE SMOOTH",
"1422 1050 OFFCURVE",
"1225 1191 OFFCURVE",
"931 1191 CURVE SMOOTH",
"385 1191 LINE",
"385 1141 LINE",
"915 1141 LINE SMOOTH",
"1188 1141 OFFCURVE",
"1360 1017 OFFCURVE",
"1360 773 CURVE SMOOTH",
"1360 528 OFFCURVE",
"1188 404 OFFCURVE",
"915 404 CURVE SMOOTH",
"385 404 LINE",
"385 354 LINE"
);
}
);
width = 1534;
}
);
leftKerningGroup = I;
leftMetricsKey = I;
rightMetricsKey = P;
unicode = 00DE;
},
{
color = 8;
glyphname = Q;
lastChange = "2021-05-13 19:17:50 +0000";
layers = (
{
anchors = (
{
name = bottom;
position = "{846, 0}";
},
{
name = top;
position = "{846, 1500}";
}
);
layerId = "1E61A082-F045-49A7-AB52-DD1B03FD9B54";
paths = (
{
closed = 1;
nodes = (
"1266 -24 OFFCURVE",
"1574 260 OFFCURVE",
"1574 750 CURVE SMOOTH",
"1574 1240 OFFCURVE",
"1266 1524 OFFCURVE",
"846 1524 CURVE SMOOTH",
"426 1524 OFFCURVE",
"118 1240 OFFCURVE",
"118 750 CURVE SMOOTH",
"118 260 OFFCURVE",
"426 -24 OFFCURVE",
"846 -24 CURVE SMOOTH"
);
},
{
closed = 1;
nodes = (
"438 14 OFFCURVE",
"166 304 OFFCURVE",
"166 750 CURVE SMOOTH",
"166 1196 OFFCURVE",
"438 1486 OFFCURVE",
"846 1486 CURVE SMOOTH",
"1254 1486 OFFCURVE",
"1526 1196 OFFCURVE",
"1526 750 CURVE SMOOTH",
"1526 304 OFFCURVE",
"1254 14 OFFCURVE",
"846 14 CURVE SMOOTH"
);
},
{
closed = 1;
nodes = (
"748 0 LINE",
"748 196 LINE SMOOTH",
"748 320 OFFCURVE",
"802 382 OFFCURVE",
"898 382 CURVE SMOOTH",
"993 382 OFFCURVE",
"1046 320 OFFCURVE",
"1046 196 CURVE SMOOTH",
"1046 0 LINE",
"1090 0 LINE",
"1090 196 LINE SMOOTH",
"1090 345 OFFCURVE",
"1014 420 OFFCURVE",
"902 420 CURVE SMOOTH",
"789 420 OFFCURVE",
"708 345 OFFCURVE",
"708 196 CURVE SMOOTH",
"708 0 LINE"
);
},
{
closed = 1;
nodes = (
"1355 -340 OFFCURVE",
"1432 -265 OFFCURVE",
"1432 -116 CURVE SMOOTH",
"1432 0 LINE",
"1392 0 LINE",
"1392 -116 LINE SMOOTH",
"1392 -240 OFFCURVE",
"1337 -302 OFFCURVE",
"1240 -302 CURVE SMOOTH",
"1144 -302 OFFCURVE",
"1090 -240 OFFCURVE",
"1090 -116 CURVE SMOOTH",
"1090 0 LINE",
"1046 0 LINE",
"1046 -116 LINE SMOOTH",
"1046 -265 OFFCURVE",
"1128 -340 OFFCURVE",
"1242 -340 CURVE SMOOTH"
);
}
);
width = 1692;
},
{
anchors = (
{
name = bottom;
position = "{966, 0}";
},
{
name = top;
position = "{966, 1500}";
}
);
layerId = "219068EA-2B9B-40DC-949E-B60449C01B8A";
paths = (
{
closed = 1;
nodes = (
"1500 -36 OFFCURVE",
"1850 248 OFFCURVE",
"1850 750 CURVE SMOOTH",
"1850 1252 OFFCURVE",
"1500 1536 OFFCURVE",
"966 1536 CURVE SMOOTH",
"432 1536 OFFCURVE",
"82 1252 OFFCURVE",
"82 750 CURVE SMOOTH",
"82 248 OFFCURVE",
"432 -36 OFFCURVE",
"966 -36 CURVE SMOOTH"
);
},
{
closed = 1;
nodes = (
"700 198 OFFCURVE",
"540 396 OFFCURVE",
"540 750 CURVE SMOOTH",
"540 1105 OFFCURVE",
"700 1302 OFFCURVE",
"966 1302 CURVE SMOOTH",
"1233 1302 OFFCURVE",
"1392 1105 OFFCURVE",
"1392 750 CURVE SMOOTH",
"1392 396 OFFCURVE",
"1233 198 OFFCURVE",
"966 198 CURVE SMOOTH"
);
},
{
closed = 1;
nodes = (
"880 67 LINE",
"880 419 LINE SMOOTH",
"880 452 OFFCURVE",
"895 471 OFFCURVE",
"924 471 CURVE SMOOTH",
"953 471 OFFCURVE",
"968 452 OFFCURVE",
"968 419 CURVE SMOOTH",
"968 0 LINE",
"1242 0 LINE",
"1242 385 LINE SMOOTH",
"1242 578 OFFCURVE",
"1138 677 OFFCURVE",
"970 677 CURVE SMOOTH",
"802 677 OFFCURVE",
"698 578 OFFCURVE",
"698 385 CURVE SMOOTH",
"698 67 LINE"
);
},
{
closed = 1;
nodes = (
"1398 -380 OFFCURVE",
"1500 -285 OFFCURVE",
"1500 -98 CURVE SMOOTH",
"1500 -40 LINE",
"1330 -40 LINE",
"1330 -132 LINE SMOOTH",
"1330 -165 OFFCURVE",
"1315 -184 OFFCURVE",
"1286 -184 CURVE SMOOTH",
"1257 -184 OFFCURVE",
"1242 -165 OFFCURVE",
"1242 -132 CURVE SMOOTH",
"1242 0 LINE",
"968 0 LINE",
"968 -98 LINE SMOOTH",
"968 -285 OFFCURVE",
"1070 -380 OFFCURVE",
"1234 -380 CURVE SMOOTH"
);
}
);
width = 1932;
},
{
anchors = (
{
name = bottom;
position = "{918, 0}";
},
{
name = top;
position = "{918, 1500}";
}
);
layerId = "0C29AA02-E021-4BD1-A2C4-87F681D64C35";
paths = (
{
closed = 1;
nodes = (
"1426 -32 OFFCURVE",
"1762 256 OFFCURVE",
"1762 750 CURVE SMOOTH",
"1762 1244 OFFCURVE",
"1426 1532 OFFCURVE",
"918 1532 CURVE SMOOTH",
"410 1532 OFFCURVE",
"74 1244 OFFCURVE",
"74 750 CURVE SMOOTH",
"74 256 OFFCURVE",
"410 -32 OFFCURVE",
"918 -32 CURVE SMOOTH"
);
},
{
closed = 1;
nodes = (
"659 156 OFFCURVE",
"522 372 OFFCURVE",
"522 748 CURVE SMOOTH",
"522 1125 OFFCURVE",
"659 1338 OFFCURVE",
"918 1338 CURVE SMOOTH",
"1178 1338 OFFCURVE",
"1314 1125 OFFCURVE",
"1314 748 CURVE SMOOTH",
"1314 351 OFFCURVE",
"1178 156 OFFCURVE",
"918 156 CURVE SMOOTH"
);
},
{
closed = 1;
nodes = (
"828 67 LINE",
"828 417 LINE SMOOTH",
"828 450 OFFCURVE",
"846 471 OFFCURVE",
"876 471 CURVE SMOOTH",
"906 471 OFFCURVE",
"924 450 OFFCURVE",
"924 417 CURVE SMOOTH",
"924 0 LINE",
"1194 0 LINE",
"1194 385 LINE SMOOTH",
"1194 578 OFFCURVE",
"1090 677 OFFCURVE",
"922 677 CURVE SMOOTH",
"754 677 OFFCURVE",
"650 578 OFFCURVE",
"650 385 CURVE SMOOTH",
"650 67 LINE"
);
},
{
closed = 1;
nodes = (
"1354 -380 OFFCURVE",
"1452 -285 OFFCURVE",
"1452 -98 CURVE SMOOTH",
"1452 -38 LINE",
"1286 -38 LINE",
"1286 -132 LINE SMOOTH",
"1286 -165 OFFCURVE",
"1270 -184 OFFCURVE",
"1240 -184 CURVE SMOOTH",
"1210 -184 OFFCURVE",
"1194 -165 OFFCURVE",
"1194 -132 CURVE SMOOTH",
"1194 0 LINE",
"924 0 LINE",
"924 -98 LINE SMOOTH",
"924 -285 OFFCURVE",
"1026 -380 OFFCURVE",
"1190 -380 CURVE SMOOTH"
);
}
);
width = 1836;
},
{
anchors = (
{
name = bottom;
position = "{908, 0}";
},
{
name = top;
position = "{908, 1500}";
}
);
layerId = "2B88661E-23DD-4EDA-82FC-C2AEA983F097";
paths = (
{
closed = 1;
nodes = (
"1355 -34 OFFCURVE",
"1680 250 OFFCURVE",
"1680 750 CURVE SMOOTH",
"1680 1250 OFFCURVE",
"1355 1534 OFFCURVE",
"908 1534 CURVE SMOOTH",
"461 1534 OFFCURVE",
"136 1250 OFFCURVE",
"136 750 CURVE SMOOTH",
"136 250 OFFCURVE",
"461 -34 OFFCURVE",
"908 -34 CURVE SMOOTH"
);
},
{
closed = 1;
nodes = (
"482 18 OFFCURVE",
"198 294 OFFCURVE",
"198 750 CURVE SMOOTH",
"198 1206 OFFCURVE",
"482 1482 OFFCURVE",
"908 1482 CURVE SMOOTH",
"1334 1482 OFFCURVE",
"1618 1206 OFFCURVE",
"1618 750 CURVE SMOOTH",
"1618 294 OFFCURVE",
"1334 18 OFFCURVE",
"908 18 CURVE SMOOTH"
);
},
{
closed = 1;
nodes = (
"820 2 LINE",
"820 258 LINE SMOOTH",
"820 375 OFFCURVE",
"870 435 OFFCURVE",
"959 435 CURVE SMOOTH",
"1049 435 OFFCURVE",
"1100 375 OFFCURVE",
"1100 258 CURVE SMOOTH",
"1100 0 LINE",
"1154 0 LINE",
"1154 257 LINE SMOOTH",
"1154 407 OFFCURVE",
"1081 483 OFFCURVE",
"962 483 CURVE SMOOTH",
"844 483 OFFCURVE",
"766 407 OFFCURVE",
"766 257 CURVE SMOOTH",
"766 2 LINE"
);
},
{
closed = 1;
nodes = (
"1419 -422 OFFCURVE",
"1494 -347 OFFCURVE",
"1494 -196 CURVE SMOOTH",
"1494 -82 LINE",
"1440 -82 LINE",
"1440 -198 LINE SMOOTH",
"1440 -314 OFFCURVE",
"1388 -374 OFFCURVE",
"1298 -374 CURVE SMOOTH",
"1206 -374 OFFCURVE",
"1154 -314 OFFCURVE",
"1154 -198 CURVE SMOOTH",
"1154 0 LINE",
"1100 0 LINE",
"1100 -196 LINE SMOOTH",
"1100 -347 OFFCURVE",
"1181 -422 OFFCURVE",
"1300 -422 CURVE SMOOTH"
);
}
);
width = 1816;
}
);
leftKerningGroup = O;
leftMetricsKey = O;
rightKerningGroup = O;
rightMetricsKey = O;
unicode = 0051;
},
{
color = 8;
glyphname = R;
lastChange = "2021-05-13 18:45:22 +0000";
layers = (
{
anchors = (
{
name = bottom;
position = "{769, 0}";
},
{
name = top;
position = "{769, 1500}";
}
);
hints = (
{
origin = "{0, 3}";
scale = "{1.1, 1}";
type = Corner;
name = _corner.Serif;
options = 1;
},
{
origin = "{0, 0}";
scale = "{-1.4, 1}";
type = Corner;
name = _corner.Serif;
},
{
origin = "{0, 2}";
scale = "{-1.08, 1}";
type = Corner;
name = _corner.Serif;
}
);
layerId = "1E61A082-F045-49A7-AB52-DD1B03FD9B54";
paths = (
{
closed = 1;
nodes = (
"349 0 LINE",
"349 1500 LINE",
"301 1500 LINE",
"301 0 LINE"
);
},
{
closed = 1;
nodes = (
"1330 -20 OFFCURVE",
"1389 62 OFFCURVE",
"1389 190 CURVE SMOOTH",
"1389 584 LINE",
"1349 584 LINE",
"1349 190 LINE SMOOTH",
"1349 94 OFFCURVE",
"1307 18 OFFCURVE",
"1207 18 CURVE SMOOTH",
"1105 18 OFFCURVE",
"1065 94 OFFCURVE",
"1065 190 CURVE SMOOTH",
"1065 372 LINE SMOOTH",
"1065 611 OFFCURVE",
"957 741 OFFCURVE",
"693 741 CURVE SMOOTH",
"349 741 LINE",
"349 722 LINE",
"675 722 LINE SMOOTH",
"895 722 OFFCURVE",
"1017 599 OFFCURVE",
"1017 380 CURVE SMOOTH",
"1017 190 LINE SMOOTH",
"1017 62 OFFCURVE",
"1076 -20 OFFCURVE",
"1203 -20 CURVE SMOOTH"
);
},
{
closed = 1;
nodes = (
"785 722 LINE",
"797 726 LINE",
"921 726 LINE SMOOTH",
"1193 726 OFFCURVE",
"1381 853 OFFCURVE",
"1381 1111 CURVE SMOOTH",
"1381 1369 OFFCURVE",
"1193 1500 OFFCURVE",
"921 1500 CURVE SMOOTH",
"349 1500 LINE",
"349 1462 LINE",
"909 1462 LINE SMOOTH",
"1169 1462 OFFCURVE",
"1333 1344 OFFCURVE",
"1333 1111 CURVE SMOOTH",
"1333 878 OFFCURVE",
"1169 760 OFFCURVE",
"909 760 CURVE SMOOTH",
"349 760 LINE",
"349 722 LINE"
);
}
);
width = 1527;
},
{
anchors = (
{
name = bottom;
position = "{878, 0}";
},
{
name = top;
position = "{866, 1500}";
}
);
hints = (
{
origin = "{0, 3}";
scale = "{1.1, 1}";
type = Corner;
name = _corner.Serif;
options = 1;
},
{
origin = "{0, 0}";
scale = "{-1, 1}";
type = Corner;
name = _corner.Serif;
},
{
origin = "{0, 2}";
scale = "{-1.08, 1}";
type = Corner;
name = _corner.Serif;
}
);
layerId = "219068EA-2B9B-40DC-949E-B60449C01B8A";
paths = (
{
closed = 1;
nodes = (
"657 0 LINE",
"657 1508 LINE",
"237 1508 LINE",
"237 0 LINE"
);
},
{
closed = 1;
nodes = (
"1567 -18 OFFCURVE",
"1685 133 OFFCURVE",
"1685 362 CURVE SMOOTH",
"1685 607 LINE",
"1453 607 LINE",
"1453 318 LINE SMOOTH",
"1453 263 OFFCURVE",
"1433 230 OFFCURVE",
"1379 230 CURVE SMOOTH",
"1325 230 OFFCURVE",
"1305 263 OFFCURVE",
"1305 318 CURVE SMOOTH",
"1305 365 LINE SMOOTH",
"1305 578 OFFCURVE",
"1221 702 OFFCURVE",
"987 701 CURVE SMOOTH",
"657 700 LINE",
"657 650 LINE",
"694 650 LINE SMOOTH",
"820 650 OFFCURVE",
"872 611 OFFCURVE",
"883 463 CURVE SMOOTH",
"890 370 LINE SMOOTH",
"908 133 OFFCURVE",
"1024 -18 OFFCURVE",
"1298 -18 CURVE SMOOTH"
);
},
{
closed = 1;
nodes = (
"906 650 LINE",
"960 696 LINE",
"1099 696 LINE SMOOTH",
"1418 696 OFFCURVE",
"1630 834 OFFCURVE",
"1630 1104 CURVE SMOOTH",
"1630 1372 OFFCURVE",
"1414 1508 OFFCURVE",
"1089 1508 CURVE SMOOTH",
"657 1508 LINE",
"657 1288 LINE",
"949 1288 LINE SMOOTH",
"1104 1288 OFFCURVE",
"1200 1220 OFFCURVE",
"1200 1079 CURVE SMOOTH",
"1200 938 OFFCURVE",
"1104 870 OFFCURVE",
"949 870 CURVE SMOOTH",
"657 870 LINE",
"657 650 LINE"
);
}
);
width = 1763;
},
{
anchors = (
{
name = bottom;
position = "{836, 0}";
},
{
name = top;
position = "{812, 1500}";
}
);
hints = (
{
origin = "{0, 3}";
scale = "{1.1, 1}";
type = Corner;
name = _corner.Serif;
options = 1;
},
{
origin = "{0, 0}";
scale = "{-0.96, 1}";
type = Corner;
name = _corner.Serif;
},
{
origin = "{0, 2}";
scale = "{-1.08, 0.98}";
type = Corner;
name = _corner.Serif;
}
);
layerId = "0C29AA02-E021-4BD1-A2C4-87F681D64C35";
paths = (
{
closed = 1;
nodes = (
"650 0 LINE",
"650 1500 LINE",
"230 1500 LINE",
"230 0 LINE"
);
},
{
closed = 1;
nodes = (
"1504 -22 OFFCURVE",
"1590 121 OFFCURVE",
"1590 342 CURVE SMOOTH",
"1590 673 LINE",
"1386 673 LINE",
"1386 336 LINE SMOOTH",
"1386 275 OFFCURVE",
"1359 248 OFFCURVE",
"1315 248 CURVE SMOOTH",
"1274 248 OFFCURVE",
"1246 275 OFFCURVE",
"1246 336 CURVE SMOOTH",
"1246 357 LINE SMOOTH",
"1246 630 OFFCURVE",
"1115 720 OFFCURVE",
"852 720 CURVE SMOOTH",
"650 720 LINE",
"650 654 LINE",
"673 654 LINE SMOOTH",
"779 654 OFFCURVE",
"814 603 OFFCURVE",
"838 469 CURVE SMOOTH",
"856 369 LINE SMOOTH",
"898 133 OFFCURVE",
"995 -22 OFFCURVE",
"1253 -22 CURVE SMOOTH"
);
},
{
closed = 1;
nodes = (
"757 654 LINE",
"818 720 LINE",
"1032 720 LINE SMOOTH",
"1351 720 OFFCURVE",
"1562 845 OFFCURVE",
"1562 1102 CURVE SMOOTH",
"1562 1370 OFFCURVE",
"1350 1500 OFFCURVE",
"1031 1500 CURVE SMOOTH",
"650 1500 LINE",
"650 1300 LINE",
"879 1300 LINE SMOOTH",
"1036 1300 OFFCURVE",
"1134 1227 OFFCURVE",
"1134 1079 CURVE SMOOTH",
"1134 931 OFFCURVE",
"1036 858 OFFCURVE",
"879 858 CURVE SMOOTH",
"650 858 LINE",
"650 654 LINE"
);
}
);
width = 1670;
},
{
anchors = (
{
name = bottom;
position = "{806, 0}";
},
{
name = top;
position = "{803, 1500}";
}
);
hints = (
{
origin = "{0, 3}";
scale = "{1.1, 1}";
type = Corner;
name = _corner.Serif;
options = 1;
},
{
origin = "{0, 0}";
scale = "{-1.386, 1}";
type = Corner;
name = _corner.Serif;
},
{
origin = "{0, 2}";
scale = "{-1.08, 1}";
type = Corner;
name = _corner.Serif;
}
);
layerId = "2B88661E-23DD-4EDA-82FC-C2AEA983F097";
paths = (
{
closed = 1;
nodes = (
"369 0 LINE",
"369 1500 LINE",
"309 1500 LINE",
"309 0 LINE"
);
},
{
closed = 1;
nodes = (
"1416 -20 OFFCURVE",
"1486 76 OFFCURVE",
"1486 225 CURVE SMOOTH",
"1486 542 LINE",
"1434 542 LINE",
"1434 223 LINE SMOOTH",
"1434 116 OFFCURVE",
"1386 32 OFFCURVE",
"1269 32 CURVE SMOOTH",
"1149 32 OFFCURVE",
"1102 116 OFFCURVE",
"1102 223 CURVE SMOOTH",
"1102 339 LINE SMOOTH",
"1102 592 OFFCURVE",
"991 719 OFFCURVE",
"732 719 CURVE SMOOTH",
"369 719 LINE",
"369 696 LINE",
"705 696 LINE SMOOTH",
"907 696 OFFCURVE",
"1044 572 OFFCURVE",
"1044 350 CURVE SMOOTH",
"1044 225 LINE SMOOTH",
"1044 76 OFFCURVE",
"1113 -20 OFFCURVE",
"1264 -20 CURVE SMOOTH"
);
},
{
closed = 1;
nodes = (
"838 696 LINE",
"845 701 LINE",
"972 701 LINE SMOOTH",
"1259 701 OFFCURVE",
"1457 833 OFFCURVE",
"1457 1099 CURVE SMOOTH",
"1457 1365 OFFCURVE",
"1261 1500 OFFCURVE",
"975 1500 CURVE SMOOTH",
"369 1500 LINE",
"369 1450 LINE",
"959 1450 LINE SMOOTH",
"1227 1450 OFFCURVE",
"1395 1332 OFFCURVE",
"1395 1098 CURVE SMOOTH",
"1395 865 OFFCURVE",
"1227 746 OFFCURVE",
"959 746 CURVE SMOOTH",
"369 746 LINE",
"369 696 LINE"
);
}
);
width = 1612;
}
);
leftKerningGroup = I;
leftMetricsKey = H;
rightKerningGroup = R;
unicode = 0052;
},
{
color = 8;
glyphname = S;
lastChange = "2021-06-02 08:39:58 +0000";
layers = (
{
anchors = (
{
name = bottom;
position = "{792, 0}";
},
{
name = top;
position = "{716, 1500}";
}
);
layerId = "1E61A082-F045-49A7-AB52-DD1B03FD9B54";
paths = (
{
closed = 1;
nodes = (
"1131 -24 OFFCURVE",
"1314 106 OFFCURVE",
"1314 371 CURVE SMOOTH",
"1314 638 OFFCURVE",
"1120 724 OFFCURVE",
"856 772 CURVE SMOOTH",
"648 810 LINE SMOOTH",
"419 852 OFFCURVE",
"250 922 OFFCURVE",
"250 1149 CURVE SMOOTH",
"250 1370 OFFCURVE",
"402 1484 OFFCURVE",
"664 1484 CURVE SMOOTH",
"920 1484 OFFCURVE",
"1134 1336 OFFCURVE",
"1228 990 CURVE",
"1261 990 LINE",
"1184 1374 OFFCURVE",
"936 1524 OFFCURVE",
"664 1524 CURVE SMOOTH",
"386 1524 OFFCURVE",
"202 1406 OFFCURVE",
"202 1149 CURVE SMOOTH",
"202 890 OFFCURVE",
"393 812 OFFCURVE",
"640 767 CURVE SMOOTH",
"848 729 LINE SMOOTH",
"1078 687 OFFCURVE",
"1266 614 OFFCURVE",
"1266 371 CURVE SMOOTH",
"1266 142 OFFCURVE",
"1111 16 OFFCURVE",
"846 16 CURVE SMOOTH",
"574 16 OFFCURVE",
"341 178 OFFCURVE",
"234 530 CURVE",
"200 530 LINE",
"294 139 OFFCURVE",
"554 -24 OFFCURVE",
"846 -24 CURVE SMOOTH"
);
},
{
closed = 1;
nodes = (
"230 0 LINE",
"230 452 LINE",
"200 530 LINE",
"190 530 LINE",
"190 0 LINE"
);
},
{
closed = 1;
nodes = (
"1272 990 LINE",
"1272 1500 LINE",
"1232 1500 LINE",
"1232 1064 LINE",
"1261 990 LINE"
);
}
);
width = 1488;
},
{
anchors = (
{
name = bottom;
position = "{853, 0}";
},
{
name = top;
position = "{775, 1500}";
}
);
layerId = "219068EA-2B9B-40DC-949E-B60449C01B8A";
paths = (
{
closed = 1;
nodes = (
"1289 -26 OFFCURVE",
"1522 133 OFFCURVE",
"1522 453 CURVE SMOOTH",
"1522 776 OFFCURVE",
"1240 894 OFFCURVE",
"862 948 CURVE SMOOTH",
"722 968 LINE SMOOTH",
"600 985 OFFCURVE",
"496 1025 OFFCURVE",
"496 1138 CURVE SMOOTH",
"496 1250 OFFCURVE",
"588 1296 OFFCURVE",
"729 1296 CURVE SMOOTH",
"936 1296 OFFCURVE",
"1118 1212 OFFCURVE",
"1196 1041 CURVE",
"1307 1041 LINE",
"1230 1406 OFFCURVE",
"982 1526 OFFCURVE",
"670 1526 CURVE SMOOTH",
"354 1526 OFFCURVE",
"104 1389 OFFCURVE",
"104 1073 CURVE SMOOTH",
"104 757 OFFCURVE",
"381 611 OFFCURVE",
"744 559 CURVE SMOOTH",
"884 539 LINE SMOOTH",
"1012 521 OFFCURVE",
"1128 484 OFFCURVE",
"1128 370 CURVE SMOOTH",
"1128 258 OFFCURVE",
"1041 206 OFFCURVE",
"893 206 CURVE SMOOTH",
"662 206 OFFCURVE",
"465 295 OFFCURVE",
"382 480 CURVE",
"249 480 LINE",
"325 109 OFFCURVE",
"602 -26 OFFCURVE",
"949 -26 CURVE SMOOTH"
);
},
{
closed = 1;
nodes = (
"378 0 LINE",
"378 287 LINE",
"249 480 LINE",
"134 480 LINE",
"134 0 LINE"
);
},
{
closed = 1;
nodes = (
"1444 1041 LINE",
"1444 1500 LINE",
"1200 1500 LINE",
"1200 1275 LINE",
"1307 1041 LINE"
);
}
);
width = 1614;
},
{
anchors = (
{
name = bottom;
position = "{813, 0}";
},
{
name = top;
position = "{697, 1500}";
}
);
layerId = "0C29AA02-E021-4BD1-A2C4-87F681D64C35";
paths = (
{
closed = 1;
nodes = (
"1210 -32 OFFCURVE",
"1422 131 OFFCURVE",
"1422 451 CURVE SMOOTH",
"1422 774 OFFCURVE",
"1160 899 OFFCURVE",
"806 955 CURVE SMOOTH",
"666 977 LINE SMOOTH",
"546 996 OFFCURVE",
"456 1055 OFFCURVE",
"456 1163 CURVE SMOOTH",
"456 1272 OFFCURVE",
"536 1334 OFFCURVE",
"673 1334 CURVE SMOOTH",
"876 1334 OFFCURVE",
"1065 1202 OFFCURVE",
"1144 981 CURVE",
"1229 981 LINE",
"1171 1379 OFFCURVE",
"914 1532 OFFCURVE",
"614 1532 CURVE SMOOTH",
"312 1532 OFFCURVE",
"92 1387 OFFCURVE",
"92 1071 CURVE SMOOTH",
"92 755 OFFCURVE",
"350 605 OFFCURVE",
"688 552 CURVE SMOOTH",
"828 530 LINE SMOOTH",
"951 511 OFFCURVE",
"1052 463 OFFCURVE",
"1052 347 CURVE SMOOTH",
"1052 233 OFFCURVE",
"975 170 OFFCURVE",
"837 170 CURVE SMOOTH",
"604 170 OFFCURVE",
"406 307 OFFCURVE",
"322 540 CURVE",
"235 540 LINE",
"279 125 OFFCURVE",
"558 -32 OFFCURVE",
"885 -32 CURVE SMOOTH"
);
},
{
closed = 1;
nodes = (
"340 0 LINE",
"340 387 LINE",
"235 540 LINE",
"124 540 LINE",
"124 0 LINE"
);
},
{
closed = 1;
nodes = (
"1342 981 LINE",
"1342 1500 LINE",
"1126 1500 LINE",
"1126 1115 LINE",
"1229 981 LINE"
);
}
);
width = 1496;
},
{
anchors = (
{
name = bottom;
position = "{829, 0}";
},
{
name = top;
position = "{756, 1500}";
}
);
layerId = "2B88661E-23DD-4EDA-82FC-C2AEA983F097";
paths = (
{
closed = 1;
nodes = (
"1201 -24 OFFCURVE",
"1392 110 OFFCURVE",
"1392 379 CURVE SMOOTH",
"1392 640 OFFCURVE",
"1181 738 OFFCURVE",
"892 781 CURVE SMOOTH",
"679 813 LINE SMOOTH",
"433 850 OFFCURVE",
"254 926 OFFCURVE",
"254 1149 CURVE SMOOTH",
"254 1362 OFFCURVE",
"407 1473 OFFCURVE",
"689 1473 CURVE SMOOTH",
"961 1473 OFFCURVE",
"1195 1345 OFFCURVE",
"1295 1050 CURVE",
"1333 1050 LINE",
"1255 1392 OFFCURVE",
"978 1524 OFFCURVE",
"686 1524 CURVE SMOOTH",
"384 1524 OFFCURVE",
"192 1405 OFFCURVE",
"192 1146 CURVE SMOOTH",
"192 891 OFFCURVE",
"396 798 OFFCURVE",
"672 757 CURVE SMOOTH",
"885 725 LINE SMOOTH",
"1132 688 OFFCURVE",
"1330 612 OFFCURVE",
"1330 376 CURVE SMOOTH",
"1330 153 OFFCURVE",
"1174 27 OFFCURVE",
"889 27 CURVE SMOOTH",
"601 27 OFFCURVE",
"345 168 OFFCURVE",
"233 470 CURVE",
"190 470 LINE",
"281 138 OFFCURVE",
"576 -24 OFFCURVE",
"891 -24 CURVE SMOOTH"
);
},
{
closed = 1;
nodes = (
"230 0 LINE",
"230 388 LINE",
"190 470 LINE",
"180 470 LINE",
"180 0 LINE"
);
},
{
closed = 1;
nodes = (
"1349 1050 LINE",
"1349 1500 LINE",
"1299 1500 LINE",
"1299 1129 LINE",
"1333 1050 LINE"
);
}
);
width = 1546;
}
);
leftKerningGroup = S;
rightKerningGroup = S;
unicode = 0053;
},
{
color = 8;
glyphname = Germandbls;
lastChange = "2021-06-09 22:19:21 +0000";
layers = (
{
hints = (
{
origin = "{0, 32}";
scale = "{0.86, 1}";
type = Corner;
name = _corner.Serif;
}
);
layerId = "1E61A082-F045-49A7-AB52-DD1B03FD9B54";
paths = (
{
closed = 1;
nodes = (
"288 0 LINE",
"288 988 LINE SMOOTH",
"288 1325 OFFCURVE",
"483 1496 OFFCURVE",
"808 1496 CURVE SMOOTH",
"992 1496 OFFCURVE",
"1148 1439 OFFCURVE",
"1225 1386 CURVE",
"1229 1405 LINE",
"773 914 LINE",
"773 880 LINE",
"1093 880 OFFCURVE",
"1300 763 OFFCURVE",
"1300 430 CURVE SMOOTH",
"1300 200 OFFCURVE",
"1180 20 OFFCURVE",
"939 20 CURVE",
"942 -20 LINE",
"1205 -20 OFFCURVE",
"1348 167 OFFCURVE",
"1348 434 CURVE SMOOTH",
"1348 783 OFFCURVE",
"1115 917 OFFCURVE",
"794 917 CURVE",
"807 895 LINE",
"1275 1399 LINE",
"1154 1486 OFFCURVE",
"1015 1534 OFFCURVE",
"808 1534 CURVE SMOOTH",
"458 1534 OFFCURVE",
"240 1353 OFFCURVE",
"240 988 CURVE SMOOTH",
"240 0 LINE"
);
},
{
closed = 1;
nodes = (
"939 20 LINE",
"741 20 OFFCURVE",
"601 138 OFFCURVE",
"589 371 CURVE",
"557 371 LINE",
"565 114 OFFCURVE",
"714 -20 OFFCURVE",
"942 -20 CURVE"
);
}
);
width = 1522;
},
{
hints = (
{
origin = "{0, 32}";
scale = "{0.86, 1}";
type = Corner;
name = _corner.Serif;
}
);
layerId = "219068EA-2B9B-40DC-949E-B60449C01B8A";
paths = (
{
closed = 1;
nodes = (
"583 0 LINE",
"583 888 LINE SMOOTH",
"583 1154 OFFCURVE",
"724 1294 OFFCURVE",
"956 1294 CURVE SMOOTH",
"1084 1294 OFFCURVE",
"1190 1261 OFFCURVE",
"1277 1213 CURVE",
"1321 1391 LINE",
"848 924 LINE",
"848 714 LINE",
"1108 714 OFFCURVE",
"1223 607 OFFCURVE",
"1223 410 CURVE SMOOTH",
"1223 303 OFFCURVE",
"1189 242 OFFCURVE",
"1114 242 CURVE",
"1187 -20 LINE",
"1450 -20 OFFCURVE",
"1631 146 OFFCURVE",
"1631 414 CURVE SMOOTH",
"1631 755 OFFCURVE",
"1387 923 OFFCURVE",
"1011 923 CURVE",
"1078 845 LINE",
"1551 1312 LINE",
"1451 1406 OFFCURVE",
"1233 1532 OFFCURVE",
"911 1532 CURVE SMOOTH",
"463 1532 OFFCURVE",
"187 1305 OFFCURVE",
"187 848 CURVE SMOOTH",
"187 0 LINE"
);
},
{
closed = 1;
nodes = (
"1114 242 LINE",
"1051 242 OFFCURVE",
"1015 287 OFFCURVE",
"1013 351 CURVE",
"784 351 LINE",
"784 119 OFFCURVE",
"920 -20 OFFCURVE",
"1187 -20 CURVE"
);
}
);
width = 1723;
},
{
hints = (
{
origin = "{0, 32}";
scale = "{0.86, 1}";
type = Corner;
name = _corner.Serif;
}
);
layerId = "0C29AA02-E021-4BD1-A2C4-87F681D64C35";
paths = (
{
closed = 1;
nodes = (
"586 0 LINE",
"586 948 LINE SMOOTH",
"586 1192 OFFCURVE",
"713 1330 OFFCURVE",
"965 1330 CURVE SMOOTH",
"1065 1330 OFFCURVE",
"1150 1297 OFFCURVE",
"1218 1257 CURVE",
"1258 1421 LINE",
"799 914 LINE",
"799 724 LINE",
"1038 724 OFFCURVE",
"1144 614 OFFCURVE",
"1144 412 CURVE SMOOTH",
"1144 301 OFFCURVE",
"1108 238 OFFCURVE",
"1030 238 CURVE",
"1153 -14 LINE",
"1389 -14 OFFCURVE",
"1552 158 OFFCURVE",
"1552 436 CURVE SMOOTH",
"1552 755 OFFCURVE",
"1287 913 OFFCURVE",
"1002 913 CURVE",
"1003 835 LINE",
"1462 1342 LINE",
"1362 1424 OFFCURVE",
"1152 1532 OFFCURVE",
"892 1532 CURVE SMOOTH",
"463 1532 OFFCURVE",
"190 1329 OFFCURVE",
"190 918 CURVE SMOOTH",
"190 0 LINE"
);
},
{
closed = 1;
nodes = (
"1030 238 LINE",
"955 238 OFFCURVE",
"914 308 OFFCURVE",
"912 407 CURVE",
"736 407 LINE",
"736 146 OFFCURVE",
"869 -14 OFFCURVE",
"1153 -14 CURVE"
);
}
);
width = 1626;
},
{
hints = (
{
origin = "{0, 32}";
scale = "{0.86, 1}";
type = Corner;
name = _corner.Serif;
}
);
layerId = "2B88661E-23DD-4EDA-82FC-C2AEA983F097";
paths = (
{
closed = 1;
nodes = (
"312 0 LINE",
"312 1038 LINE SMOOTH",
"312 1374 OFFCURVE",
"528 1542 OFFCURVE",
"870 1542 CURVE SMOOTH",
"1060 1542 OFFCURVE",
"1222 1482 OFFCURVE",
"1300 1423 CURVE",
"1315 1452 LINE",
"850 958 LINE",
"850 910 LINE",
"1188 910 OFFCURVE",
"1402 789 OFFCURVE",
"1402 444 CURVE SMOOTH",
"1402 214 OFFCURVE",
"1281 32 OFFCURVE",
"1011 32 CURVE",
"1014 -20 LINE",
"1312 -20 OFFCURVE",
"1462 173 OFFCURVE",
"1462 448 CURVE SMOOTH",
"1462 823 OFFCURVE",
"1203 956 OFFCURVE",
"880 957 CURVE",
"896 931 LINE",
"1378 1443 LINE",
"1248 1540 OFFCURVE",
"1091 1594 OFFCURVE",
"870 1594 CURVE SMOOTH",
"495 1594 OFFCURVE",
"252 1410 OFFCURVE",
"252 1038 CURVE SMOOTH",
"252 0 LINE"
);
},
{
closed = 1;
nodes = (
"1011 32 LINE",
"797 32 OFFCURVE",
"645 147 OFFCURVE",
"631 371 CURVE",
"577 371 LINE",
"586 114 OFFCURVE",
"756 -20 OFFCURVE",
"1014 -20 CURVE"
);
}
);
width = 1616;
}
);
leftKerningGroup = I;
leftMetricsKey = I;
rightMetricsKey = S;
unicode = 1E9E;
},
{
color = 8;
glyphname = Schwa;
lastChange = "2021-06-09 21:44:25 +0000";
layers = (
{
layerId = "1E61A082-F045-49A7-AB52-DD1B03FD9B54";
paths = (
{
closed = 1;
nodes = (
"320 1530 OFFCURVE",
"157 1208 OFFCURVE",
"136 984 CURVE",
"177 984 LINE",
"195 1188 OFFCURVE",
"349 1490 OFFCURVE",
"730 1490 CURVE SMOOTH",
"1071 1490 OFFCURVE",
"1294 1214 OFFCURVE",
"1294 757 CURVE SMOOTH",
"1294 299 OFFCURVE",
"1066 16 OFFCURVE",
"720 16 CURVE",
"719 -22 LINE",
"1091 -22 OFFCURVE",
"1344 260 OFFCURVE",
"1344 754 CURVE SMOOTH",
"1344 1248 OFFCURVE",
"1095 1530 OFFCURVE",
"732 1530 CURVE SMOOTH"
);
},
{
closed = 1;
nodes = (
"118 683 LINE",
"118 670 LINE",
"162 645 LINE",
"1309 645 LINE",
"1309 683 LINE"
);
},
{
closed = 1;
nodes = (
"118 262 OFFCURVE",
"323 -22 OFFCURVE",
"719 -22 CURVE",
"720 16 LINE",
"355 16 OFFCURVE",
"170 287 OFFCURVE",
"162 645 CURVE",
"118 670 LINE"
);
}
);
width = 1462;
},
{
layerId = "219068EA-2B9B-40DC-949E-B60449C01B8A";
paths = (
{
closed = 1;
nodes = (
"336 1532 OFFCURVE",
"128 1245 OFFCURVE",
"118 979 CURVE",
"358 979 LINE",
"387 1095 OFFCURVE",
"489 1209 OFFCURVE",
"684 1209 CURVE SMOOTH",
"943 1209 OFFCURVE",
"1081 1023 OFFCURVE",
"1081 720 CURVE SMOOTH",
"1081 358 OFFCURVE",
"967 203 OFFCURVE",
"773 203 CURVE",
"785 -31 LINE",
"1203 -31 OFFCURVE",
"1501 249 OFFCURVE",
"1501 750 CURVE SMOOTH",
"1501 1253 OFFCURVE",
"1208 1532 OFFCURVE",
"777 1532 CURVE SMOOTH"
);
},
{
closed = 1;
nodes = (
"82 771 LINE",
"82 684 LINE",
"503 551 LINE",
"1311 551 LINE",
"1311 771 LINE"
);
},
{
closed = 1;
nodes = (
"82 260 OFFCURVE",
"328 -31 OFFCURVE",
"785 -31 CURVE",
"773 203 LINE",
"597 203 OFFCURVE",
"510 361 OFFCURVE",
"503 551 CURVE",
"82 684 LINE"
);
}
);
width = 1583;
},
{
layerId = "0C29AA02-E021-4BD1-A2C4-87F681D64C35";
paths = (
{
closed = 1;
nodes = (
"310 1540 OFFCURVE",
"86 1224 OFFCURVE",
"80 885 CURVE",
"269 885 LINE",
"292 1062 OFFCURVE",
"404 1243 OFFCURVE",
"654 1243 CURVE SMOOTH",
"909 1243 OFFCURVE",
"1052 1043 OFFCURVE",
"1052 715 CURVE SMOOTH",
"1052 312 OFFCURVE",
"934 158 OFFCURVE",
"752 158 CURVE",
"761 -32 LINE",
"1190 -32 OFFCURVE",
"1492 259 OFFCURVE",
"1492 754 CURVE SMOOTH",
"1492 1250 OFFCURVE",
"1190 1540 OFFCURVE",
"761 1540 CURVE SMOOTH"
);
},
{
closed = 1;
nodes = (
"74 746 LINE",
"74 673 LINE",
"493 546 LINE",
"1280 546 LINE",
"1280 746 LINE"
);
},
{
closed = 1;
nodes = (
"74 263 OFFCURVE",
"316 -32 OFFCURVE",
"761 -32 CURVE",
"752 158 LINE",
"585 158 OFFCURVE",
"497 316 OFFCURVE",
"493 546 CURVE",
"74 673 LINE"
);
}
);
width = 1566;
},
{
layerId = "2B88661E-23DD-4EDA-82FC-C2AEA983F097";
paths = (
{
closed = 1;
nodes = (
"376 1525 OFFCURVE",
"212 1250 OFFCURVE",
"174 1061 CURVE",
"235 1061 LINE",
"271 1216 OFFCURVE",
"413 1471 OFFCURVE",
"811 1471 CURVE SMOOTH",
"1197 1471 OFFCURVE",
"1442 1203 OFFCURVE",
"1442 752 CURVE SMOOTH",
"1442 300 OFFCURVE",
"1185 31 OFFCURVE",
"798 31 CURVE",
"797 -21 LINE",
"1223 -21 OFFCURVE",
"1504 259 OFFCURVE",
"1504 752 CURVE SMOOTH",
"1504 1244 OFFCURVE",
"1231 1525 OFFCURVE",
"809 1525 CURVE SMOOTH"
);
},
{
closed = 1;
nodes = (
"136 694 LINE",
"136 668 LINE",
"196 642 LINE",
"1462 642 LINE",
"1462 694 LINE"
);
},
{
closed = 1;
nodes = (
"136 263 OFFCURVE",
"364 -21 OFFCURVE",
"797 -21 CURVE",
"798 31 LINE",
"400 31 OFFCURVE",
"210 296 OFFCURVE",
"196 642 CURVE",
"136 668 LINE"
);
}
);
width = 1640;
}
);
leftMetricsKey = O;
rightMetricsKey = O;
unicode = 018F;
},
{
color = 8;
glyphname = T;
lastChange = "2021-05-13 19:37:43 +0000";
layers = (
{
anchors = (
{
name = bottom;
position = "{798, 0}";
},
{
name = center;
position = "{798, 730}";
},
{
name = top;
position = "{798, 1500}";
}
);
hints = (
{
origin = "{0, 3}";
scale = "{1.6, 1}";
type = Corner;
name = _corner.Serif;
},
{
origin = "{0, 0}";
scale = "{-1.6, 1}";
type = Corner;
name = _corner.Serif;
options = 1;
}
);
layerId = "1E61A082-F045-49A7-AB52-DD1B03FD9B54";
paths = (
{
closed = 1;
nodes = (
"822 0 LINE",
"822 1500 LINE",
"774 1500 LINE",
"774 0 LINE"
);
},
{
closed = 1;
nodes = (
"154 980 LINE",
"154 1332 LINE SMOOTH",
"154 1436 OFFCURVE",
"180 1462 OFFCURVE",
"280 1462 CURVE",
"114 1462 LINE",
"114 980 LINE"
);
},
{
closed = 1;
nodes = (
"1482 1462 LINE",
"1482 1500 LINE",
"114 1500 LINE",
"114 1462 LINE"
);
},
{
closed = 1;
nodes = (
"1482 980 LINE",
"1482 1462 LINE",
"1316 1462 LINE",
"1416 1462 OFFCURVE",
"1442 1436 OFFCURVE",
"1442 1332 CURVE SMOOTH",
"1442 980 LINE"
);
}
);
width = 1596;
},
{
anchors = (
{
name = bottom;
position = "{894, 0}";
},
{
name = center;
position = "{894, 710}";
},
{
name = top;
position = "{894, 1500}";
}
);
hints = (
{
origin = "{0, 3}";
scale = "{1.4, 1}";
type = Corner;
name = _corner.Serif;
},
{
origin = "{0, 0}";
scale = "{-1.4, 1}";
type = Corner;
name = _corner.Serif;
options = 1;
}
);
layerId = "219068EA-2B9B-40DC-949E-B60449C01B8A";
paths = (
{
closed = 1;
nodes = (
"1104 0 LINE",
"1104 1500 LINE",
"684 1500 LINE",
"684 0 LINE"
);
},
{
closed = 1;
nodes = (
"322 940 LINE",
"322 1044 LINE SMOOTH",
"322 1211 OFFCURVE",
"382 1280 OFFCURVE",
"542 1280 CURVE",
"90 1280 LINE",
"90 940 LINE"
);
},
{
closed = 1;
nodes = (
"1698 1280 LINE",
"1698 1500 LINE",
"90 1500 LINE",
"90 1280 LINE"
);
},
{
closed = 1;
nodes = (
"1698 940 LINE",
"1698 1280 LINE",
"1246 1280 LINE",
"1406 1280 OFFCURVE",
"1466 1211 OFFCURVE",
"1466 1044 CURVE SMOOTH",
"1466 940 LINE"
);
}
);
width = 1788;
},
{
anchors = (
{
name = bottom;
position = "{822, 0}";
},
{
name = center;
position = "{822, 710}";
},
{
name = top;
position = "{822, 1500}";
}
);
hints = (
{
origin = "{0, 3}";
scale = "{1.8, 1}";
type = Corner;
name = _corner.Serif;
},
{
origin = "{0, 0}";
scale = "{-1.8, 1}";
type = Corner;
name = _corner.Serif;
options = 1;
}
);
layerId = "0C29AA02-E021-4BD1-A2C4-87F681D64C35";
paths = (
{
closed = 1;
nodes = (
"1032 0 LINE",
"1032 1500 LINE",
"612 1500 LINE",
"612 0 LINE"
);
},
{
closed = 1;
nodes = (
"280 920 LINE",
"280 1062 LINE SMOOTH",
"280 1231 OFFCURVE",
"340 1300 OFFCURVE",
"500 1300 CURVE",
"82 1300 LINE",
"82 920 LINE"
);
},
{
closed = 1;
nodes = (
"1562 1300 LINE",
"1562 1500 LINE",
"82 1500 LINE",
"82 1300 LINE"
);
},
{
closed = 1;
nodes = (
"1562 920 LINE",
"1562 1300 LINE",
"1144 1300 LINE",
"1304 1300 OFFCURVE",
"1364 1231 OFFCURVE",
"1364 1062 CURVE SMOOTH",
"1364 920 LINE"
);
}
);
width = 1644;
},
{
anchors = (
{
name = bottom;
position = "{848, 0}";
},
{
name = center;
position = "{848, 729}";
},
{
name = top;
position = "{848, 1500}";
}
);
hints = (
{
origin = "{0, 3}";
scale = "{1.4, 1}";
type = Corner;
name = _corner.Serif;
},
{
origin = "{0, 0}";
scale = "{-1.4, 1}";
type = Corner;
name = _corner.Serif;
options = 1;
}
);
layerId = "2B88661E-23DD-4EDA-82FC-C2AEA983F097";
paths = (
{
closed = 1;
nodes = (
"878 0 LINE",
"878 1500 LINE",
"818 1500 LINE",
"818 0 LINE"
);
},
{
closed = 1;
nodes = (
"182 1037 LINE",
"182 1316 LINE SMOOTH",
"182 1422 OFFCURVE",
"209 1450 OFFCURVE",
"311 1450 CURVE",
"132 1450 LINE",
"132 1037 LINE"
);
},
{
closed = 1;
nodes = (
"1564 1450 LINE",
"1564 1500 LINE",
"132 1500 LINE",
"132 1450 LINE"
);
},
{
closed = 1;
nodes = (
"1564 1037 LINE",
"1564 1450 LINE",
"1385 1450 LINE",
"1487 1450 OFFCURVE",
"1514 1422 OFFCURVE",
"1514 1316 CURVE SMOOTH",
"1514 1037 LINE"
);
}
);
width = 1696;
}
);
leftKerningGroup = T;
rightKerningGroup = T;
unicode = 0054;
},
{
color = 8;
glyphname = U;
lastChange = "2021-05-13 19:37:56 +0000";
layers = (
{
anchors = (
{
name = bottom;
position = "{860, 0}";
},
{
name = ogonek;
position = "{1164, 0}";
},
{
name = top;
position = "{866, 1500}";
},
{
name = topright;
position = "{1436, 1500}";
}
);
hints = (
{
origin = "{0, 3}";
scale = "{1.08, 1}";
type = Corner;
name = _corner.Serif;
},
{
origin = "{0, 4}";
scale = "{-1.18, 1}";
type = Corner;
name = _corner.Serif;
options = 1;
},
{
origin = "{0, 12}";
scale = "{1.18, 1}";
type = Corner;
name = _corner.Serif;
options = 1;
},
{
origin = "{0, 13}";
scale = "{-1.08, 1}";
type = Corner;
name = _corner.Serif;
}
);
layerId = "1E61A082-F045-49A7-AB52-DD1B03FD9B54";
leftMetricsKey = "=H-12";
rightMetricsKey = "=H-12";
paths = (
{
closed = 1;
nodes = (
"1242 -24 OFFCURVE",
"1436 192 OFFCURVE",
"1436 574 CURVE SMOOTH",
"1436 1500 LINE",
"1396 1500 LINE",
"1396 574 LINE SMOOTH",
"1396 230 OFFCURVE",
"1227 14 OFFCURVE",
"864 14 CURVE SMOOTH",
"501 14 OFFCURVE",
"332 230 OFFCURVE",
"332 574 CURVE SMOOTH",
"332 1500 LINE",
"284 1500 LINE",
"284 574 LINE SMOOTH",
"284 192 OFFCURVE",
"478 -24 OFFCURVE",
"860 -24 CURVE SMOOTH"
);
}
);
width = 1720;
},
{
anchors = (
{
name = bottom;
position = "{928, 0}";
},
{
name = ogonek;
position = "{1274, 0}";
},
{
name = top;
position = "{985, 1500}";
},
{
name = topright;
position = "{1632, 1500}";
}
);
hints = (
{
origin = "{0, 3}";
scale = "{1.08, 1}";
type = Corner;
name = _corner.Serif;
},
{
origin = "{0, 4}";
scale = "{-1.18, 1}";
type = Corner;
name = _corner.Serif;
options = 1;
},
{
origin = "{0, 12}";
scale = "{1.18, 1}";
type = Corner;
name = _corner.Serif;
options = 1;
},
{
origin = "{0, 13}";
scale = "{-1.08, 1}";
type = Corner;
name = _corner.Serif;
}
);
layerId = "219068EA-2B9B-40DC-949E-B60449C01B8A";
leftMetricsKey = "=H-10";
rightMetricsKey = "=H-10";
paths = (
{
closed = 1;
nodes = (
"1392 -22 OFFCURVE",
"1632 202 OFFCURVE",
"1632 628 CURVE SMOOTH",
"1632 1500 LINE",
"1312 1500 LINE",
"1312 598 LINE SMOOTH",
"1312 375 OFFCURVE",
"1212 241 OFFCURVE",
"982 241 CURVE SMOOTH",
"752 241 OFFCURVE",
"652 375 OFFCURVE",
"652 598 CURVE SMOOTH",
"652 1500 LINE",
"224 1500 LINE",
"224 628 LINE SMOOTH",
"224 202 OFFCURVE",
"472 -22 OFFCURVE",
"936 -22 CURVE SMOOTH"
);
}
);
width = 1856;
},
{
anchors = (
{
name = bottom;
position = "{872, 0}";
},
{
name = ogonek;
position = "{1207, 0}";
},
{
name = top;
position = "{937, 1500}";
},
{
name = topright;
position = "{1526, 1501}";
}
);
hints = (
{
origin = "{0, 3}";
scale = "{1, 0.98}";
type = Corner;
name = _corner.Serif;
},
{
origin = "{0, 4}";
scale = "{-1.18, 0.98}";
type = Corner;
name = _corner.Serif;
options = 1;
},
{
origin = "{0, 12}";
scale = "{1.18, 0.98}";
type = Corner;
name = _corner.Serif;
options = 1;
},
{
origin = "{0, 13}";
scale = "{-1, 0.98}";
type = Corner;
name = _corner.Serif;
}
);
layerId = "0C29AA02-E021-4BD1-A2C4-87F681D64C35";
leftMetricsKey = "=H-6";
rightMetricsKey = "=H-6";
paths = (
{
closed = 1;
nodes = (
"1309 -22 OFFCURVE",
"1536 196 OFFCURVE",
"1536 578 CURVE SMOOTH",
"1536 1500 LINE",
"1264 1500 LINE",
"1264 528 LINE SMOOTH",
"1264 330 OFFCURVE",
"1163 211 OFFCURVE",
"950 211 CURVE SMOOTH",
"737 211 OFFCURVE",
"636 330 OFFCURVE",
"636 528 CURVE SMOOTH",
"636 1500 LINE",
"208 1500 LINE",
"208 578 LINE SMOOTH",
"208 196 OFFCURVE",
"435 -22 OFFCURVE",
"872 -22 CURVE SMOOTH"
);
}
);
width = 1744;
},
{
anchors = (
{
name = bottom;
position = "{920, 0}";
},
{
name = ogonek;
position = "{1234, 0}";
},
{
name = top;
position = "{933, 1500}";
},
{
name = topright;
position = "{1535, 1500}";
}
);
hints = (
{
origin = "{0, 3}";
scale = "{1.08, 1}";
type = Corner;
name = _corner.Serif;
},
{
origin = "{0, 4}";
scale = "{-1.18, 1}";
type = Corner;
name = _corner.Serif;
options = 1;
},
{
origin = "{0, 12}";
scale = "{1.18, 1}";
type = Corner;
name = _corner.Serif;
options = 1;
},
{
origin = "{0, 13}";
scale = "{-1.08, 1}";
type = Corner;
name = _corner.Serif;
}
);
layerId = "2B88661E-23DD-4EDA-82FC-C2AEA983F097";
paths = (
{
closed = 1;
nodes = (
"1328 -24 OFFCURVE",
"1535 207 OFFCURVE",
"1535 614 CURVE SMOOTH",
"1535 1500 LINE",
"1479 1500 LINE",
"1479 613 LINE SMOOTH",
"1479 254 OFFCURVE",
"1302 28 OFFCURVE",
"924 28 CURVE SMOOTH",
"543 28 OFFCURVE",
"365 254 OFFCURVE",
"365 613 CURVE SMOOTH",
"365 1500 LINE",
"305 1500 LINE",
"305 614 LINE SMOOTH",
"305 207 OFFCURVE",
"512 -24 OFFCURVE",
"920 -24 CURVE SMOOTH"
);
}
);
width = 1840;
}
);
leftKerningGroup = U;
leftMetricsKey = H;
rightKerningGroup = U;
rightMetricsKey = H;
unicode = 0055;
},
{
color = 8;
glyphname = V;
lastChange = "2021-05-13 19:39:57 +0000";
layers = (
{
anchors = (
{
name = bottom;
position = "{834, 0}";
},
{
name = top;
position = "{834, 1500}";
}
);
hints = (
{
origin = "{0, 2}";
scale = "{-1.28, 1}";
type = Corner;
name = _corner.Serif;
options = 1;
},
{
origin = "{0, 5}";
scale = "{1.28, 1}";
type = Corner;
name = _corner.Serif;
},
{
origin = "{0, 6}";
scale = "{-0.74, 1}";
type = Corner;
name = _corner.Serif;
options = 1;
},
{
origin = "{0, 1}";
scale = "{0.74, 1}";
type = Corner;
name = _corner.Serif;
}
);
layerId = "1E61A082-F045-49A7-AB52-DD1B03FD9B54";
paths = (
{
closed = 1;
nodes = (
"852 -14 LINE",
"1464 1500 LINE",
"1421 1500 LINE",
"830 33 LINE",
"847 33 LINE",
"256 1500 LINE",
"204 1500 LINE",
"816 -14 LINE"
);
}
);
width = 1668;
},
{
anchors = (
{
name = bottom;
position = "{932, 0}";
},
{
name = top;
position = "{932, 1500}";
}
);
hints = (
{
origin = "{0, 2}";
scale = "{-1.7, 1}";
type = Corner;
name = _corner.Serif;
options = 1;
},
{
origin = "{0, 5}";
scale = "{1.7, 1}";
type = Corner;
name = _corner.Serif;
},
{
origin = "{0, 6}";
scale = "{-0.6, 1}";
type = Corner;
name = _corner.Serif;
options = 1;
},
{
origin = "{0, 1}";
scale = "{0.6, 1}";
type = Corner;
name = _corner.Serif;
}
);
layerId = "219068EA-2B9B-40DC-949E-B60449C01B8A";
paths = (
{
closed = 1;
nodes = (
"1126 0 LINE",
"1762 1500 LINE",
"1480 1500 LINE",
"949 231 LINE",
"1080 230 LINE",
"563 1500 LINE",
"102 1500 LINE",
"738 0 LINE"
);
}
);
width = 1864;
},
{
anchors = (
{
name = bottom;
position = "{887, 0}";
},
{
name = top;
position = "{887, 1500}";
}
);
hints = (
{
origin = "{0, 2}";
scale = "{-1.7, 0.98}";
type = Corner;
name = _corner.Serif;
options = 1;
},
{
origin = "{0, 5}";
scale = "{1.7, 0.98}";
type = Corner;
name = _corner.Serif;
},
{
origin = "{0, 6}";
scale = "{-0.6, 0.98}";
type = Corner;
name = _corner.Serif;
options = 1;
},
{
origin = "{0, 1}";
scale = "{0.6, 0.98}";
type = Corner;
name = _corner.Serif;
}
);
layerId = "0C29AA02-E021-4BD1-A2C4-87F681D64C35";
paths = (
{
closed = 1;
nodes = (
"1061 -6 LINE",
"1677 1500 LINE",
"1435 1500 LINE",
"919 225 LINE",
"1064 224 LINE",
"570 1500 LINE",
"110 1500 LINE",
"726 -6 LINE"
);
}
);
width = 1787;
},
{
anchors = (
{
name = bottom;
position = "{865, 0}";
},
{
name = top;
position = "{865, 1500}";
}
);
hints = (
{
origin = "{0, 2}";
scale = "{-1.3, 1}";
type = Corner;
name = _corner.Serif;
options = 1;
},
{
origin = "{0, 5}";
scale = "{1.3, 1}";
type = Corner;
name = _corner.Serif;
},
{
origin = "{0, 6}";
scale = "{-0.74, 1}";
type = Corner;
name = _corner.Serif;
options = 1;
},
{
origin = "{0, 1}";
scale = "{0.74, 1}";
type = Corner;
name = _corner.Serif;
}
);
layerId = "2B88661E-23DD-4EDA-82FC-C2AEA983F097";
paths = (
{
closed = 1;
nodes = (
"889 -17 LINE",
"1531 1500 LINE",
"1470 1500 LINE",
"853 36 LINE",
"879 36 LINE",
"262 1500 LINE",
"197 1500 LINE",
"839 -17 LINE"
);
}
);
width = 1728;
}
);
leftKerningGroup = V;
leftMetricsKey = A;
rightKerningGroup = V;
rightMetricsKey = A;
unicode = 0056;
},
{
color = 8;
glyphname = W;
lastChange = "2021-05-13 19:38:07 +0000";
layers = (
{
anchors = (
{
name = bottom;
position = "{1126, 0}";
},
{
name = top;
position = "{1126, 1500}";
}
);
hints = (
{
origin = "{0, 2}";
scale = "{-1.28, 1}";
type = Corner;
name = _corner.Serif;
options = 1;
},
{
origin = "{0, 5}";
scale = "{1.28, 1}";
type = Corner;
name = _corner.Serif;
},
{
origin = "{0, 6}";
scale = "{-0.74, 1}";
type = Corner;
name = _corner.Serif;
options = 1;
},
{
origin = "{0, 1}";
scale = "{0.74, 1}";
type = Corner;
name = _corner.Serif;
},
{
origin = "{1, 5}";
scale = "{1.28, 1}";
type = Corner;
name = _corner.Serif;
},
{
origin = "{1, 6}";
scale = "{-0.74, 1}";
type = Corner;
name = _corner.Serif;
options = 1;
}
);
layerId = "1E61A082-F045-49A7-AB52-DD1B03FD9B54";
paths = (
{
closed = 1;
nodes = (
"1547 -14 LINE",
"2047 1500 LINE",
"2005 1500 LINE",
"1523 33 LINE",
"1542 33 LINE",
"1060 1500 LINE",
"1009 1500 LINE",
"1509 -14 LINE"
);
},
{
closed = 1;
nodes = (
"743 -14 LINE",
"1139 1187 LINE",
"1119 1252 LINE",
"719 33 LINE",
"738 33 LINE",
"256 1500 LINE",
"205 1500 LINE",
"705 -14 LINE"
);
}
);
width = 2252;
},
{
anchors = (
{
name = bottom;
position = "{1271, 0}";
},
{
name = top;
position = "{1306, 1500}";
}
);
hints = (
{
origin = "{0, 2}";
scale = "{-1.66, 1}";
type = Corner;
name = _corner.Serif;
options = 1;
},
{
origin = "{0, 5}";
scale = "{1.66, 1}";
type = Corner;
name = _corner.Serif;
},
{
origin = "{0, 6}";
scale = "{-0.64, 1}";
type = Corner;
name = _corner.Serif;
options = 1;
},
{
origin = "{0, 1}";
scale = "{0.63, 1}";
type = Corner;
name = _corner.Serif;
},
{
origin = "{1, 5}";
scale = "{1.26, 1}";
type = Corner;
name = _corner.Serif;
},
{
origin = "{1, 6}";
scale = "{-0.63, 1}";
type = Corner;
name = _corner.Serif;
options = 1;
}
);
layerId = "219068EA-2B9B-40DC-949E-B60449C01B8A";
paths = (
{
closed = 1;
nodes = (
"1904 0 LINE",
"2450 1500 LINE",
"2180 1500 LINE",
"1720 231 LINE",
"1862 230 LINE",
"1416 1500 LINE",
"1002 1500 LINE",
"1548 0 LINE"
);
},
{
closed = 1;
nodes = (
"1036 0 LINE",
"1362 895 LINE",
"1240 1257 LINE",
"868 231 LINE",
"1008 230 LINE",
"562 1500 LINE",
"113 1500 LINE",
"659 0 LINE"
);
}
);
width = 2563;
},
{
anchors = (
{
name = bottom;
position = "{1229, 0}";
},
{
name = top;
position = "{1281, 1500}";
}
);
hints = (
{
origin = "{0, 2}";
scale = "{-1.62, 0.98}";
type = Corner;
name = _corner.Serif;
options = 1;
},
{
origin = "{0, 5}";
scale = "{1.62, 0.98}";
type = Corner;
name = _corner.Serif;
},
{
origin = "{0, 6}";
scale = "{-0.64, 0.98}";
type = Corner;
name = _corner.Serif;
options = 1;
},
{
origin = "{0, 1}";
scale = "{0.64, 0.98}";
type = Corner;
name = _corner.Serif;
},
{
origin = "{1, 5}";
scale = "{1.27, 0.98}";
type = Corner;
name = _corner.Serif;
},
{
origin = "{1, 6}";
scale = "{-0.64, 0.98}";
type = Corner;
name = _corner.Serif;
options = 1;
}
);
layerId = "0C29AA02-E021-4BD1-A2C4-87F681D64C35";
paths = (
{
closed = 1;
nodes = (
"1786 0 LINE",
"2292 1500 LINE",
"2054 1500 LINE",
"1631 231 LINE",
"1787 230 LINE",
"1394 1500 LINE",
"960 1500 LINE",
"1466 0 LINE"
);
},
{
closed = 1;
nodes = (
"944 0 LINE",
"1224 831 LINE",
"1115 1140 LINE",
"812 231 LINE",
"958 230 LINE",
"565 1500 LINE",
"122 1500 LINE",
"628 0 LINE"
);
}
);
width = 2414;
},
{
anchors = (
{
name = bottom;
position = "{1134, 0}";
},
{
name = top;
position = "{1135, 1500}";
}
);
hints = (
{
origin = "{0, 2}";
scale = "{-1.3, 1}";
type = Corner;
name = _corner.Serif;
options = 1;
},
{
origin = "{0, 5}";
scale = "{1.3, 1}";
type = Corner;
name = _corner.Serif;
},
{
origin = "{0, 6}";
scale = "{-0.72, 1}";
type = Corner;
name = _corner.Serif;
options = 1;
},
{
origin = "{0, 1}";
scale = "{0.74, 1}";
type = Corner;
name = _corner.Serif;
},
{
origin = "{1, 5}";
scale = "{1.24, 1}";
type = Corner;
name = _corner.Serif;
},
{
origin = "{1, 6}";
scale = "{-0.74, 1}";
type = Corner;
name = _corner.Serif;
options = 1;
}
);
layerId = "2B88661E-23DD-4EDA-82FC-C2AEA983F097";
paths = (
{
closed = 1;
nodes = (
"1569 -17 LINE",
"2069 1500 LINE",
"2009 1500 LINE",
"1529 36 LINE",
"1554 36 LINE",
"1074 1500 LINE",
"1013 1500 LINE",
"1513 -17 LINE"
);
},
{
closed = 1;
nodes = (
"760 -17 LINE",
"1150 1175 LINE",
"1119 1252 LINE",
"720 36 LINE",
"741 36 LINE",
"261 1500 LINE",
"199 1500 LINE",
"699 -17 LINE"
);
}
);
width = 2268;
}
);
leftKerningGroup = W;
leftMetricsKey = V;
rightKerningGroup = W;
rightMetricsKey = V;
unicode = 0057;
},
{
color = 8;
glyphname = X;
lastChange = "2021-06-02 08:11:02 +0000";
layers = (
{
anchors = (
{
name = bottom;
position = "{837, 0}";
},
{
name = top;
position = "{837, 1500}";
}
);
hints = (
{
origin = "{1, 1}";
scale = "{0.64, 1}";
type = Corner;
name = _corner.Serif;
},
{
origin = "{1, 2}";
scale = "{-1.38, 1}";
type = Corner;
name = _corner.Serif;
options = 1;
},
{
origin = "{1, 5}";
scale = "{1.38, 1}";
type = Corner;
name = _corner.Serif;
},
{
origin = "{1, 6}";
scale = "{-0.64, 1}";
type = Corner;
name = _corner.Serif;
options = 1;
},
{
origin = "{0, 0}";
scale = "{-1.4, 1}";
type = Corner;
name = _corner.Serif;
options = 1;
},
{
origin = "{0, 3}";
scale = "{1.4, 1}";
type = Corner;
name = _corner.Serif;
},
{
origin = "{0, 4}";
scale = "{-0.66, 1}";
type = Corner;
name = _corner.Serif;
options = 1;
},
{
origin = "{0, 7}";
scale = "{0.66, 1}";
type = Corner;
name = _corner.Serif;
}
);
layerId = "1E61A082-F045-49A7-AB52-DD1B03FD9B54";
paths = (
{
closed = 1;
nodes = (
"258 0 LINE",
"850 755 LINE",
"817 755 LINE",
"1407 0 LINE",
"1468 0 LINE",
"846 794 LINE",
"827 794 LINE",
"205 0 LINE"
);
},
{
closed = 1;
nodes = (
"846 738 LINE",
"1443 1500 LINE",
"1390 1500 LINE",
"823 777 LINE",
"856 777 LINE",
"291 1500 LINE",
"230 1500 LINE",
"827 738 LINE"
);
}
);
width = 1673;
},
{
anchors = (
{
name = bottom;
position = "{905, 0}";
},
{
name = top;
position = "{905, 1500}";
}
);
hints = (
{
origin = "{1, 1}";
scale = "{0.28, 1}";
type = Corner;
name = _corner.Serif;
},
{
origin = "{1, 2}";
scale = "{-1.72, 1}";
type = Corner;
name = _corner.Serif;
options = 1;
},
{
origin = "{1, 5}";
scale = "{1.72, 1}";
type = Corner;
name = _corner.Serif;
},
{
origin = "{1, 6}";
scale = "{-0.28, 1}";
type = Corner;
name = _corner.Serif;
options = 1;
},
{
origin = "{0, 7}";
scale = "{0.3, 1}";
type = Corner;
name = _corner.Serif;
},
{
origin = "{0, 0}";
scale = "{-1.8, 1}";
type = Corner;
name = _corner.Serif;
options = 1;
},
{
origin = "{0, 3}";
scale = "{1.8, 1}";
type = Corner;
name = _corner.Serif;
},
{
origin = "{0, 4}";
scale = "{-0.3, 1}";
type = Corner;
name = _corner.Serif;
options = 1;
}
);
layerId = "219068EA-2B9B-40DC-949E-B60449C01B8A";
paths = (
{
closed = 1;
nodes = (
"375 0 LINE",
"897 630 LINE",
"757 630 LINE",
"1248 0 LINE",
"1781 0 LINE",
"1097 853 LINE",
"753 853 LINE",
"42 0 LINE"
);
},
{
closed = 1;
nodes = (
"1045 677 LINE",
"1731 1500 LINE",
"1399 1500 LINE",
"901 900 LINE",
"1041 900 LINE",
"573 1500 LINE",
"41 1500 LINE",
"701 677 LINE"
);
}
);
width = 1817;
},
{
anchors = (
{
name = bottom;
position = "{864, 0}";
},
{
name = top;
position = "{864, 1500}";
}
);
hints = (
{
origin = "{1, 1}";
scale = "{0.28, 0.98}";
type = Corner;
name = _corner.Serif;
},
{
origin = "{1, 2}";
scale = "{-1.72, 0.98}";
type = Corner;
name = _corner.Serif;
options = 1;
},
{
origin = "{1, 5}";
scale = "{1.72, 0.98}";
type = Corner;
name = _corner.Serif;
},
{
origin = "{1, 6}";
scale = "{-0.28, 0.98}";
type = Corner;
name = _corner.Serif;
options = 1;
},
{
origin = "{0, 0}";
scale = "{-1.8, 1}";
type = Corner;
name = _corner.Serif;
options = 1;
},
{
origin = "{0, 3}";
scale = "{1.8, 1}";
type = Corner;
name = _corner.Serif;
},
{
origin = "{0, 4}";
scale = "{-0.3, 1}";
type = Corner;
name = _corner.Serif;
options = 1;
},
{
origin = "{0, 7}";
scale = "{0.3, 1}";
type = Corner;
name = _corner.Serif;
}
);
layerId = "0C29AA02-E021-4BD1-A2C4-87F681D64C35";
paths = (
{
closed = 1;
nodes = (
"329 0 LINE",
"845 630 LINE",
"711 630 LINE",
"1162 0 LINE",
"1685 0 LINE",
"1045 853 LINE",
"747 853 LINE",
"41 0 LINE"
);
},
{
closed = 1;
nodes = (
"959 677 LINE",
"1640 1500 LINE",
"1353 1500 LINE",
"861 900 LINE",
"996 900 LINE",
"566 1500 LINE",
"44 1500 LINE",
"661 677 LINE"
);
}
);
width = 1717;
},
{
anchors = (
{
name = bottom;
position = "{859, 0}";
},
{
name = top;
position = "{859, 1500}";
}
);
hints = (
{
origin = "{1, 1}";
scale = "{0.62, 1}";
type = Corner;
name = _corner.Serif;
},
{
origin = "{1, 2}";
scale = "{-1.4, 1}";
type = Corner;
name = _corner.Serif;
options = 1;
},
{
origin = "{1, 5}";
scale = "{1.4, 1}";
type = Corner;
name = _corner.Serif;
},
{
origin = "{1, 6}";
scale = "{-0.62, 1}";
type = Corner;
name = _corner.Serif;
options = 1;
},
{
origin = "{0, 7}";
scale = "{0.65, 1}";
type = Corner;
name = _corner.Serif;
},
{
origin = "{0, 0}";
scale = "{-1.42, 1}";
type = Corner;
name = _corner.Serif;
options = 1;
},
{
origin = "{0, 3}";
scale = "{1.42, 1}";
type = Corner;
name = _corner.Serif;
},
{
origin = "{0, 4}";
scale = "{-0.65, 1}";
type = Corner;
name = _corner.Serif;
options = 1;
}
);
layerId = "2B88661E-23DD-4EDA-82FC-C2AEA983F097";
paths = (
{
closed = 1;
nodes = (
"260 0 LINE",
"874 751 LINE",
"839 751 LINE",
"1453 0 LINE",
"1528 0 LINE",
"875 796 LINE",
"844 796 LINE",
"190 0 LINE"
);
},
{
closed = 1;
nodes = (
"874 736 LINE",
"1502 1500 LINE",
"1432 1500 LINE",
"844 781 LINE",
"877 781 LINE",
"290 1500 LINE",
"215 1500 LINE",
"841 736 LINE"
);
}
);
width = 1718;
}
);
leftKerningGroup = X;
rightKerningGroup = X;
unicode = 0058;
},
{
color = 8;
glyphname = Y;
lastChange = "2021-05-13 19:39:11 +0000";
layers = (
{
anchors = (
{
name = bottom;
position = "{827, 0}";
},
{
name = top;
position = "{827, 1500}";
},
{
name = topleft;
position = "{31, 1500}";
}
);
hints = (
{
origin = "{1, 3}";
scale = "{1.6, 1}";
type = Corner;
name = _corner.Serif;
},
{
origin = "{1, 0}";
scale = "{-1.6, 1}";
type = Corner;
name = _corner.Serif;
options = 1;
},
{
origin = "{0, 2}";
scale = "{-1.38, 1}";
type = Corner;
name = _corner.Serif;
options = 1;
},
{
origin = "{0, 5}";
scale = "{1.38, 1}";
type = Corner;
name = _corner.Serif;
},
{
origin = "{0, 6}";
scale = "{-0.64, 1}";
type = Corner;
name = _corner.Serif;
options = 1;
},
{
origin = "{0, 1}";
scale = "{0.64, 1}";
type = Corner;
name = _corner.Serif;
}
);
layerId = "1E61A082-F045-49A7-AB52-DD1B03FD9B54";
paths = (
{
closed = 1;
nodes = (
"848 607 LINE",
"1478 1500 LINE",
"1427 1500 LINE",
"824 643 LINE",
"839 643 LINE",
"235 1500 LINE",
"176 1500 LINE",
"806 607 LINE"
);
},
{
closed = 1;
nodes = (
"851 0 LINE",
"851 640 LINE",
"803 640 LINE",
"803 0 LINE"
);
}
);
width = 1654;
},
{
anchors = (
{
name = bottom;
position = "{896, 0}";
},
{
name = top;
position = "{972, 1500}";
},
{
name = topleft;
position = "{41, 1500}";
}
);
hints = (
{
origin = "{1, 3}";
scale = "{1.4, 1}";
type = Corner;
name = _corner.Serif;
},
{
origin = "{1, 0}";
scale = "{-1.4, 1}";
type = Corner;
name = _corner.Serif;
options = 1;
},
{
origin = "{0, 2}";
scale = "{-1.7, 1}";
type = Corner;
name = _corner.Serif;
options = 1;
},
{
origin = "{0, 5}";
scale = "{1.7, 1}";
type = Corner;
name = _corner.Serif;
},
{
origin = "{0, 6}";
scale = "{-0.36, 1}";
type = Corner;
name = _corner.Serif;
options = 1;
},
{
origin = "{0, 1}";
scale = "{0.36, 1}";
type = Corner;
name = _corner.Serif;
}
);
layerId = "219068EA-2B9B-40DC-949E-B60449C01B8A";
paths = (
{
closed = 1;
nodes = (
"1091 528 LINE",
"1751 1500 LINE",
"1446 1500 LINE",
"944 751 LINE",
"1045 751 LINE",
"546 1500 LINE",
"41 1500 LINE",
"701 528 LINE"
);
},
{
closed = 1;
nodes = (
"1106 0 LINE",
"1106 772 LINE",
"686 772 LINE",
"686 0 LINE"
);
}
);
width = 1792;
},
{
anchors = (
{
name = bottom;
position = "{851, 0}";
},
{
name = top;
position = "{941, 1500}";
},
{
name = topleft;
position = "{40, 1500}";
}
);
hints = (
{
origin = "{1, 3}";
scale = "{1.8, 1}";
type = Corner;
name = _corner.Serif;
},
{
origin = "{1, 0}";
scale = "{-1.8, 1}";
type = Corner;
name = _corner.Serif;
options = 1;
},
{
origin = "{0, 2}";
scale = "{-1.7, 0.98}";
type = Corner;
name = _corner.Serif;
options = 1;
},
{
origin = "{0, 5}";
scale = "{1.7, 0.98}";
type = Corner;
name = _corner.Serif;
},
{
origin = "{0, 6}";
scale = "{-0.36, 0.98}";
type = Corner;
name = _corner.Serif;
options = 1;
},
{
origin = "{0, 1}";
scale = "{0.36, 0.98}";
type = Corner;
name = _corner.Serif;
}
);
layerId = "0C29AA02-E021-4BD1-A2C4-87F681D64C35";
paths = (
{
closed = 1;
nodes = (
"1046 548 LINE",
"1646 1500 LINE",
"1381 1500 LINE",
"924 761 LINE",
"991 761 LINE",
"550 1500 LINE",
"56 1500 LINE",
"656 548 LINE"
);
},
{
closed = 1;
nodes = (
"1061 0 LINE",
"1061 792 LINE",
"641 792 LINE",
"641 0 LINE"
);
}
);
width = 1702;
},
{
anchors = (
{
name = bottom;
position = "{851, 0}";
},
{
name = top;
position = "{854, 1500}";
},
{
name = topleft;
position = "{63, 1500}";
}
);
hints = (
{
origin = "{1, 3}";
scale = "{1.4, 1}";
type = Corner;
name = _corner.Serif;
},
{
origin = "{1, 0}";
scale = "{-1.4, 1}";
type = Corner;
name = _corner.Serif;
options = 1;
},
{
origin = "{0, 2}";
scale = "{-1.3912, 1}";
type = Corner;
name = _corner.Serif;
options = 1;
},
{
origin = "{0, 5}";
scale = "{1.3912, 1}";
type = Corner;
name = _corner.Serif;
},
{
origin = "{0, 6}";
scale = "{-0.6302, 1}";
type = Corner;
name = _corner.Serif;
options = 1;
},
{
origin = "{0, 1}";
scale = "{0.6302, 1}";
type = Corner;
name = _corner.Serif;
}
);
layerId = "2B88661E-23DD-4EDA-82FC-C2AEA983F097";
paths = (
{
closed = 1;
nodes = (
"878 595 LINE",
"1534 1500 LINE",
"1467 1500 LINE",
"844 637 LINE",
"863 637 LINE",
"240 1500 LINE",
"168 1500 LINE",
"824 595 LINE"
);
},
{
closed = 1;
nodes = (
"881 0 LINE",
"881 635 LINE",
"821 635 LINE",
"821 0 LINE"
);
}
);
width = 1702;
}
);
leftKerningGroup = Y;
leftMetricsKey = V;
rightKerningGroup = Y;
rightMetricsKey = V;
unicode = 0059;
},
{
color = 8;
glyphname = Z;
lastChange = "2021-05-13 19:36:23 +0000";
layers = (
{
anchors = (
{
name = bottom;
position = "{748, 0}";
},
{
name = center;
position = "{748, 750}";
},
{
name = top;
position = "{748, 1500}";
}
);
layerId = "1E61A082-F045-49A7-AB52-DD1B03FD9B54";
paths = (
{
closed = 1;
nodes = (
"224 38 LINE",
"1336 1466 LINE",
"1272 1462 LINE",
"160 34 LINE"
);
},
{
closed = 1;
nodes = (
"1324 0 LINE",
"1324 38 LINE",
"224 38 LINE",
"160 34 LINE",
"160 0 LINE"
);
},
{
closed = 1;
nodes = (
"252 960 LINE",
"252 1332 LINE SMOOTH",
"252 1436 OFFCURVE",
"278 1462 OFFCURVE",
"378 1462 CURVE",
"212 1462 LINE",
"212 960 LINE"
);
},
{
closed = 1;
nodes = (
"1324 38 LINE",
"1324 560 LINE",
"1284 560 LINE",
"1284 168 LINE SMOOTH",
"1284 64 OFFCURVE",
"1258 38 OFFCURVE",
"1158 38 CURVE"
);
},
{
closed = 1;
nodes = (
"1272 1462 LINE",
"1336 1466 LINE",
"1336 1500 LINE",
"212 1500 LINE",
"212 1462 LINE"
);
}
);
width = 1500;
},
{
anchors = (
{
name = bottom;
position = "{826, 0}";
},
{
name = center;
position = "{826, 750}";
},
{
name = top;
position = "{840, 1500}";
}
);
layerId = "219068EA-2B9B-40DC-949E-B60449C01B8A";
paths = (
{
closed = 1;
nodes = (
"664 224 LINE",
"1529 1296 LINE",
"983 1282 LINE",
"118 210 LINE"
);
},
{
closed = 1;
nodes = (
"1519 0 LINE",
"1519 224 LINE",
"664 224 LINE",
"118 210 LINE",
"118 0 LINE"
);
},
{
closed = 1;
nodes = (
"400 920 LINE",
"400 1042 LINE SMOOTH",
"400 1212 OFFCURVE",
"460 1282 OFFCURVE",
"620 1282 CURVE",
"168 1282 LINE",
"168 920 LINE"
);
},
{
closed = 1;
nodes = (
"1519 224 LINE",
"1519 600 LINE",
"1287 600 LINE",
"1287 458 LINE SMOOTH",
"1287 292 OFFCURVE",
"1227 224 OFFCURVE",
"1067 224 CURVE"
);
},
{
closed = 1;
nodes = (
"983 1282 LINE",
"1529 1296 LINE",
"1529 1500 LINE",
"168 1500 LINE",
"168 1282 LINE"
);
}
);
width = 1651;
},
{
anchors = (
{
name = bottom;
position = "{752, 0}";
},
{
name = center;
position = "{752, 750}";
},
{
name = top;
position = "{770, 1500}";
}
);
layerId = "0C29AA02-E021-4BD1-A2C4-87F681D64C35";
paths = (
{
closed = 1;
nodes = (
"614 204 LINE",
"1403 1314 LINE",
"883 1300 LINE",
"94 190 LINE"
);
},
{
closed = 1;
nodes = (
"1393 0 LINE",
"1393 204 LINE",
"614 204 LINE",
"94 190 LINE",
"94 0 LINE"
);
},
{
closed = 1;
nodes = (
"342 900 LINE",
"342 1060 LINE SMOOTH",
"342 1230 OFFCURVE",
"402 1300 OFFCURVE",
"562 1300 CURVE",
"144 1300 LINE",
"144 900 LINE"
);
},
{
closed = 1;
nodes = (
"1393 204 LINE",
"1393 620 LINE",
"1195 620 LINE",
"1195 440 LINE SMOOTH",
"1195 273 OFFCURVE",
"1135 204 OFFCURVE",
"975 204 CURVE"
);
},
{
closed = 1;
nodes = (
"883 1300 LINE",
"1403 1314 LINE",
"1403 1500 LINE",
"144 1500 LINE",
"144 1300 LINE"
);
}
);
width = 1499;
},
{
anchors = (
{
name = bottom;
position = "{780, 0}";
},
{
name = center;
position = "{780, 750}";
},
{
name = top;
position = "{780, 1500}";
}
);
layerId = "2B88661E-23DD-4EDA-82FC-C2AEA983F097";
paths = (
{
closed = 1;
nodes = (
"236 50 LINE",
"1392 1454 LINE",
"1314 1450 LINE",
"158 46 LINE"
);
},
{
closed = 1;
nodes = (
"1384 0 LINE",
"1384 50 LINE",
"236 50 LINE",
"158 46 LINE",
"158 0 LINE"
);
},
{
closed = 1;
nodes = (
"255 1017 LINE",
"255 1316 LINE SMOOTH",
"255 1422 OFFCURVE",
"283 1450 OFFCURVE",
"385 1450 CURVE",
"206 1450 LINE",
"206 1017 LINE"
);
},
{
closed = 1;
nodes = (
"1384 50 LINE",
"1384 504 LINE",
"1334 504 LINE",
"1334 184 LINE SMOOTH",
"1334 78 OFFCURVE",
"1307 50 OFFCURVE",
"1205 50 CURVE"
);
},
{
closed = 1;
nodes = (
"1314 1450 LINE",
"1392 1454 LINE",
"1392 1500 LINE",
"206 1500 LINE",
"206 1450 LINE"
);
}
);
width = 1554;
}
);
leftKerningGroup = Z;
rightKerningGroup = Z;
unicode = 005A;
},
{
color = 8;
glyphname = a;
lastChange = "2021-05-13 22:53:37 +0000";
layers = (
{
anchors = (
{
name = bottom;
position = "{652, 0}";
},
{
name = ogonek;
position = "{1177, 0}";
},
{
name = top;
position = "{576, 1064}";
}
);
layerId = "1E61A082-F045-49A7-AB52-DD1B03FD9B54";
paths = (
{
closed = 1;
nodes = (
"305 709 OFFCURVE",
"327 730 OFFCURVE",
"327 763 CURVE SMOOTH",
"327 809 OFFCURVE",
"284 831 OFFCURVE",
"224 831 CURVE",
"234 811 LINE",
"232 995 OFFCURVE",
"401 1063 OFFCURVE",
"576 1063 CURVE SMOOTH",
"787 1063 OFFCURVE",
"878 971 OFFCURVE",
"878 818 CURVE",
"924 800 LINE",
"924 1010 OFFCURVE",
"800 1102 OFFCURVE",
"578 1102 CURVE SMOOTH",
"378 1102 OFFCURVE",
"196 1014 OFFCURVE",
"196 812 CURVE SMOOTH",
"196 749 OFFCURVE",
"224 709 OFFCURVE",
"271 709 CURVE SMOOTH"
);
},
{
closed = 1;
nodes = (
"1150 -12 OFFCURVE",
"1208 54 OFFCURVE",
"1208 170 CURVE SMOOTH",
"1208 660 LINE",
"1170 660 LINE",
"1170 170 LINE SMOOTH",
"1170 85 OFFCURVE",
"1128 26 OFFCURVE",
"1047 26 CURVE SMOOTH",
"965 26 OFFCURVE",
"924 85 OFFCURVE",
"924 170 CURVE SMOOTH",
"924 800 LINE",
"878 818 LINE",
"878 761 LINE",
"868 707 LINE",
"878 707 LINE",
"878 380 LINE",
"882 380 LINE",
"882 170 LINE SMOOTH",
"882 54 OFFCURVE",
"944 -12 OFFCURVE",
"1046 -12 CURVE SMOOTH"
);
},
{
closed = 1;
nodes = (
"721 -16 OFFCURVE",
"904 140 OFFCURVE",
"902 536 CURVE",
"878 536 LINE",
"878 162 OFFCURVE",
"686 23 OFFCURVE",
"458 23 CURVE SMOOTH",
"290 23 OFFCURVE",
"170 107 OFFCURVE",
"170 255 CURVE SMOOTH",
"170 415 OFFCURVE",
"275 485 OFFCURVE",
"464 528 CURVE SMOOTH",
"618 563 LINE SMOOTH",
"773 598 OFFCURVE",
"842 634 OFFCURVE",
"878 707 CURVE",
"888 707 LINE",
"878 810 LINE",
"878 666 OFFCURVE",
"767 634 OFFCURVE",
"610 600 CURVE SMOOTH",
"448 565 LINE SMOOTH",
"255 523 OFFCURVE",
"122 443 OFFCURVE",
"122 255 CURVE SMOOTH",
"122 86 OFFCURVE",
"256 -16 OFFCURVE",
"452 -16 CURVE SMOOTH"
);
}
);
width = 1298;
},
{
anchors = (
{
name = bottom;
position = "{815, 0}";
},
{
name = ogonek;
position = "{1470, 0}";
},
{
name = top;
position = "{715, 1160}";
}
);
layerId = "219068EA-2B9B-40DC-949E-B60449C01B8A";
paths = (
{
closed = 1;
nodes = (
"535 736 OFFCURVE",
"605 802 OFFCURVE",
"607 894 CURVE SMOOTH",
"609 991 OFFCURVE",
"531 1033 OFFCURVE",
"405 1040 CURVE",
"395 857 LINE",
"419 967 OFFCURVE",
"527 1002 OFFCURVE",
"638 1002 CURVE SMOOTH",
"749 1002 OFFCURVE",
"824 958 OFFCURVE",
"824 859 CURVE",
"1196 815 LINE",
"1199 1060 OFFCURVE",
"1032 1184 OFFCURVE",
"727 1184 CURVE SMOOTH",
"451 1184 OFFCURVE",
"192 1094 OFFCURVE",
"192 922 CURVE SMOOTH",
"192 794 OFFCURVE",
"296 736 OFFCURVE",
"415 736 CURVE SMOOTH"
);
},
{
closed = 1;
nodes = (
"1486 -28 OFFCURVE",
"1606 113 OFFCURVE",
"1606 337 CURVE SMOOTH",
"1606 618 LINE",
"1356 618 LINE",
"1356 306 LINE SMOOTH",
"1356 253 OFFCURVE",
"1328 216 OFFCURVE",
"1275 216 CURVE SMOOTH",
"1225 216 OFFCURVE",
"1196 253 OFFCURVE",
"1196 306 CURVE SMOOTH",
"1196 815 LINE",
"824 859 LINE",
"824 752 LINE",
"810 630 LINE",
"820 630 LINE",
"820 378 LINE",
"865 378 LINE",
"865 344 LINE SMOOTH",
"865 108 OFFCURVE",
"992 -28 OFFCURVE",
"1240 -28 CURVE SMOOTH"
);
},
{
closed = 1;
nodes = (
"707 -24 OFFCURVE",
"902 108 OFFCURVE",
"902 456 CURVE",
"820 463 LINE",
"820 309 OFFCURVE",
"728 258 OFFCURVE",
"642 258 CURVE SMOOTH",
"555 258 OFFCURVE",
"496 297 OFFCURVE",
"496 374 CURVE SMOOTH",
"496 455 OFFCURVE",
"554 485 OFFCURVE",
"654 522 CURVE SMOOTH",
"695 537 LINE SMOOTH",
"758 560 OFFCURVE",
"800 584 OFFCURVE",
"820 630 CURVE",
"830 630 LINE",
"824 859 LINE",
"824 769 OFFCURVE",
"767 727 OFFCURVE",
"648 696 CURVE SMOOTH",
"439 642 LINE SMOOTH",
"226 587 OFFCURVE",
"86 497 OFFCURVE",
"86 290 CURVE SMOOTH",
"86 97 OFFCURVE",
"247 -24 OFFCURVE",
"478 -24 CURVE SMOOTH"
);
}
);
width = 1636;
},
{
anchors = (
{
name = bottom;
position = "{741, 0}";
},
{
name = ogonek;
position = "{1334, 0}";
},
{
name = top;
position = "{661, 1140}";
}
);
layerId = "0C29AA02-E021-4BD1-A2C4-87F681D64C35";
paths = (
{
closed = 1;
nodes = (
"485 686 OFFCURVE",
"555 745 OFFCURVE",
"555 842 CURVE SMOOTH",
"555 945 OFFCURVE",
"475 988 OFFCURVE",
"349 988 CURVE",
"331 881 LINE",
"370 956 OFFCURVE",
"453 1006 OFFCURVE",
"570 1006 CURVE SMOOTH",
"675 1006 OFFCURVE",
"750 960 OFFCURVE",
"750 837 CURVE",
"1122 795 LINE",
"1125 1042 OFFCURVE",
"960 1166 OFFCURVE",
"665 1166 CURVE SMOOTH",
"399 1166 OFFCURVE",
"158 1064 OFFCURVE",
"158 868 CURVE SMOOTH",
"158 746 OFFCURVE",
"255 686 OFFCURVE",
"365 686 CURVE SMOOTH"
);
},
{
closed = 1;
nodes = (
"1351 -28 OFFCURVE",
"1452 109 OFFCURVE",
"1452 327 CURVE SMOOTH",
"1452 740 LINE",
"1254 740 LINE",
"1254 308 LINE SMOOTH",
"1254 261 OFFCURVE",
"1229 232 OFFCURVE",
"1185 232 CURVE SMOOTH",
"1147 232 OFFCURVE",
"1122 261 OFFCURVE",
"1122 308 CURVE SMOOTH",
"1122 795 LINE",
"750 837 LINE",
"750 731 LINE",
"736 631 LINE",
"746 631 LINE",
"746 356 LINE",
"793 356 LINE",
"793 324 LINE SMOOTH",
"793 100 OFFCURVE",
"891 -28 OFFCURVE",
"1118 -28 CURVE SMOOTH"
);
},
{
closed = 1;
nodes = (
"668 -26 OFFCURVE",
"809 111 OFFCURVE",
"811 410 CURVE",
"746 433 LINE",
"746 296 OFFCURVE",
"672 242 OFFCURVE",
"585 242 CURVE SMOOTH",
"512 242 OFFCURVE",
"462 288 OFFCURVE",
"462 365 CURVE SMOOTH",
"462 439 OFFCURVE",
"511 484 OFFCURVE",
"593 517 CURVE SMOOTH",
"635 534 LINE SMOOTH",
"694 558 OFFCURVE",
"730 589 OFFCURVE",
"746 631 CURVE",
"756 631 LINE",
"750 838 LINE",
"750 743 OFFCURVE",
"695 701 OFFCURVE",
"587 671 CURVE SMOOTH",
"395 618 LINE SMOOTH",
"199 564 OFFCURVE",
"58 473 OFFCURVE",
"58 276 CURVE SMOOTH",
"58 98 OFFCURVE",
"193 -26 OFFCURVE",
"422 -26 CURVE SMOOTH"
);
}
);
width = 1492;
},
{
anchors = (
{
name = bottom;
position = "{705, 0}";
},
{
name = ogonek;
position = "{1306, 0}";
},
{
name = top;
position = "{628, 1100}";
}
);
layerId = "2B88661E-23DD-4EDA-82FC-C2AEA983F097";
paths = (
{
closed = 1;
nodes = (
"333 747 OFFCURVE",
"357 771 OFFCURVE",
"357 806 CURVE SMOOTH",
"357 854 OFFCURVE",
"315 880 OFFCURVE",
"254 879 CURVE",
"264 852 LINE",
"261 999 OFFCURVE",
"439 1065 OFFCURVE",
"630 1065 CURVE SMOOTH",
"849 1065 OFFCURVE",
"948 979 OFFCURVE",
"948 846 CURVE",
"1008 827 LINE",
"1008 1023 OFFCURVE",
"872 1116 OFFCURVE",
"635 1116 CURVE SMOOTH",
"414 1116 OFFCURVE",
"211 1030 OFFCURVE",
"211 852 CURVE SMOOTH",
"211 783 OFFCURVE",
"250 747 OFFCURVE",
"295 747 CURVE SMOOTH"
);
},
{
closed = 1;
nodes = (
"1274 -16 OFFCURVE",
"1346 64 OFFCURVE",
"1346 203 CURVE SMOOTH",
"1346 581 LINE",
"1294 581 LINE",
"1294 202 LINE SMOOTH",
"1294 103 OFFCURVE",
"1248 34 OFFCURVE",
"1152 34 CURVE SMOOTH",
"1056 34 OFFCURVE",
"1008 103 OFFCURVE",
"1008 202 CURVE SMOOTH",
"1008 827 LINE",
"948 846 LINE",
"948 776 LINE",
"938 701 LINE",
"948 701 LINE",
"948 332 LINE",
"954 332 LINE",
"954 203 LINE SMOOTH",
"954 64 OFFCURVE",
"1029 -16 OFFCURVE",
"1151 -16 CURVE SMOOTH"
);
},
{
closed = 1;
nodes = (
"785 -18 OFFCURVE",
"991 142 OFFCURVE",
"989 543 CURVE",
"948 543 LINE",
"948 174 OFFCURVE",
"751 34 OFFCURVE",
"517 34 CURVE SMOOTH",
"328 34 OFFCURVE",
"208 117 OFFCURVE",
"208 261 CURVE SMOOTH",
"208 437 OFFCURVE",
"343 493 OFFCURVE",
"513 528 CURVE SMOOTH",
"684 563 LINE SMOOTH",
"827 592 OFFCURVE",
"910 624 OFFCURVE",
"948 701 CURVE",
"958 701 LINE",
"948 839 LINE",
"948 685 OFFCURVE",
"836 645 OFFCURVE",
"674 612 CURVE SMOOTH",
"489 574 LINE SMOOTH",
"291 533 OFFCURVE",
"148 458 OFFCURVE",
"148 258 CURVE SMOOTH",
"148 85 OFFCURVE",
"292 -18 OFFCURVE",
"505 -18 CURVE SMOOTH"
);
}
);
width = 1418;
}
);
leftKerningGroup = a;
rightKerningGroup = a;
unicode = 0061;
},
{
color = 8;
glyphname = ae;
lastChange = "2021-05-13 14:17:15 +0000";
layers = (
{
anchors = (
{
name = top;
position = "{934, 1080}";
}
);
layerId = "1E61A082-F045-49A7-AB52-DD1B03FD9B54";
paths = (
{
closed = 1;
nodes = (
"293 710 OFFCURVE",
"313 731 OFFCURVE",
"313 765 CURVE SMOOTH",
"313 809 OFFCURVE",
"261 834 OFFCURVE",
"210 827 CURVE",
"227 811 LINE",
"221 993 OFFCURVE",
"380 1058 OFFCURVE",
"560 1058 CURVE SMOOTH",
"777 1058 OFFCURVE",
"878 967 OFFCURVE",
"878 818 CURVE",
"924 800 LINE",
"924 1005 OFFCURVE",
"787 1096 OFFCURVE",
"562 1096 CURVE SMOOTH",
"359 1096 OFFCURVE",
"182 1013 OFFCURVE",
"182 812 CURVE SMOOTH",
"182 747 OFFCURVE",
"215 710 OFFCURVE",
"259 710 CURVE SMOOTH"
);
},
{
closed = 1;
nodes = (
"924 800 LINE",
"878 818 LINE",
"878 761 LINE",
"868 704 LINE",
"878 704 LINE",
"878 412 LINE",
"896 417 LINE",
"924 417 LINE"
);
},
{
closed = 1;
nodes = (
"714 -16 OFFCURVE",
"908 141 OFFCURVE",
"910 496 CURVE",
"878 536 LINE",
"878 162 OFFCURVE",
"686 22 OFFCURVE",
"458 22 CURVE SMOOTH",
"290 22 OFFCURVE",
"170 107 OFFCURVE",
"170 255 CURVE SMOOTH",
"170 415 OFFCURVE",
"275 486 OFFCURVE",
"464 528 CURVE SMOOTH",
"618 562 LINE SMOOTH",
"773 596 OFFCURVE",
"841 628 OFFCURVE",
"878 704 CURVE",
"888 704 LINE",
"878 810 LINE",
"878 666 OFFCURVE",
"767 634 OFFCURVE",
"610 599 CURVE SMOOTH",
"448 563 LINE SMOOTH",
"255 520 OFFCURVE",
"122 443 OFFCURVE",
"122 255 CURVE SMOOTH",
"122 86 OFFCURVE",
"258 -16 OFFCURVE",
"454 -16 CURVE SMOOTH"
);
},
{
closed = 1;
nodes = (
"1634 -16 OFFCURVE",
"1755 214 OFFCURVE",
"1769 380 CURVE",
"1729 380 LINE",
"1716 235 OFFCURVE",
"1611 24 OFFCURVE",
"1342 24 CURVE SMOOTH",
"1093 24 OFFCURVE",
"926 217 OFFCURVE",
"926 540 CURVE SMOOTH",
"926 863 OFFCURVE",
"1091 1058 OFFCURVE",
"1342 1058 CURVE",
"1342 1096 LINE",
"1068 1096 OFFCURVE",
"882 894 OFFCURVE",
"882 540 CURVE SMOOTH",
"882 186 OFFCURVE",
"1070 -16 OFFCURVE",
"1342 -16 CURVE SMOOTH"
);
},
{
closed = 1;
nodes = (
"1778 586 LINE",
"1778 600 LINE",
"1734 624 LINE",
"910 624 LINE",
"910 586 LINE"
);
},
{
closed = 1;
nodes = (
"1778 892 OFFCURVE",
"1625 1096 OFFCURVE",
"1342 1096 CURVE",
"1342 1058 LINE",
"1601 1058 OFFCURVE",
"1725 864 OFFCURVE",
"1734 624 CURVE",
"1778 600 LINE"
);
}
);
width = 1898;
},
{
anchors = (
{
name = top;
position = "{1006, 1160}";
}
);
layerId = "219068EA-2B9B-40DC-949E-B60449C01B8A";
paths = (
{
closed = 1;
nodes = (
"492 726 OFFCURVE",
"563 792 OFFCURVE",
"565 884 CURVE SMOOTH",
"567 981 OFFCURVE",
"488 1023 OFFCURVE",
"359 1030 CURVE",
"349 847 LINE",
"396 939 OFFCURVE",
"491 1006 OFFCURVE",
"610 1006 CURVE SMOOTH",
"718 1006 OFFCURVE",
"798 957 OFFCURVE",
"798 853 CURVE",
"1100 759 LINE",
"1103 1043 OFFCURVE",
"942 1186 OFFCURVE",
"633 1186 CURVE SMOOTH",
"379 1186 OFFCURVE",
"138 1091 OFFCURVE",
"138 914 CURVE SMOOTH",
"138 786 OFFCURVE",
"248 726 OFFCURVE",
"369 726 CURVE SMOOTH"
);
},
{
closed = 1;
nodes = (
"1100 759 LINE",
"798 853 LINE",
"798 752 LINE",
"784 651 LINE",
"794 651 LINE",
"794 378 LINE",
"859 378 LINE",
"1100 332 LINE"
);
},
{
closed = 1;
nodes = (
"735 -26 OFFCURVE",
"892 109 OFFCURVE",
"902 353 CURVE",
"794 463 LINE",
"794 309 OFFCURVE",
"706 258 OFFCURVE",
"624 258 CURVE SMOOTH",
"552 258 OFFCURVE",
"496 299 OFFCURVE",
"496 376 CURVE SMOOTH",
"496 453 OFFCURVE",
"541 492 OFFCURVE",
"634 531 CURVE SMOOTH",
"670 546 LINE SMOOTH",
"733 572 OFFCURVE",
"772 606 OFFCURVE",
"794 651 CURVE",
"804 651 LINE",
"798 854 LINE",
"798 760 OFFCURVE",
"738 724 OFFCURVE",
"625 693 CURVE SMOOTH",
"431 640 LINE SMOOTH",
"224 583 OFFCURVE",
"86 495 OFFCURVE",
"86 290 CURVE SMOOTH",
"86 106 OFFCURVE",
"235 -26 OFFCURVE",
"482 -26 CURVE SMOOTH"
);
},
{
closed = 1;
nodes = (
"1738 -26 OFFCURVE",
"1902 205 OFFCURVE",
"1916 440 CURVE",
"1664 440 LINE",
"1635 341 OFFCURVE",
"1570 267 OFFCURVE",
"1441 267 CURVE SMOOTH",
"1284 267 OFFCURVE",
"1186 399 OFFCURVE",
"1186 610 CURVE SMOOTH",
"1186 873 OFFCURVE",
"1255 970 OFFCURVE",
"1377 970 CURVE",
"1385 1186 LINE",
"1065 1186 OFFCURVE",
"834 970 OFFCURVE",
"834 580 CURVE SMOOTH",
"834 189 OFFCURVE",
"1073 -26 OFFCURVE",
"1411 -26 CURVE SMOOTH"
);
},
{
closed = 1;
nodes = (
"1930 560 LINE",
"1930 637 LINE",
"1536 758 LINE",
"974 758 LINE",
"974 560 LINE"
);
},
{
closed = 1;
nodes = (
"1930 964 OFFCURVE",
"1729 1186 OFFCURVE",
"1385 1186 CURVE",
"1377 970 LINE",
"1481 970 OFFCURVE",
"1533 873 OFFCURVE",
"1536 758 CURVE",
"1930 637 LINE"
);
}
);
width = 2020;
},
{
anchors = (
{
name = top;
position = "{918, 1140}";
}
);
layerId = "0C29AA02-E021-4BD1-A2C4-87F681D64C35";
paths = (
{
closed = 1;
nodes = (
"468 682 OFFCURVE",
"545 751 OFFCURVE",
"545 846 CURVE SMOOTH",
"545 951 OFFCURVE",
"457 988 OFFCURVE",
"319 988 CURVE",
"319 865 LINE",
"362 946 OFFCURVE",
"439 1006 OFFCURVE",
"554 1006 CURVE SMOOTH",
"665 1006 OFFCURVE",
"730 952 OFFCURVE",
"730 831 CURVE",
"1032 759 LINE",
"1035 1030 OFFCURVE",
"891 1166 OFFCURVE",
"601 1166 CURVE SMOOTH",
"347 1166 OFFCURVE",
"118 1060 OFFCURVE",
"118 862 CURVE SMOOTH",
"118 739 OFFCURVE",
"223 682 OFFCURVE",
"339 682 CURVE SMOOTH"
);
},
{
closed = 1;
nodes = (
"1032 759 LINE",
"730 831 LINE",
"730 731 LINE",
"716 631 LINE",
"726 631 LINE",
"726 360 LINE",
"819 365 LINE",
"1032 318 LINE"
);
},
{
closed = 1;
nodes = (
"684 -26 OFFCURVE",
"823 150 OFFCURVE",
"819 365 CURVE",
"726 433 LINE",
"726 296 OFFCURVE",
"660 242 OFFCURVE",
"580 242 CURVE SMOOTH",
"512 242 OFFCURVE",
"462 288 OFFCURVE",
"462 365 CURVE SMOOTH",
"462 439 OFFCURVE",
"512 479 OFFCURVE",
"593 517 CURVE SMOOTH",
"625 532 LINE SMOOTH",
"678 557 OFFCURVE",
"711 589 OFFCURVE",
"726 631 CURVE",
"736 631 LINE",
"730 832 LINE",
"730 743 OFFCURVE",
"678 700 OFFCURVE",
"577 671 CURVE SMOOTH",
"395 618 LINE SMOOTH",
"200 561 OFFCURVE",
"58 469 OFFCURVE",
"58 278 CURVE SMOOTH",
"58 98 OFFCURVE",
"197 -26 OFFCURVE",
"432 -26 CURVE SMOOTH"
);
},
{
closed = 1;
nodes = (
"1626 -26 OFFCURVE",
"1798 210 OFFCURVE",
"1804 490 CURVE",
"1628 490 LINE",
"1611 362 OFFCURVE",
"1538 249 OFFCURVE",
"1391 249 CURVE SMOOTH",
"1218 249 OFFCURVE",
"1124 386 OFFCURVE",
"1124 628 CURVE SMOOTH",
"1124 908 OFFCURVE",
"1187 992 OFFCURVE",
"1283 992 CURVE",
"1295 1166 LINE",
"982 1166 OFFCURVE",
"756 939 OFFCURVE",
"756 558 CURVE SMOOTH",
"756 191 OFFCURVE",
"980 -26 OFFCURVE",
"1299 -26 CURVE SMOOTH"
);
},
{
closed = 1;
nodes = (
"1816 570 LINE",
"1816 631 LINE",
"1412 748 LINE",
"924 748 LINE",
"924 570 LINE"
);
},
{
closed = 1;
nodes = (
"1816 941 OFFCURVE",
"1633 1166 OFFCURVE",
"1295 1166 CURVE",
"1283 992 LINE",
"1365 992 OFFCURVE",
"1410 899 OFFCURVE",
"1412 748 CURVE",
"1816 631 LINE"
);
}
);
width = 1876;
},
{
anchors = (
{
name = top;
position = "{1003, 1102}";
}
);
layerId = "2B88661E-23DD-4EDA-82FC-C2AEA983F097";
paths = (
{
closed = 1;
nodes = (
"333 748 OFFCURVE",
"356 770 OFFCURVE",
"356 806 CURVE SMOOTH",
"356 852 OFFCURVE",
"303 878 OFFCURVE",
"250 871 CURVE",
"267 852 LINE",
"264 999 OFFCURVE",
"439 1065 OFFCURVE",
"630 1065 CURVE SMOOTH",
"849 1065 OFFCURVE",
"948 979 OFFCURVE",
"948 846 CURVE",
"1003 829 LINE",
"1003 1025 OFFCURVE",
"872 1116 OFFCURVE",
"635 1116 CURVE SMOOTH",
"414 1116 OFFCURVE",
"211 1030 OFFCURVE",
"211 852 CURVE SMOOTH",
"211 785 OFFCURVE",
"249 748 OFFCURVE",
"295 748 CURVE SMOOTH"
);
},
{
closed = 1;
nodes = (
"1003 829 LINE",
"948 848 LINE",
"948 776 LINE",
"937 701 LINE",
"948 701 LINE",
"948 437 LINE",
"967 440 LINE",
"1003 438 LINE"
);
},
{
closed = 1;
nodes = (
"793 -18 OFFCURVE",
"993 142 OFFCURVE",
"991 543 CURVE",
"948 543 LINE",
"948 174 OFFCURVE",
"751 34 OFFCURVE",
"517 34 CURVE SMOOTH",
"328 34 OFFCURVE",
"208 117 OFFCURVE",
"208 261 CURVE SMOOTH",
"208 437 OFFCURVE",
"343 493 OFFCURVE",
"513 528 CURVE SMOOTH",
"684 563 LINE SMOOTH",
"827 592 OFFCURVE",
"910 624 OFFCURVE",
"948 701 CURVE",
"958 701 LINE",
"948 839 LINE",
"948 685 OFFCURVE",
"836 645 OFFCURVE",
"674 612 CURVE SMOOTH",
"489 574 LINE SMOOTH",
"291 533 OFFCURVE",
"148 458 OFFCURVE",
"148 258 CURVE SMOOTH",
"148 85 OFFCURVE",
"292 -18 OFFCURVE",
"505 -18 CURVE SMOOTH"
);
},
{
closed = 1;
nodes = (
"1735 -16 OFFCURVE",
"1854 186 OFFCURVE",
"1880 328 CURVE",
"1825 328 LINE",
"1799 213 OFFCURVE",
"1701 36 OFFCURVE",
"1438 36 CURVE SMOOTH",
"1172 36 OFFCURVE",
"1007 228 OFFCURVE",
"1007 551 CURVE SMOOTH",
"1007 874 OFFCURVE",
"1173 1064 OFFCURVE",
"1438 1064 CURVE",
"1438 1116 LINE",
"1143 1116 OFFCURVE",
"952 911 OFFCURVE",
"952 550 CURVE SMOOTH",
"952 189 OFFCURVE",
"1141 -16 OFFCURVE",
"1437 -16 CURVE SMOOTH"
);
},
{
closed = 1;
nodes = (
"1897 589 LINE",
"1897 612 LINE",
"1841 639 LINE",
"984 639 LINE",
"984 589 LINE"
);
},
{
closed = 1;
nodes = (
"1897 909 OFFCURVE",
"1734 1116 OFFCURVE",
"1438 1116 CURVE",
"1438 1064 LINE",
"1704 1064 OFFCURVE",
"1830 876 OFFCURVE",
"1841 639 CURVE",
"1897 612 LINE"
);
}
);
width = 2029;
}
);
leftKerningGroup = a;
leftMetricsKey = a;
rightKerningGroup = o;
rightMetricsKey = e;
unicode = 00E6;
},
{
color = 8;
glyphname = b;
lastChange = "2021-05-13 20:58:24 +0000";
layers = (
{
anchors = (
{
name = bottom;
position = "{651, 0}";
},
{
name = top;
position = "{651, 1500}";
}
);
hints = (
{
origin = "{2, 5}";
scale = "{-0.9, 1}";
type = Corner;
name = _corner.Serif;
}
);
layerId = "1E61A082-F045-49A7-AB52-DD1B03FD9B54";
paths = (
{
closed = 1;
nodes = (
"981 -20 OFFCURVE",
"1175 187 OFFCURVE",
"1175 540 CURVE SMOOTH",
"1175 894 OFFCURVE",
"981 1102 OFFCURVE",
"703 1102 CURVE SMOOTH",
"418 1102 OFFCURVE",
"246 895 OFFCURVE",
"246 541 CURVE",
"246 539 LINE",
"246 186 OFFCURVE",
"417 -20 OFFCURVE",
"703 -20 CURVE SMOOTH"
);
},
{
closed = 1;
nodes = (
"451 19 OFFCURVE",
"271 214 OFFCURVE",
"271 540 CURVE SMOOTH",
"271 868 OFFCURVE",
"451 1063 OFFCURVE",
"703 1063 CURVE SMOOTH",
"951 1063 OFFCURVE",
"1125 868 OFFCURVE",
"1125 540 CURVE SMOOTH",
"1125 214 OFFCURVE",
"951 19 OFFCURVE",
"703 19 CURVE SMOOTH"
);
},
{
closed = 1;
nodes = (
"271 0 LINE",
"271 324 LINE",
"255 540 LINE",
"275 736 LINE",
"275 1500 LINE",
"227 1500 LINE",
"227 0 LINE"
);
}
);
width = 1293;
},
{
anchors = (
{
name = bottom;
position = "{777, 0}";
},
{
name = top;
position = "{777, 1580}";
}
);
hints = (
{
origin = "{2, 5}";
scale = "{-0.9, 0.96933}";
type = Corner;
name = _corner.Serif;
}
);
layerId = "219068EA-2B9B-40DC-949E-B60449C01B8A";
paths = (
{
closed = 1;
nodes = (
"1250 -22 OFFCURVE",
"1467 194 OFFCURVE",
"1467 580 CURVE SMOOTH",
"1467 966 OFFCURVE",
"1250 1182 OFFCURVE",
"940 1182 CURVE SMOOTH",
"614 1182 OFFCURVE",
"510 956 OFFCURVE",
"510 580 CURVE",
"482 580 LINE",
"482 214 OFFCURVE",
"614 -22 OFFCURVE",
"936 -22 CURVE SMOOTH"
);
},
{
closed = 1;
nodes = (
"639 230 OFFCURVE",
"549 350 OFFCURVE",
"549 580 CURVE SMOOTH",
"549 810 OFFCURVE",
"639 930 OFFCURVE",
"793 930 CURVE SMOOTH",
"945 930 OFFCURVE",
"1035 810 OFFCURVE",
"1035 580 CURVE SMOOTH",
"1035 350 OFFCURVE",
"945 230 OFFCURVE",
"793 230 CURVE SMOOTH"
);
},
{
closed = 1;
nodes = (
"539 0 LINE",
"539 262 LINE",
"518 581 LINE",
"569 838 LINE",
"569 1580 LINE",
"169 1580 LINE",
"169 0 LINE"
);
}
);
width = 1553;
},
{
anchors = (
{
name = bottom;
position = "{708, 0}";
},
{
name = top;
position = "{708, 1500}";
}
);
hints = (
{
origin = "{2, 5}";
scale = "{-0.9, 0.96933}";
type = Corner;
name = _corner.Serif;
}
);
layerId = "0C29AA02-E021-4BD1-A2C4-87F681D64C35";
paths = (
{
closed = 1;
nodes = (
"1172 -22 OFFCURVE",
"1368 180 OFFCURVE",
"1368 570 CURVE SMOOTH",
"1368 960 OFFCURVE",
"1172 1162 OFFCURVE",
"883 1162 CURVE SMOOTH",
"558 1162 OFFCURVE",
"465 920 OFFCURVE",
"465 570 CURVE",
"443 570 LINE",
"441 230 OFFCURVE",
"558 -22 OFFCURVE",
"879 -22 CURVE SMOOTH"
);
},
{
closed = 1;
nodes = (
"594 198 OFFCURVE",
"520 326 OFFCURVE",
"520 570 CURVE SMOOTH",
"520 814 OFFCURVE",
"594 942 OFFCURVE",
"728 942 CURVE SMOOTH",
"860 942 OFFCURVE",
"934 814 OFFCURVE",
"934 570 CURVE SMOOTH",
"934 326 OFFCURVE",
"860 198 OFFCURVE",
"728 198 CURVE SMOOTH"
);
},
{
closed = 1;
nodes = (
"510 0 LINE",
"510 262 LINE",
"479 581 LINE",
"540 838 LINE",
"540 1500 LINE",
"140 1500 LINE",
"140 0 LINE"
);
}
);
width = 1434;
},
{
anchors = (
{
name = bottom;
position = "{716, 0}";
},
{
name = top;
position = "{716, 1560}";
}
);
hints = (
{
origin = "{2, 5}";
scale = "{-0.9, 1}";
type = Corner;
name = _corner.Serif;
}
);
layerId = "2B88661E-23DD-4EDA-82FC-C2AEA983F097";
paths = (
{
closed = 1;
nodes = (
"1089 -17 OFFCURVE",
"1302 197 OFFCURVE",
"1302 550 CURVE SMOOTH",
"1302 903 OFFCURVE",
"1089 1117 OFFCURVE",
"791 1117 CURVE SMOOTH",
"474 1117 OFFCURVE",
"284 903 OFFCURVE",
"284 551 CURVE",
"283 549 LINE",
"283 198 OFFCURVE",
"474 -17 OFFCURVE",
"791 -17 CURVE SMOOTH"
);
},
{
closed = 1;
nodes = (
"516 35 OFFCURVE",
"324 226 OFFCURVE",
"324 550 CURVE SMOOTH",
"324 874 OFFCURVE",
"516 1065 OFFCURVE",
"786 1065 CURVE SMOOTH",
"1053 1065 OFFCURVE",
"1240 874 OFFCURVE",
"1240 550 CURVE SMOOTH",
"1240 226 OFFCURVE",
"1053 35 OFFCURVE",
"786 35 CURVE SMOOTH"
);
},
{
closed = 1;
nodes = (
"323 0 LINE",
"323 331 LINE",
"297 550 LINE",
"327 748 LINE",
"327 1560 LINE",
"267 1560 LINE",
"267 0 LINE"
);
}
);
width = 1434;
}
);
leftKerningGroup = b;
rightKerningGroup = o;
rightMetricsKey = p;
unicode = 0062;
},
{
color = 8;
glyphname = c;
lastChange = "2021-05-13 22:48:33 +0000";
layers = (
{
anchors = (
{
name = bottom;
position = "{576, 0}";
},
{
name = top;
position = "{614, 1080}";
}
);
layerId = "1E61A082-F045-49A7-AB52-DD1B03FD9B54";
rightMetricsKey = "=o-14";
paths = (
{
closed = 1;
nodes = (
"902 -20 OFFCURVE",
"1031 194 OFFCURVE",
"1047 407 CURVE",
"1013 407 LINE",
"999 226 OFFCURVE",
"879 22 OFFCURVE",
"606 22 CURVE SMOOTH",
"346 22 OFFCURVE",
"175 216 OFFCURVE",
"175 538 CURVE SMOOTH",
"175 866 OFFCURVE",
"354 1064 OFFCURVE",
"620 1064 CURVE",
"620 1102 LINE",
"328 1102 OFFCURVE",
"126 897 OFFCURVE",
"126 538 CURVE SMOOTH",
"126 183 OFFCURVE",
"321 -20 OFFCURVE",
"606 -20 CURVE SMOOTH"
);
},
{
closed = 1;
nodes = (
"1004 676 OFFCURVE",
"1030 705 OFFCURVE",
"1030 770 CURVE SMOOTH",
"1030 934 OFFCURVE",
"900 1102 OFFCURVE",
"620 1102 CURVE",
"620 1064 LINE",
"882 1064 OFFCURVE",
"990 910 OFFCURVE",
"986 766 CURVE",
"1003 788 LINE",
"955 794 OFFCURVE",
"906 775 OFFCURVE",
"906 728 CURVE SMOOTH",
"906 696 OFFCURVE",
"927 676 OFFCURVE",
"960 676 CURVE SMOOTH"
);
}
);
width = 1159;
},
{
anchors = (
{
name = bottom;
position = "{662, 0}";
},
{
name = top;
position = "{704, 1160}";
}
);
layerId = "219068EA-2B9B-40DC-949E-B60449C01B8A";
rightMetricsKey = "=o+8";
paths = (
{
closed = 1;
nodes = (
"1040 -26 OFFCURVE",
"1245 185 OFFCURVE",
"1252 467 CURVE",
"1024 467 LINE",
"1002 360 OFFCURVE",
"918 276 OFFCURVE",
"784 276 CURVE SMOOTH",
"586 276 OFFCURVE",
"475 426 OFFCURVE",
"475 639 CURVE SMOOTH",
"475 846 OFFCURVE",
"587 986 OFFCURVE",
"770 986 CURVE",
"717 1184 LINE",
"344 1184 OFFCURVE",
"76 979 OFFCURVE",
"76 581 CURVE SMOOTH",
"76 182 OFFCURVE",
"336 -26 OFFCURVE",
"699 -26 CURVE SMOOTH"
);
},
{
closed = 1;
nodes = (
"1138 681 OFFCURVE",
"1234 753 OFFCURVE",
"1234 874 CURVE SMOOTH",
"1234 1051 OFFCURVE",
"1030 1184 OFFCURVE",
"717 1184 CURVE",
"770 986 LINE",
"885 986 OFFCURVE",
"943 947 OFFCURVE",
"1020 862 CURVE",
"1015 1002 LINE",
"880 1002 OFFCURVE",
"799 945 OFFCURVE",
"799 846 CURVE SMOOTH",
"799 750 OFFCURVE",
"876 681 OFFCURVE",
"1005 681 CURVE SMOOTH"
);
}
);
width = 1336;
},
{
anchors = (
{
name = bottom;
position = "{614, 0}";
},
{
name = top;
position = "{644, 1140}";
}
);
layerId = "0C29AA02-E021-4BD1-A2C4-87F681D64C35";
rightMetricsKey = "=o+10";
paths = (
{
closed = 1;
nodes = (
"983 -30 OFFCURVE",
"1163 183 OFFCURVE",
"1170 489 CURVE",
"994 489 LINE",
"975 369 OFFCURVE",
"889 268 OFFCURVE",
"736 268 CURVE SMOOTH",
"550 268 OFFCURVE",
"445 419 OFFCURVE",
"445 629 CURVE SMOOTH",
"445 844 OFFCURVE",
"537 1003 OFFCURVE",
"740 1003 CURVE",
"661 1164 LINE",
"294 1164 OFFCURVE",
"52 955 OFFCURVE",
"52 571 CURVE SMOOTH",
"52 183 OFFCURVE",
"294 -30 OFFCURVE",
"643 -30 CURVE SMOOTH"
);
},
{
closed = 1;
nodes = (
"1072 615 OFFCURVE",
"1160 698 OFFCURVE",
"1160 824 CURVE SMOOTH",
"1160 1010 OFFCURVE",
"946 1164 OFFCURVE",
"661 1164 CURVE",
"740 1003 LINE",
"873 1003 OFFCURVE",
"951 940 OFFCURVE",
"990 852 CURVE",
"941 956 LINE",
"810 956 OFFCURVE",
"725 898 OFFCURVE",
"725 788 CURVE SMOOTH",
"725 684 OFFCURVE",
"809 615 OFFCURVE",
"935 615 CURVE SMOOTH"
);
}
);
width = 1232;
},
{
anchors = (
{
name = bottom;
position = "{622, 0}";
},
{
name = top;
position = "{678, 1100}";
}
);
layerId = "2B88661E-23DD-4EDA-82FC-C2AEA983F097";
paths = (
{
closed = 1;
nodes = (
"982 -20 OFFCURVE",
"1117 209 OFFCURVE",
"1128 365 CURVE",
"1074 365 LINE",
"1063 241 OFFCURVE",
"944 38 OFFCURVE",
"660 38 CURVE SMOOTH",
"382 38 OFFCURVE",
"194 231 OFFCURVE",
"194 553 CURVE SMOOTH",
"194 877 OFFCURVE",
"392 1074 OFFCURVE",
"681 1074 CURVE",
"679 1126 LINE",
"358 1126 OFFCURVE",
"132 916 OFFCURVE",
"132 551 CURVE SMOOTH",
"132 188 OFFCURVE",
"350 -20 OFFCURVE",
"658 -20 CURVE SMOOTH"
);
},
{
closed = 1;
nodes = (
"1081 691 OFFCURVE",
"1110 732 OFFCURVE",
"1110 798 CURVE SMOOTH",
"1110 950 OFFCURVE",
"970 1126 OFFCURVE",
"679 1126 CURVE",
"681 1074 LINE",
"946 1074 OFFCURVE",
"1059 921 OFFCURVE",
"1058 794 CURVE",
"1077 828 LINE",
"1023 828 OFFCURVE",
"970 805 OFFCURVE",
"970 750 CURVE SMOOTH",
"970 715 OFFCURVE",
"995 691 OFFCURVE",
"1032 691 CURVE SMOOTH"
);
}
);
width = 1260;
}
);
leftKerningGroup = o;
leftMetricsKey = o;
rightKerningGroup = c;
rightMetricsKey = o;
unicode = 0063;
},
{
color = 8;
glyphname = d;
lastChange = "2021-05-24 11:15:17 +0000";
layers = (
{
anchors = (
{
name = bottom;
position = "{652, 0}";
},
{
name = center;
position = "{652, 540}";
},
{
name = top;
position = "{652, 1500}";
},
{
name = topright;
position = "{1066, 1500}";
}
);
hints = (
{
origin = "{2, 0}";
scale = "{-0.9, 1}";
type = Corner;
name = _corner.Serif;
},
{
origin = "{2, 2}";
scale = "{-0.9, 1}";
type = Corner;
name = _corner.Serif;
}
);
layerId = "1E61A082-F045-49A7-AB52-DD1B03FD9B54";
paths = (
{
closed = 1;
nodes = (
"876 -20 OFFCURVE",
"1047 186 OFFCURVE",
"1047 539 CURVE",
"1047 541 LINE",
"1047 894 OFFCURVE",
"875 1100 OFFCURVE",
"590 1100 CURVE SMOOTH",
"312 1100 OFFCURVE",
"118 893 OFFCURVE",
"118 540 CURVE SMOOTH",
"118 187 OFFCURVE",
"312 -20 OFFCURVE",
"590 -20 CURVE SMOOTH"
);
},
{
closed = 1;
nodes = (
"342 19 OFFCURVE",
"168 214 OFFCURVE",
"168 540 CURVE SMOOTH",
"168 866 OFFCURVE",
"342 1061 OFFCURVE",
"590 1061 CURVE SMOOTH",
"842 1061 OFFCURVE",
"1022 866 OFFCURVE",
"1022 540 CURVE SMOOTH",
"1022 214 OFFCURVE",
"842 19 OFFCURVE",
"590 19 CURVE SMOOTH"
);
},
{
closed = 1;
nodes = (
"1066 0 LINE",
"1066 1500 LINE",
"1018 1500 LINE",
"1018 736 LINE",
"1034 540 LINE",
"1022 324 LINE",
"1022 0 LINE"
);
}
);
width = 1317;
},
{
anchors = (
{
name = bottom;
position = "{789, 0}";
},
{
name = center;
position = "{789, 580}";
},
{
name = top;
position = "{789, 1580}";
},
{
name = topright;
position = "{1384, 1580}";
}
);
hints = (
{
origin = "{2, 2}";
scale = "{-0.92, 0.98}";
type = Corner;
name = _corner.Serif;
},
{
origin = "{2, 0}";
scale = "{-0.92, 0.98}";
type = Corner;
name = _corner.Serif;
}
);
layerId = "219068EA-2B9B-40DC-949E-B60449C01B8A";
paths = (
{
closed = 1;
nodes = (
"939 -22 OFFCURVE",
"1071 214 OFFCURVE",
"1071 580 CURVE",
"1043 580 LINE",
"1043 956 OFFCURVE",
"939 1182 OFFCURVE",
"613 1182 CURVE SMOOTH",
"303 1182 OFFCURVE",
"86 966 OFFCURVE",
"86 580 CURVE SMOOTH",
"86 194 OFFCURVE",
"303 -22 OFFCURVE",
"617 -22 CURVE SMOOTH"
);
},
{
closed = 1;
nodes = (
"608 230 OFFCURVE",
"518 350 OFFCURVE",
"518 580 CURVE SMOOTH",
"518 810 OFFCURVE",
"608 930 OFFCURVE",
"760 930 CURVE SMOOTH",
"914 930 OFFCURVE",
"1004 810 OFFCURVE",
"1004 580 CURVE SMOOTH",
"1004 350 OFFCURVE",
"914 230 OFFCURVE",
"760 230 CURVE SMOOTH"
);
},
{
closed = 1;
nodes = (
"1384 0 LINE",
"1384 1580 LINE",
"984 1580 LINE",
"984 838 LINE",
"1036 581 LINE",
"1014 280 LINE",
"1014 0 LINE"
);
}
);
width = 1594;
},
{
anchors = (
{
name = bottom;
position = "{742, 0}";
},
{
name = center;
position = "{742, 570}";
},
{
name = top;
position = "{742, 1500}";
},
{
name = topright;
position = "{1294, 1500}";
}
);
hints = (
{
origin = "{2, 2}";
scale = "{-0.96, 0.98}";
type = Corner;
name = _corner.Serif;
},
{
origin = "{2, 0}";
scale = "{-0.92, 0.98}";
type = Corner;
name = _corner.Serif;
}
);
layerId = "0C29AA02-E021-4BD1-A2C4-87F681D64C35";
paths = (
{
closed = 1;
nodes = (
"876 -22 OFFCURVE",
"993 230 OFFCURVE",
"991 570 CURVE",
"969 570 LINE",
"969 920 OFFCURVE",
"876 1162 OFFCURVE",
"551 1162 CURVE SMOOTH",
"262 1162 OFFCURVE",
"66 960 OFFCURVE",
"66 570 CURVE SMOOTH",
"66 180 OFFCURVE",
"262 -22 OFFCURVE",
"555 -22 CURVE SMOOTH"
);
},
{
closed = 1;
nodes = (
"574 198 OFFCURVE",
"500 326 OFFCURVE",
"500 570 CURVE SMOOTH",
"500 814 OFFCURVE",
"574 942 OFFCURVE",
"706 942 CURVE SMOOTH",
"840 942 OFFCURVE",
"914 814 OFFCURVE",
"914 570 CURVE SMOOTH",
"914 326 OFFCURVE",
"840 198 OFFCURVE",
"706 198 CURVE SMOOTH"
);
},
{
closed = 1;
nodes = (
"1294 0 LINE",
"1294 1500 LINE",
"894 1500 LINE",
"894 838 LINE",
"956 581 LINE",
"924 280 LINE",
"924 0 LINE"
);
}
);
width = 1475;
},
{
anchors = (
{
name = bottom;
position = "{723, 0}";
},
{
name = center;
position = "{723, 551}";
},
{
name = top;
position = "{723, 1561}";
},
{
name = topright;
position = "{1167, 1560}";
}
);
hints = (
{
origin = "{2, 2}";
scale = "{-0.9, 1}";
type = Corner;
name = _corner.Serif;
},
{
origin = "{2, 0}";
scale = "{-0.9, 1}";
type = Corner;
name = _corner.Serif;
}
);
layerId = "2B88661E-23DD-4EDA-82FC-C2AEA983F097";
paths = (
{
closed = 1;
nodes = (
"960 -17 OFFCURVE",
"1151 198 OFFCURVE",
"1151 549 CURVE",
"1150 551 LINE",
"1150 903 OFFCURVE",
"960 1117 OFFCURVE",
"643 1117 CURVE SMOOTH",
"345 1117 OFFCURVE",
"132 903 OFFCURVE",
"132 550 CURVE SMOOTH",
"132 197 OFFCURVE",
"345 -17 OFFCURVE",
"643 -17 CURVE SMOOTH"
);
},
{
closed = 1;
nodes = (
"381 35 OFFCURVE",
"194 226 OFFCURVE",
"194 550 CURVE SMOOTH",
"194 874 OFFCURVE",
"381 1065 OFFCURVE",
"648 1065 CURVE SMOOTH",
"919 1065 OFFCURVE",
"1110 874 OFFCURVE",
"1110 550 CURVE SMOOTH",
"1110 226 OFFCURVE",
"919 35 OFFCURVE",
"648 35 CURVE SMOOTH"
);
},
{
closed = 1;
nodes = (
"1167 0 LINE",
"1167 1560 LINE",
"1107 1560 LINE",
"1107 748 LINE",
"1137 550 LINE",
"1113 332 LINE",
"1113 0 LINE"
);
}
);
width = 1438;
}
);
leftKerningGroup = o;
leftMetricsKey = q;
rightKerningGroup = l;
rightMetricsKey = l;
unicode = 0064;
},
{
color = 8;
glyphname = eth;
lastChange = "2021-05-13 20:25:18 +0000";
layers = (
{
layerId = "1E61A082-F045-49A7-AB52-DD1B03FD9B54";
paths = (
{
closed = 1;
nodes = (
"914 -16 OFFCURVE",
"1118 186 OFFCURVE",
"1118 560 CURVE SMOOTH",
"1118 1014 OFFCURVE",
"913 1361 OFFCURVE",
"512 1596 CURVE",
"488 1560 LINE",
"822 1365 OFFCURVE",
"1076 1055 OFFCURVE",
"1076 540 CURVE",
"1070 540 LINE",
"1070 217 OFFCURVE",
"888 22 OFFCURVE",
"622 22 CURVE SMOOTH",
"356 22 OFFCURVE",
"174 217 OFFCURVE",
"174 540 CURVE SMOOTH",
"174 863 OFFCURVE",
"356 1058 OFFCURVE",
"622 1058 CURVE SMOOTH",
"888 1058 OFFCURVE",
"1070 863 OFFCURVE",
"1070 540 CURVE",
"1096 540 LINE",
"1096 915 OFFCURVE",
"902 1096 OFFCURVE",
"622 1096 CURVE SMOOTH",
"330 1096 OFFCURVE",
"126 894 OFFCURVE",
"126 540 CURVE SMOOTH",
"126 186 OFFCURVE",
"330 -16 OFFCURVE",
"622 -16 CURVE SMOOTH"
);
},
{
closed = 1;
nodes = (
"1130 1397 LINE",
"1130 1438 LINE",
"432 1279 LINE",
"432 1238 LINE"
);
}
);
width = 1256;
},
{
layerId = "219068EA-2B9B-40DC-949E-B60449C01B8A";
paths = (
{
closed = 1;
nodes = (
"1162 -26 OFFCURVE",
"1382 227 OFFCURVE",
"1382 660 CURVE SMOOTH",
"1382 1158 OFFCURVE",
"1078 1551 OFFCURVE",
"642 1740 CURVE",
"529 1572 LINE",
"824 1360 OFFCURVE",
"990 1086 OFFCURVE",
"974 546 CURVE",
"956 546 LINE",
"956 321 OFFCURVE",
"870 194 OFFCURVE",
"729 194 CURVE SMOOTH",
"587 194 OFFCURVE",
"502 314 OFFCURVE",
"502 530 CURVE SMOOTH",
"502 742 OFFCURVE",
"587 866 OFFCURVE",
"729 866 CURVE SMOOTH",
"871 866 OFFCURVE",
"956 761 OFFCURVE",
"956 546 CURVE",
"1010 546 LINE",
"1010 964 OFFCURVE",
"851 1106 OFFCURVE",
"596 1106 CURVE SMOOTH",
"284 1106 OFFCURVE",
"76 905 OFFCURVE",
"76 556 CURVE SMOOTH",
"76 182 OFFCURVE",
"324 -26 OFFCURVE",
"729 -26 CURVE SMOOTH"
);
},
{
closed = 1;
nodes = (
"1324 1322 LINE",
"1324 1524 LINE",
"396 1386 LINE",
"396 1184 LINE"
);
}
);
width = 1458;
},
{
layerId = "0C29AA02-E021-4BD1-A2C4-87F681D64C35";
rightMetricsKey = "=o+12";
paths = (
{
closed = 1;
nodes = (
"1086 -26 OFFCURVE",
"1288 241 OFFCURVE",
"1288 660 CURVE SMOOTH",
"1288 1153 OFFCURVE",
"983 1484 OFFCURVE",
"536 1714 CURVE",
"434 1575 LINE",
"763 1294 OFFCURVE",
"891 1034 OFFCURVE",
"886 566 CURVE",
"872 552 LINE",
"872 280 OFFCURVE",
"795 148 OFFCURVE",
"675 148 CURVE SMOOTH",
"555 148 OFFCURVE",
"478 270 OFFCURVE",
"478 536 CURVE SMOOTH",
"478 808 OFFCURVE",
"555 924 OFFCURVE",
"675 924 CURVE SMOOTH",
"795 924 OFFCURVE",
"872 818 OFFCURVE",
"872 552 CURVE",
"907 550 LINE",
"907 985 OFFCURVE",
"803 1116 OFFCURVE",
"522 1116 CURVE SMOOTH",
"237 1116 OFFCURVE",
"52 903 OFFCURVE",
"52 566 CURVE SMOOTH",
"52 204 OFFCURVE",
"266 -26 OFFCURVE",
"665 -26 CURVE SMOOTH"
);
},
{
closed = 1;
nodes = (
"1206 1326 LINE",
"1206 1514 LINE",
"330 1390 LINE",
"330 1202 LINE"
);
}
);
width = 1352;
},
{
layerId = "2B88661E-23DD-4EDA-82FC-C2AEA983F097";
paths = (
{
closed = 1;
nodes = (
"961 -16 OFFCURVE",
"1174 191 OFFCURVE",
"1174 573 CURVE SMOOTH",
"1174 1029 OFFCURVE",
"958 1377 OFFCURVE",
"544 1611 CURVE",
"517 1566 LINE",
"861 1371 OFFCURVE",
"1122 1063 OFFCURVE",
"1122 550 CURVE",
"1112 550 LINE",
"1112 230 OFFCURVE",
"926 36 OFFCURVE",
"653 36 CURVE SMOOTH",
"380 36 OFFCURVE",
"192 229 OFFCURVE",
"192 549 CURVE SMOOTH",
"192 870 OFFCURVE",
"380 1064 OFFCURVE",
"653 1064 CURVE SMOOTH",
"926 1064 OFFCURVE",
"1112 871 OFFCURVE",
"1112 550 CURVE",
"1147 550 LINE",
"1147 933 OFFCURVE",
"944 1116 OFFCURVE",
"648 1116 CURVE SMOOTH",
"350 1116 OFFCURVE",
"132 910 OFFCURVE",
"132 550 CURVE SMOOTH",
"132 197 OFFCURVE",
"345 -16 OFFCURVE",
"653 -16 CURVE SMOOTH"
);
},
{
closed = 1;
nodes = (
"1164 1406 LINE",
"1164 1455 LINE",
"458 1296 LINE",
"458 1248 LINE"
);
}
);
width = 1306;
}
);
leftKerningGroup = o;
leftMetricsKey = o;
rightMetricsKey = o;
unicode = 00F0;
},
{
color = 8;
glyphname = dcroat;
lastChange = "2021-05-13 14:25:01 +0000";
layers = (
{
anchors = (
{
name = bottom;
position = "{662, 0}";
}
);
hints = (
{
origin = "{2, 0}";
scale = "{-0.9, 1}";
type = Corner;
name = _corner.Serif;
}
);
layerId = "1E61A082-F045-49A7-AB52-DD1B03FD9B54";
paths = (
{
closed = 1;
nodes = (
"884 -20 OFFCURVE",
"1047 192 OFFCURVE",
"1047 539 CURVE",
"1047 541 LINE",
"1047 888 OFFCURVE",
"883 1100 OFFCURVE",
"590 1100 CURVE SMOOTH",
"312 1100 OFFCURVE",
"118 893 OFFCURVE",
"118 540 CURVE SMOOTH",
"118 187 OFFCURVE",
"312 -20 OFFCURVE",
"590 -20 CURVE SMOOTH"
);
},
{
closed = 1;
nodes = (
"342 19 OFFCURVE",
"168 214 OFFCURVE",
"168 540 CURVE SMOOTH",
"168 866 OFFCURVE",
"342 1061 OFFCURVE",
"590 1061 CURVE SMOOTH",
"842 1061 OFFCURVE",
"1022 866 OFFCURVE",
"1022 540 CURVE SMOOTH",
"1022 214 OFFCURVE",
"842 19 OFFCURVE",
"590 19 CURVE SMOOTH"
);
},
{
closed = 1;
nodes = (
"1066 0 LINE",
"1066 1500 LINE",
"1018 1500 LINE",
"1018 736 LINE",
"1034 540 LINE",
"1022 324 LINE",
"1022 0 LINE"
);
},
{
closed = 1;
nodes = (
"1273 1282 LINE",
"1273 1322 LINE",
"683 1322 LINE",
"683 1282 LINE"
);
}
);
width = 1317;
},
{
anchors = (
{
name = bottom;
position = "{839, 0}";
}
);
hints = (
{
origin = "{2, 0}";
scale = "{-0.92, 0.98}";
type = Corner;
name = _corner.Serif;
}
);
layerId = "219068EA-2B9B-40DC-949E-B60449C01B8A";
paths = (
{
closed = 1;
nodes = (
"939 -22 OFFCURVE",
"1071 210 OFFCURVE",
"1071 570 CURVE",
"1043 570 LINE",
"1043 940 OFFCURVE",
"939 1162 OFFCURVE",
"613 1162 CURVE SMOOTH",
"303 1162 OFFCURVE",
"86 950 OFFCURVE",
"86 570 CURVE SMOOTH",
"86 190 OFFCURVE",
"303 -22 OFFCURVE",
"617 -22 CURVE SMOOTH"
);
},
{
closed = 1;
nodes = (
"608 230 OFFCURVE",
"518 347 OFFCURVE",
"518 570 CURVE SMOOTH",
"518 793 OFFCURVE",
"608 910 OFFCURVE",
"760 910 CURVE SMOOTH",
"914 910 OFFCURVE",
"1004 793 OFFCURVE",
"1004 570 CURVE SMOOTH",
"1004 347 OFFCURVE",
"914 230 OFFCURVE",
"760 230 CURVE SMOOTH"
);
},
{
closed = 1;
nodes = (
"1384 0 LINE",
"1384 1580 LINE",
"984 1580 LINE",
"984 838 LINE",
"1036 581 LINE",
"1014 280 LINE",
"1014 0 LINE"
);
},
{
closed = 1;
nodes = (
"1522 1272 LINE",
"1522 1450 LINE",
"715 1450 LINE",
"715 1272 LINE"
);
}
);
width = 1594;
},
{
anchors = (
{
name = bottom;
position = "{792, 0}";
}
);
hints = (
{
origin = "{2, 0}";
scale = "{-0.92, 0.98}";
type = Corner;
name = _corner.Serif;
}
);
layerId = "0C29AA02-E021-4BD1-A2C4-87F681D64C35";
paths = (
{
closed = 1;
nodes = (
"876 -22 OFFCURVE",
"993 226 OFFCURVE",
"991 560 CURVE",
"969 560 LINE",
"969 904 OFFCURVE",
"876 1142 OFFCURVE",
"551 1142 CURVE SMOOTH",
"262 1142 OFFCURVE",
"66 943 OFFCURVE",
"66 560 CURVE SMOOTH",
"66 177 OFFCURVE",
"262 -22 OFFCURVE",
"555 -22 CURVE SMOOTH"
);
},
{
closed = 1;
nodes = (
"574 198 OFFCURVE",
"500 323 OFFCURVE",
"500 560 CURVE SMOOTH",
"500 797 OFFCURVE",
"574 922 OFFCURVE",
"706 922 CURVE SMOOTH",
"840 922 OFFCURVE",
"914 797 OFFCURVE",
"914 560 CURVE SMOOTH",
"914 323 OFFCURVE",
"840 198 OFFCURVE",
"706 198 CURVE SMOOTH"
);
},
{
closed = 1;
nodes = (
"1294 0 LINE",
"1294 1500 LINE",
"894 1500 LINE",
"894 838 LINE",
"956 581 LINE",
"924 280 LINE",
"924 0 LINE"
);
},
{
closed = 1;
nodes = (
"1441 1232 LINE",
"1441 1400 LINE",
"694 1400 LINE",
"694 1232 LINE"
);
}
);
width = 1475;
},
{
anchors = (
{
name = bottom;
position = "{739, 0}";
}
);
hints = (
{
origin = "{2, 0}";
scale = "{-0.9, 1}";
type = Corner;
name = _corner.Serif;
}
);
layerId = "2B88661E-23DD-4EDA-82FC-C2AEA983F097";
paths = (
{
closed = 1;
nodes = (
"960 -17 OFFCURVE",
"1151 198 OFFCURVE",
"1151 549 CURVE",
"1150 551 LINE",
"1150 903 OFFCURVE",
"960 1117 OFFCURVE",
"643 1117 CURVE SMOOTH",
"345 1117 OFFCURVE",
"132 903 OFFCURVE",
"132 550 CURVE SMOOTH",
"132 197 OFFCURVE",
"345 -17 OFFCURVE",
"643 -17 CURVE SMOOTH"
);
},
{
closed = 1;
nodes = (
"381 35 OFFCURVE",
"194 226 OFFCURVE",
"194 550 CURVE SMOOTH",
"194 874 OFFCURVE",
"381 1065 OFFCURVE",
"648 1065 CURVE SMOOTH",
"919 1065 OFFCURVE",
"1110 874 OFFCURVE",
"1110 550 CURVE SMOOTH",
"1110 226 OFFCURVE",
"919 35 OFFCURVE",
"648 35 CURVE SMOOTH"
);
},
{
closed = 1;
nodes = (
"1167 0 LINE",
"1167 1560 LINE",
"1107 1560 LINE",
"1107 748 LINE",
"1137 550 LINE",
"1113 332 LINE",
"1113 0 LINE"
);
},
{
closed = 1;
nodes = (
"1360 1311 LINE",
"1360 1359 LINE",
"742 1359 LINE",
"742 1311 LINE"
);
}
);
width = 1438;
}
);
leftKerningGroup = o;
leftMetricsKey = d;
rightKerningGroup = l;
rightMetricsKey = d;
unicode = 0111;
},
{
color = 8;
glyphname = e;
lastChange = "2021-05-13 21:14:39 +0000";
layers = (
{
anchors = (
{
name = bottom;
position = "{595, 0}";
},
{
name = ogonek;
position = "{847, 0}";
},
{
name = top;
position = "{595, 1080}";
}
);
layerId = "1E61A082-F045-49A7-AB52-DD1B03FD9B54";
rightMetricsKey = "=o-6";
paths = (
{
closed = 1;
nodes = (
"918 -16 OFFCURVE",
"1040 214 OFFCURVE",
"1055 380 CURVE",
"1021 380 LINE",
"1007 234 OFFCURVE",
"894 26 OFFCURVE",
"610 26 CURVE SMOOTH",
"350 26 OFFCURVE",
"175 216 OFFCURVE",
"175 540 CURVE SMOOTH",
"175 863 OFFCURVE",
"348 1058 OFFCURVE",
"610 1058 CURVE",
"610 1096 LINE",
"322 1096 OFFCURVE",
"126 894 OFFCURVE",
"126 540 CURVE SMOOTH",
"126 186 OFFCURVE",
"322 -16 OFFCURVE",
"610 -16 CURVE SMOOTH"
);
},
{
closed = 1;
nodes = (
"1064 586 LINE",
"1064 600 LINE",
"1020 624 LINE",
"160 624 LINE",
"160 586 LINE"
);
},
{
closed = 1;
nodes = (
"1064 892 OFFCURVE",
"909 1096 OFFCURVE",
"610 1096 CURVE",
"610 1058 LINE",
"881 1058 OFFCURVE",
"1010 864 OFFCURVE",
"1020 624 CURVE",
"1064 600 LINE"
);
}
);
width = 1184;
},
{
anchors = (
{
name = bottom;
position = "{674, 0}";
},
{
name = ogonek;
position = "{999, 0}";
},
{
name = top;
position = "{674, 1160}";
}
);
layerId = "219068EA-2B9B-40DC-949E-B60449C01B8A";
rightMetricsKey = "=o+14";
paths = (
{
closed = 1;
nodes = (
"1063 -26 OFFCURVE",
"1245 207 OFFCURVE",
"1268 440 CURVE",
"1016 440 LINE",
"982 341 OFFCURVE",
"907 267 OFFCURVE",
"759 267 CURVE SMOOTH",
"580 267 OFFCURVE",
"468 399 OFFCURVE",
"468 610 CURVE SMOOTH",
"468 873 OFFCURVE",
"548 970 OFFCURVE",
"689 970 CURVE",
"677 1186 LINE",
"328 1186 OFFCURVE",
"76 970 OFFCURVE",
"76 580 CURVE SMOOTH",
"76 189 OFFCURVE",
"331 -26 OFFCURVE",
"693 -26 CURVE SMOOTH"
);
},
{
closed = 1;
nodes = (
"1272 560 LINE",
"1272 657 LINE",
"878 752 LINE",
"256 752 LINE",
"256 560 LINE"
);
},
{
closed = 1;
nodes = (
"1272 972 OFFCURVE",
"1063 1186 OFFCURVE",
"677 1186 CURVE",
"689 970 LINE",
"812 970 OFFCURVE",
"874 870 OFFCURVE",
"878 752 CURVE",
"1272 657 LINE"
);
}
);
width = 1362;
},
{
anchors = (
{
name = bottom;
position = "{632, 0}";
},
{
name = ogonek;
position = "{937, 0}";
},
{
name = top;
position = "{632, 1140}";
}
);
layerId = "0C29AA02-E021-4BD1-A2C4-87F681D64C35";
rightMetricsKey = "=o+8";
paths = (
{
closed = 1;
nodes = (
"1009 -26 OFFCURVE",
"1196 211 OFFCURVE",
"1198 492 CURVE",
"1022 492 LINE",
"1003 363 OFFCURVE",
"925 249 OFFCURVE",
"757 249 CURVE SMOOTH",
"562 249 OFFCURVE",
"456 387 OFFCURVE",
"456 608 CURVE SMOOTH",
"456 903 OFFCURVE",
"535 992 OFFCURVE",
"653 992 CURVE",
"645 1166 LINE",
"297 1166 OFFCURVE",
"52 944 OFFCURVE",
"52 570 CURVE SMOOTH",
"52 195 OFFCURVE",
"297 -26 OFFCURVE",
"645 -26 CURVE SMOOTH"
);
},
{
closed = 1;
nodes = (
"1202 574 LINE",
"1202 631 LINE",
"804 748 LINE",
"250 748 LINE",
"250 574 LINE"
);
},
{
closed = 1;
nodes = (
"1202 941 OFFCURVE",
"1004 1166 OFFCURVE",
"645 1166 CURVE",
"653 992 LINE",
"749 992 OFFCURVE",
"802 899 OFFCURVE",
"804 748 CURVE",
"1202 631 LINE"
);
}
);
width = 1262;
},
{
anchors = (
{
name = bottom;
position = "{632, 0}";
},
{
name = ogonek;
position = "{899, 0}";
},
{
name = top;
position = "{632, 1100}";
}
);
layerId = "2B88661E-23DD-4EDA-82FC-C2AEA983F097";
paths = (
{
closed = 1;
nodes = (
"966 -16 OFFCURVE",
"1088 186 OFFCURVE",
"1115 328 CURVE",
"1060 328 LINE",
"1033 216 OFFCURVE",
"929 42 OFFCURVE",
"649 42 CURVE SMOOTH",
"369 42 OFFCURVE",
"192 232 OFFCURVE",
"192 551 CURVE SMOOTH",
"192 874 OFFCURVE",
"369 1064 OFFCURVE",
"648 1064 CURVE",
"648 1116 LINE",
"337 1116 OFFCURVE",
"132 911 OFFCURVE",
"132 550 CURVE SMOOTH",
"132 189 OFFCURVE",
"335 -16 OFFCURVE",
"647 -16 CURVE SMOOTH"
);
},
{
closed = 1;
nodes = (
"1132 588 LINE",
"1132 612 LINE",
"1074 638 LINE",
"169 638 LINE",
"169 588 LINE"
);
},
{
closed = 1;
nodes = (
"1132 908 OFFCURVE",
"965 1116 OFFCURVE",
"648 1116 CURVE",
"648 1064 LINE",
"930 1064 OFFCURVE",
"1062 875 OFFCURVE",
"1074 638 CURVE",
"1132 612 LINE"
);
}
);
width = 1264;
}
);
leftKerningGroup = o;
leftMetricsKey = o;
rightKerningGroup = o;
rightMetricsKey = o;
unicode = 0065;
},
{
color = 8;
glyphname = f;
lastChange = "2021-05-24 11:03:05 +0000";
layers = (
{
anchors = (
{
name = bottom;
position = "{429, 0}";
},
{
name = top;
position = "{429, 1500}";
}
);
hints = (
{
origin = "{0, 3}";
type = Corner;
name = _corner.Serif;
},
{
origin = "{0, 0}";
scale = "{-1.6, 1}";
type = Corner;
name = _corner.Serif;
options = 1;
}
);
layerId = "1E61A082-F045-49A7-AB52-DD1B03FD9B54";
paths = (
{
closed = 1;
nodes = (
"392 0 LINE",
"392 1124 LINE",
"344 1122 LINE",
"344 0 LINE"
);
},
{
closed = 1;
nodes = (
"792 1042 LINE",
"792 1080 LINE",
"44 1080 LINE",
"44 1042 LINE"
);
},
{
closed = 1;
nodes = (
"392 1124 LINE",
"392 1382 OFFCURVE",
"491 1497 OFFCURVE",
"692 1497 CURVE",
"692 1534 LINE",
"460 1534 OFFCURVE",
"344 1403 OFFCURVE",
"344 1122 CURVE"
);
},
{
closed = 1;
nodes = (
"893 1292 OFFCURVE",
"918 1332 OFFCURVE",
"918 1377 CURVE SMOOTH",
"918 1479 OFFCURVE",
"816 1534 OFFCURVE",
"692 1534 CURVE",
"692 1497 LINE",
"797 1497 OFFCURVE",
"868 1465 OFFCURVE",
"882 1391 CURVE",
"888 1415 LINE",
"826 1415 OFFCURVE",
"787 1391 OFFCURVE",
"787 1346 CURVE SMOOTH",
"787 1313 OFFCURVE",
"813 1292 OFFCURVE",
"845 1292 CURVE SMOOTH"
);
}
);
width = 866;
},
{
anchors = (
{
name = bottom;
position = "{510, 0}";
},
{
name = top;
position = "{510, 1580}";
}
);
hints = (
{
origin = "{0, 3}";
scale = "{1, 0.98}";
type = Corner;
name = _corner.Serif;
},
{
origin = "{0, 0}";
scale = "{-1.5, 0.98}";
type = Corner;
name = _corner.Serif;
options = 1;
}
);
layerId = "219068EA-2B9B-40DC-949E-B60449C01B8A";
paths = (
{
closed = 1;
nodes = (
"664 0 LINE",
"664 1275 LINE",
"266 1216 LINE",
"266 0 LINE"
);
},
{
closed = 1;
nodes = (
"1010 934 LINE",
"1010 1160 LINE",
"38 1160 LINE",
"38 934 LINE"
);
},
{
closed = 1;
nodes = (
"664 1275 LINE",
"664 1416 OFFCURVE",
"723 1472 OFFCURVE",
"826 1472 CURVE",
"806 1642 LINE",
"517 1642 OFFCURVE",
"266 1529 OFFCURVE",
"266 1216 CURVE"
);
},
{
closed = 1;
nodes = (
"1137 1270 OFFCURVE",
"1212 1336 OFFCURVE",
"1212 1420 CURVE SMOOTH",
"1212 1554 OFFCURVE",
"1048 1642 OFFCURVE",
"806 1642 CURVE",
"826 1472 LINE",
"889 1472 OFFCURVE",
"935 1456 OFFCURVE",
"968 1437 CURVE",
"1000 1500 LINE",
"896 1500 OFFCURVE",
"815 1476 OFFCURVE",
"815 1393 CURVE SMOOTH",
"815 1310 OFFCURVE",
"900 1270 OFFCURVE",
"1000 1270 CURVE SMOOTH"
);
}
);
width = 1092;
},
{
anchors = (
{
name = bottom;
position = "{448, 0}";
},
{
name = top;
position = "{448, 1500}";
}
);
hints = (
{
origin = "{0, 3}";
scale = "{1, 0.98}";
type = Corner;
name = _corner.Serif;
},
{
origin = "{0, 0}";
scale = "{-1.7, 0.98}";
type = Corner;
name = _corner.Serif;
options = 1;
}
);
layerId = "0C29AA02-E021-4BD1-A2C4-87F681D64C35";
paths = (
{
closed = 1;
nodes = (
"624 0 LINE",
"624 1281 LINE",
"226 1180 LINE",
"226 0 LINE"
);
},
{
closed = 1;
nodes = (
"940 940 LINE",
"940 1140 LINE",
"-2 1140 LINE",
"-2 940 LINE"
);
},
{
closed = 1;
nodes = (
"624 1281 LINE",
"624 1411 OFFCURVE",
"694 1464 OFFCURVE",
"795 1464 CURVE",
"763 1606 LINE",
"443 1606 OFFCURVE",
"226 1480 OFFCURVE",
"226 1180 CURVE"
);
},
{
closed = 1;
nodes = (
"1069 1230 OFFCURVE",
"1143 1289 OFFCURVE",
"1143 1384 CURVE SMOOTH",
"1143 1514 OFFCURVE",
"982 1606 OFFCURVE",
"763 1606 CURVE",
"795 1464 LINE",
"865 1464 OFFCURVE",
"913 1450 OFFCURVE",
"943 1431 CURVE",
"959 1485 LINE",
"866 1485 OFFCURVE",
"794 1447 OFFCURVE",
"794 1363 CURVE SMOOTH",
"794 1277 OFFCURVE",
"862 1230 OFFCURVE",
"958 1230 CURVE SMOOTH"
);
}
);
width = 993;
},
{
anchors = (
{
name = bottom;
position = "{472, 0}";
},
{
name = top;
position = "{472, 1561}";
}
);
hints = (
{
origin = "{0, 3}";
type = Corner;
name = _corner.Serif;
},
{
origin = "{0, 0}";
scale = "{-1.2, 1}";
type = Corner;
name = _corner.Serif;
options = 1;
}
);
layerId = "2B88661E-23DD-4EDA-82FC-C2AEA983F097";
paths = (
{
closed = 1;
nodes = (
"448 0 LINE",
"448 1168 LINE",
"388 1162 LINE",
"388 0 LINE"
);
},
{
closed = 1;
nodes = (
"828 1050 LINE",
"828 1100 LINE",
"90 1100 LINE",
"90 1050 LINE"
);
},
{
closed = 1;
nodes = (
"448 1168 LINE",
"448 1418 OFFCURVE",
"557 1531 OFFCURVE",
"778 1531 CURVE",
"777 1578 LINE",
"518 1578 OFFCURVE",
"388 1446 OFFCURVE",
"388 1162 CURVE"
);
},
{
closed = 1;
nodes = (
"988 1353 OFFCURVE",
"1014 1388 OFFCURVE",
"1014 1433 CURVE SMOOTH",
"1014 1522 OFFCURVE",
"905 1578 OFFCURVE",
"777 1578 CURVE",
"778 1531 LINE",
"877 1531 OFFCURVE",
"944 1502 OFFCURVE",
"961 1448 CURVE",
"977 1487 LINE",
"926 1487 OFFCURVE",
"878 1464 OFFCURVE",
"878 1412 CURVE SMOOTH",
"878 1377 OFFCURVE",
"904 1353 OFFCURVE",
"942 1353 CURVE SMOOTH"
);
}
);
width = 950;
}
);
leftKerningGroup = f;
rightKerningGroup = f;
unicode = 0066;
},
